M48
; DRILL file {KiCad 9.0.7-9.0.7~ubuntu24.04.1} date 2026-03-16T00:28:27+0100
; FORMAT={-:-/ absolute / metric / decimal}
; #@! TF.CreationDate,2026-03-16T00:28:27+01:00
; #@! TF.GenerationSoftware,Kicad,Pcbnew,9.0.7-9.0.7~ubuntu24.04.1
; #@! TF.FileFunction,Plated,1,2,PTH
FMAT,2
METRIC
; #@! TA.AperFunction,Plated,PTH,ViaDrill
T1C0.300
; #@! TA.AperFunction,Plated,PTH,ComponentDrill
T2C0.700
; #@! TA.AperFunction,Plated,PTH,ComponentDrill
T3C0.750
; #@! TA.AperFunction,Plated,PTH,ComponentDrill
T4C0.800
; #@! TA.AperFunction,Plated,PTH,ComponentDrill
T5C0.900
; #@! TA.AperFunction,Plated,PTH,ComponentDrill
T6C1.000
%
G90
G05
T1
X111.811Y-70.053
X112.432Y-75.701
X115.418Y-81.737
X115.57Y-68.326
X116.129Y-93.675
X118.008Y-96.774
X121.056Y-69.037
X131.68Y-84.697
X132.473Y-112.154
X133.604Y-115.875
X134.315Y-120.548
X136.195Y-116.027
X139.294Y-115.316
X141.275Y-54.813
X148.277Y-78.793
X149.129Y-61.081
X151.943Y-87.071
X154.946Y-58.129
X160.223Y-72.39
X161.834Y-86.861
X162.662Y-68.834
X163.119Y-82.448
X163.67Y-55.177
X165.913Y-82.398
T2
X104.445Y-96.982
X104.445Y-102.062
X104.632Y-85.918
X104.632Y-90.998
X104.648Y-74.474
X104.648Y-79.554
X115.859Y-85.715
X115.859Y-90.795
X116.078Y-97.236
X116.078Y-102.316
X116.281Y-74.474
X116.281Y-79.554
X125.334Y-112.544
X125.334Y-117.624
X142.493Y-107.086
X147.573Y-107.086
X155.817Y-86.004
X155.817Y-91.084
X155.969Y-73.915
X155.969Y-78.995
X156.02Y-96.779
X156.02Y-101.859
X166.79Y-96.525
X166.79Y-101.605
X166.84Y-86.004
X166.84Y-91.084
X167.196Y-73.762
X167.196Y-78.842
T3
X109.017Y-88.904
X109.068Y-77.119
X109.068Y-99.725
X110.287Y-88.904
X110.338Y-77.119
X110.338Y-99.725
X111.557Y-88.904
X111.608Y-77.119
X111.608Y-99.725
X134.417Y-125.578
X136.417Y-125.578
X159.83Y-99.572
X159.932Y-89.049
X160.389Y-76.814
X161.1Y-99.572
X161.202Y-89.049
X161.659Y-76.814
X162.37Y-99.572
X162.472Y-89.049
X162.929Y-76.814
T4
X131.369Y-111.1
X131.369Y-118.72
X133.909Y-111.1
X133.909Y-118.72
X136.449Y-111.1
X136.449Y-118.72
X138.989Y-111.1
X138.989Y-118.72
X145.869Y-113.85
X145.869Y-116.35
T5
X134.315Y-106.731
X136.855Y-106.731
T6
X110.592Y-64.618
X113.132Y-64.618
X115.672Y-64.618
X126.779Y-52.346
X126.779Y-54.886
X126.779Y-57.426
X126.779Y-59.966
X126.779Y-62.506
X126.779Y-65.046
X126.779Y-67.586
X126.779Y-70.126
X126.779Y-72.666
X126.779Y-75.206
X126.779Y-77.746
X126.779Y-80.286
X126.779Y-82.826
X126.779Y-85.366
X126.779Y-87.906
X126.779Y-90.446
X126.779Y-92.986
X126.779Y-95.526
X126.779Y-98.066
X126.779Y-100.606
X144.559Y-52.346
X144.559Y-54.886
X144.559Y-57.426
X144.559Y-59.966
X144.559Y-62.506
X144.559Y-65.046
X144.559Y-67.586
X144.559Y-70.126
X144.559Y-72.666
X144.559Y-75.206
X144.559Y-77.746
X144.559Y-80.286
X144.559Y-82.826
X144.559Y-85.366
X144.559Y-87.906
X144.559Y-90.446
X144.559Y-92.986
X144.559Y-95.526
X144.559Y-98.066
X144.559Y-100.606
X156.769Y-65.075
X159.309Y-65.075
X161.849Y-65.075
M30
