M48
; DRILL file {KiCad 9.0.7-9.0.7~ubuntu24.04.1} date 2026-03-14T18:05:51+0100
; FORMAT={-:-/ absolute / metric / decimal}
; #@! TF.CreationDate,2026-03-14T18:05:51+01:00
; #@! TF.GenerationSoftware,Kicad,Pcbnew,9.0.7-9.0.7~ubuntu24.04.1
; #@! TF.FileFunction,Plated,1,2,PTH
FMAT,2
METRIC
; #@! TA.AperFunction,Plated,PTH,ViaDrill
T1C0.300
; #@! TA.AperFunction,Plated,PTH,ComponentDrill
T2C0.700
; #@! TA.AperFunction,Plated,PTH,ComponentDrill
T3C0.750
; #@! TA.AperFunction,Plated,PTH,ComponentDrill
T4C0.800
; #@! TA.AperFunction,Plated,PTH,ComponentDrill
T5C0.900
; #@! TA.AperFunction,Plated,PTH,ComponentDrill
T6C1.000
%
G90
G05
T1
X110.592Y-72.492
X111.2Y-70.06
X112.42Y-71.831
X113.03Y-94.437
X113.316Y-72.818
X115.519Y-82.55
X115.722Y-76.606
X116.281Y-71.73
X116.484Y-93.929
X116.484Y-99.568
X122.577Y-90.601
X122.956Y-114.217
X131.68Y-72.889
X138.227Y-114.3
X142.807Y-79.173
X149.555Y-76.454
X152.037Y-58.129
X152.037Y-61.081
X156.261Y-76.403
X161.188Y-71.831
X163.17Y-81.483
X165.964Y-93.421
X166.578Y-52.281
X167.03Y-81.788
X167.284Y-76.2
T2
X104.445Y-96.982
X104.445Y-102.062
X104.632Y-85.918
X104.632Y-90.998
X104.648Y-74.474
X104.648Y-79.554
X115.859Y-85.715
X115.859Y-90.795
X116.078Y-97.236
X116.078Y-102.316
X116.281Y-74.474
X116.281Y-79.554
X125.334Y-112.544
X125.334Y-117.624
X142.493Y-107.086
X147.573Y-107.086
X155.817Y-86.004
X155.817Y-91.084
X155.969Y-73.915
X155.969Y-78.995
X156.02Y-96.779
X156.02Y-101.859
X166.79Y-96.525
X166.79Y-101.605
X166.84Y-86.004
X166.84Y-91.084
X167.196Y-73.762
X167.196Y-78.842
T3
X108.642Y-66.954
X109.017Y-88.904
X109.068Y-77.119
X109.068Y-99.725
X110.287Y-88.904
X110.338Y-77.119
X110.338Y-99.725
X110.642Y-66.954
X111.557Y-88.904
X111.608Y-77.119
X111.608Y-99.725
X112.642Y-66.954
X134.417Y-125.578
X136.417Y-125.578
X159.474Y-66.802
X159.83Y-99.572
X159.932Y-89.049
X160.389Y-76.814
X161.1Y-99.572
X161.202Y-89.049
X161.474Y-66.802
X161.659Y-76.814
X162.37Y-99.572
X162.472Y-89.049
X162.929Y-76.814
X163.474Y-66.802
T4
X131.369Y-111.1
X131.369Y-118.72
X133.909Y-111.1
X133.909Y-118.72
X136.449Y-111.1
X136.449Y-118.72
X138.989Y-111.1
X138.989Y-118.72
X145.869Y-113.85
X145.869Y-116.35
T5
X134.315Y-106.731
X136.855Y-106.731
T6
X126.779Y-52.346
X126.779Y-54.886
X126.779Y-57.426
X126.779Y-59.966
X126.779Y-62.506
X126.779Y-65.046
X126.779Y-67.586
X126.779Y-70.126
X126.779Y-72.666
X126.779Y-75.206
X126.779Y-77.746
X126.779Y-80.286
X126.779Y-82.826
X126.779Y-85.366
X126.779Y-87.906
X126.779Y-90.446
X126.779Y-92.986
X126.779Y-95.526
X126.779Y-98.066
X126.779Y-100.606
X144.559Y-52.346
X144.559Y-54.886
X144.559Y-57.426
X144.559Y-59.966
X144.559Y-62.506
X144.559Y-65.046
X144.559Y-67.586
X144.559Y-70.126
X144.559Y-72.666
X144.559Y-75.206
X144.559Y-77.746
X144.559Y-80.286
X144.559Y-82.826
X144.559Y-85.366
X144.559Y-87.906
X144.559Y-90.446
X144.559Y-92.986
X144.559Y-95.526
X144.559Y-98.066
X144.559Y-100.606
M30
