M48
; DRILL file {KiCad 9.0.7-9.0.7~ubuntu24.04.1} date 2026-03-16T06:25:26+0100
; FORMAT={-:-/ absolute / metric / decimal}
; #@! TF.CreationDate,2026-03-16T06:25:26+01:00
; #@! TF.GenerationSoftware,Kicad,Pcbnew,9.0.7-9.0.7~ubuntu24.04.1
; #@! TF.FileFunction,Plated,1,2,PTH
FMAT,2
METRIC
; #@! TA.AperFunction,Plated,PTH,ViaDrill
T1C0.300
; #@! TA.AperFunction,Plated,PTH,ComponentDrill
T2C0.700
; #@! TA.AperFunction,Plated,PTH,ComponentDrill
T3C0.750
; #@! TA.AperFunction,Plated,PTH,ComponentDrill
T4C0.800
; #@! TA.AperFunction,Plated,PTH,ComponentDrill
T5C0.900
; #@! TA.AperFunction,Plated,PTH,ComponentDrill
T6C1.000
%
G90
G05
T1
X110.693Y-72.593
X111.323Y-69.937
X111.862Y-81.686
X112.166Y-67.666
X112.624Y-93.777
X115.418Y-71.577
X115.519Y-82.245
X117.867Y-94.303
X117.904Y-89.376
X122.53Y-82.042
X123.88Y-88.6
X127.152Y-115.214
X128.772Y-117.169
X131.68Y-84.697
X136.5Y-114.198
X137.721Y-120.782
X138.887Y-114.656
X140.403Y-122.831
X142.138Y-102.718
X142.951Y-110.947
X142.951Y-117.907
X143.245Y-122.831
X143.395Y-96.899
X145.934Y-119.813
X148.133Y-120.904
X148.488Y-85.852
X148.608Y-67.528
X149.129Y-122.832
X149.187Y-90.296
X152.451Y-87.427
X152.806Y-81.28
X157.378Y-93.523
X158.104Y-88.587
X160.071Y-93.929
X160.172Y-69.952
X162.306Y-72.085
X162.818Y-69.937
X162.966Y-82.448
X163.67Y-52.281
T2
X104.445Y-96.982
X104.445Y-102.062
X104.632Y-85.918
X104.632Y-90.998
X104.648Y-74.474
X104.648Y-79.554
X115.859Y-85.715
X115.859Y-90.795
X116.078Y-97.236
X116.078Y-102.316
X116.281Y-74.474
X116.281Y-79.554
X125.334Y-112.544
X125.334Y-117.624
X142.493Y-107.086
X147.573Y-107.086
X155.817Y-86.004
X155.817Y-91.084
X155.969Y-73.915
X155.969Y-78.995
X156.02Y-96.779
X156.02Y-101.859
X166.79Y-96.525
X166.79Y-101.605
X166.84Y-86.004
X166.84Y-91.084
X167.196Y-73.762
X167.196Y-78.842
T3
X109.017Y-88.904
X109.068Y-77.119
X109.068Y-99.725
X110.287Y-88.904
X110.338Y-77.119
X110.338Y-99.725
X111.557Y-88.904
X111.608Y-77.119
X111.608Y-99.725
X119.768Y-108.56
X121.768Y-108.56
X159.83Y-99.572
X159.932Y-89.049
X160.389Y-76.814
X161.1Y-99.572
X161.202Y-89.049
X161.659Y-76.814
X162.37Y-99.572
X162.472Y-89.049
X162.929Y-76.814
T4
X131.369Y-111.1
X131.369Y-118.72
X133.909Y-111.1
X133.909Y-118.72
X136.449Y-111.1
X136.449Y-118.72
X138.989Y-111.1
X138.989Y-118.72
X145.869Y-113.85
X145.869Y-116.35
T5
X134.315Y-106.731
X136.855Y-106.731
T6
X110.592Y-64.618
X113.132Y-64.618
X115.672Y-64.618
X119.583Y-124.917
X122.123Y-124.917
X124.663Y-124.917
X126.779Y-52.346
X126.779Y-54.886
X126.779Y-57.426
X126.779Y-59.966
X126.779Y-62.506
X126.779Y-65.046
X126.779Y-67.586
X126.779Y-70.126
X126.779Y-72.666
X126.779Y-75.206
X126.779Y-77.746
X126.779Y-80.286
X126.779Y-82.826
X126.779Y-85.366
X126.779Y-87.906
X126.779Y-90.446
X126.779Y-92.986
X126.779Y-95.526
X126.779Y-98.066
X126.779Y-100.606
X127.203Y-124.917
X129.743Y-124.917
X132.283Y-124.917
X134.823Y-124.917
X137.363Y-124.917
X139.903Y-124.917
X142.443Y-124.917
X144.559Y-52.346
X144.559Y-54.886
X144.559Y-57.426
X144.559Y-59.966
X144.559Y-62.506
X144.559Y-65.046
X144.559Y-67.586
X144.559Y-70.126
X144.559Y-72.666
X144.559Y-75.206
X144.559Y-77.746
X144.559Y-80.286
X144.559Y-82.826
X144.559Y-85.366
X144.559Y-87.906
X144.559Y-90.446
X144.559Y-92.986
X144.559Y-95.526
X144.559Y-98.066
X144.559Y-100.606
X144.983Y-124.917
X147.523Y-124.917
X150.063Y-124.917
X152.603Y-124.917
X156.769Y-65.075
X159.309Y-65.075
X161.849Y-65.075
M30
