%TF.GenerationSoftware,KiCad,Pcbnew,9.0.7-9.0.7~ubuntu24.04.1*%
%TF.CreationDate,2026-03-16T06:25:29+01:00*%
%TF.ProjectId,FIS-display,4649532d-6469-4737-906c-61792e6b6963,rev?*%
%TF.SameCoordinates,Original*%
%TF.FileFunction,Copper,L2,Bot*%
%TF.FilePolarity,Positive*%
%FSLAX46Y46*%
G04 Gerber Fmt 4.6, Leading zero omitted, Abs format (unit mm)*
G04 Created by KiCad (PCBNEW 9.0.7-9.0.7~ubuntu24.04.1) date 2026-03-16 06:25:29*
%MOMM*%
%LPD*%
G01*
G04 APERTURE LIST*
G04 Aperture macros list*
%AMRoundRect*
0 Rectangle with rounded corners*
0 $1 Rounding radius*
0 $2 $3 $4 $5 $6 $7 $8 $9 X,Y pos of 4 corners*
0 Add a 4 corners polygon primitive as box body*
4,1,4,$2,$3,$4,$5,$6,$7,$8,$9,$2,$3,0*
0 Add four circle primitives for the rounded corners*
1,1,$1+$1,$2,$3*
1,1,$1+$1,$4,$5*
1,1,$1+$1,$6,$7*
1,1,$1+$1,$8,$9*
0 Add four rect primitives between the rounded corners*
20,1,$1+$1,$2,$3,$4,$5,0*
20,1,$1+$1,$4,$5,$6,$7,0*
20,1,$1+$1,$6,$7,$8,$9,0*
20,1,$1+$1,$8,$9,$2,$3,0*%
%AMFreePoly0*
4,1,37,0.603843,0.796157,0.639018,0.796157,0.711114,0.766294,0.766294,0.711114,0.796157,0.639018,0.796157,0.603843,0.800000,0.600000,0.800000,-0.600000,0.796157,-0.603843,0.796157,-0.639018,0.766294,-0.711114,0.711114,-0.766294,0.639018,-0.796157,0.603843,-0.796157,0.600000,-0.800000,0.000000,-0.800000,0.000000,-0.796148,-0.078414,-0.796148,-0.232228,-0.765552,-0.377117,-0.705537,
-0.507515,-0.618408,-0.618408,-0.507515,-0.705537,-0.377117,-0.765552,-0.232228,-0.796148,-0.078414,-0.796148,0.078414,-0.765552,0.232228,-0.705537,0.377117,-0.618408,0.507515,-0.507515,0.618408,-0.377117,0.705537,-0.232228,0.765552,-0.078414,0.796148,0.000000,0.796148,0.000000,0.800000,0.600000,0.800000,0.603843,0.796157,0.603843,0.796157,$1*%
%AMFreePoly1*
4,1,37,0.000000,0.796148,0.078414,0.796148,0.232228,0.765552,0.377117,0.705537,0.507515,0.618408,0.618408,0.507515,0.705537,0.377117,0.765552,0.232228,0.796148,0.078414,0.796148,-0.078414,0.765552,-0.232228,0.705537,-0.377117,0.618408,-0.507515,0.507515,-0.618408,0.377117,-0.705537,0.232228,-0.765552,0.078414,-0.796148,0.000000,-0.796148,0.000000,-0.800000,-0.600000,-0.800000,
-0.603843,-0.796157,-0.639018,-0.796157,-0.711114,-0.766294,-0.766294,-0.711114,-0.796157,-0.639018,-0.796157,-0.603843,-0.800000,-0.600000,-0.800000,0.600000,-0.796157,0.603843,-0.796157,0.639018,-0.766294,0.711114,-0.711114,0.766294,-0.639018,0.796157,-0.603843,0.796157,-0.600000,0.800000,0.000000,0.800000,0.000000,0.796148,0.000000,0.796148,$1*%
G04 Aperture macros list end*
%TA.AperFunction,ComponentPad*%
%ADD10R,1.700000X1.700000*%
%TD*%
%TA.AperFunction,ComponentPad*%
%ADD11C,1.700000*%
%TD*%
%TA.AperFunction,ComponentPad*%
%ADD12C,1.400000*%
%TD*%
%TA.AperFunction,ComponentPad*%
%ADD13R,1.050000X1.500000*%
%TD*%
%TA.AperFunction,ComponentPad*%
%ADD14O,1.050000X1.500000*%
%TD*%
%TA.AperFunction,ComponentPad*%
%ADD15RoundRect,0.250000X0.550000X-0.550000X0.550000X0.550000X-0.550000X0.550000X-0.550000X-0.550000X0*%
%TD*%
%TA.AperFunction,ComponentPad*%
%ADD16C,1.600000*%
%TD*%
%TA.AperFunction,ComponentPad*%
%ADD17R,1.800000X1.800000*%
%TD*%
%TA.AperFunction,ComponentPad*%
%ADD18C,1.800000*%
%TD*%
%TA.AperFunction,ComponentPad*%
%ADD19RoundRect,0.250000X0.350000X0.625000X-0.350000X0.625000X-0.350000X-0.625000X0.350000X-0.625000X0*%
%TD*%
%TA.AperFunction,ComponentPad*%
%ADD20O,1.200000X1.750000*%
%TD*%
%TA.AperFunction,ComponentPad*%
%ADD21RoundRect,0.200000X-0.600000X-0.600000X0.600000X-0.600000X0.600000X0.600000X-0.600000X0.600000X0*%
%TD*%
%TA.AperFunction,ComponentPad*%
%ADD22FreePoly0,0.000000*%
%TD*%
%TA.AperFunction,ComponentPad*%
%ADD23FreePoly1,0.000000*%
%TD*%
%TA.AperFunction,ViaPad*%
%ADD24C,0.600000*%
%TD*%
%TA.AperFunction,Conductor*%
%ADD25C,0.500000*%
%TD*%
G04 APERTURE END LIST*
D10*
%TO.P,J4,1,Pin_1*%
%TO.N,3.3VDC*%
X119583200Y-124917200D03*
D11*
%TO.P,J4,2,Pin_2*%
%TO.N,GND*%
X122123200Y-124917200D03*
%TO.P,J4,3,Pin_3*%
%TO.N,CS*%
X124663200Y-124917200D03*
%TO.P,J4,4,Pin_4*%
%TO.N,RESET*%
X127203200Y-124917200D03*
%TO.P,J4,5,Pin_5*%
%TO.N,DC{slash}RS*%
X129743200Y-124917200D03*
%TO.P,J4,6,Pin_6*%
%TO.N,SDI*%
X132283200Y-124917200D03*
%TO.P,J4,7,Pin_7*%
%TO.N,SCK*%
X134823200Y-124917200D03*
%TO.P,J4,8,Pin_8*%
%TO.N,LED*%
X137363200Y-124917200D03*
%TO.P,J4,9,Pin_9*%
%TO.N,unconnected-(J4-Pin_9-Pad9)*%
X139903200Y-124917200D03*
%TO.P,J4,10,Pin_10*%
%TO.N,unconnected-(J4-Pin_10-Pad10)*%
X142443200Y-124917200D03*
%TO.P,J4,11,Pin_11*%
%TO.N,unconnected-(J4-Pin_11-Pad11)*%
X144983200Y-124917200D03*
%TO.P,J4,12,Pin_12*%
%TO.N,unconnected-(J4-Pin_12-Pad12)*%
X147523200Y-124917200D03*
%TO.P,J4,13,Pin_13*%
%TO.N,unconnected-(J4-Pin_13-Pad13)*%
X150063200Y-124917200D03*
%TO.P,J4,14,Pin_14*%
%TO.N,unconnected-(J4-Pin_14-Pad14)*%
X152603200Y-124917200D03*
%TD*%
D12*
%TO.P,R6,1*%
%TO.N,3.3VDC*%
X104444800Y-102061600D03*
%TO.P,R6,2*%
%TO.N,FIS_PIN_DATA_OUT*%
X104444800Y-96981600D03*
%TD*%
%TO.P,R10,1*%
%TO.N,3.3VDC*%
X156020000Y-101859200D03*
%TO.P,R10,2*%
%TO.N,FIS_PIN_DATA*%
X156020000Y-96779200D03*
%TD*%
%TO.P,R9,1*%
%TO.N,3.3VDC*%
X155816800Y-91084400D03*
%TO.P,R9,2*%
%TO.N,FIS_PIN_CLK *%
X155816800Y-86004400D03*
%TD*%
D13*
%TO.P,Q3,1,D*%
%TO.N,TX_DATA*%
X109067600Y-99724800D03*
D14*
%TO.P,Q3,2,G*%
%TO.N,3.3VDC*%
X110337600Y-99724800D03*
%TO.P,Q3,3,S*%
%TO.N,FIS_PIN_DATA_OUT*%
X111607600Y-99724800D03*
%TD*%
D12*
%TO.P,R13,1*%
%TO.N,VDD*%
X166789600Y-101605200D03*
%TO.P,R13,2*%
%TO.N,RX_DATA*%
X166789600Y-96525200D03*
%TD*%
D13*
%TO.P,Q1,1,D*%
%TO.N,TX_ENA*%
X109067600Y-77118800D03*
D14*
%TO.P,Q1,2,G*%
%TO.N,3.3VDC*%
X110337600Y-77118800D03*
%TO.P,Q1,3,S*%
%TO.N,FIS_PIN_ENA_OUT*%
X111607600Y-77118800D03*
%TD*%
D15*
%TO.P,U2,1,TXD*%
%TO.N,FIS_CAN_TXCAN*%
X131368800Y-118719600D03*
D16*
%TO.P,U2,2,VSS*%
%TO.N,GND*%
X133908800Y-118719600D03*
%TO.P,U2,3,VDD*%
%TO.N,VDD*%
X136448800Y-118719600D03*
%TO.P,U2,4,RXD*%
%TO.N,FIS_CAN_  RXCAN*%
X138988800Y-118719600D03*
%TO.P,U2,5,SPLIT*%
%TO.N,Net-(U2-SPLIT)*%
X138988800Y-111099600D03*
%TO.P,U2,6,CANL*%
%TO.N,Net-(J3-Pin_2)*%
X136448800Y-111099600D03*
%TO.P,U2,7,CANH*%
%TO.N,Net-(J3-Pin_1)*%
X133908800Y-111099600D03*
%TO.P,U2,8,STBY*%
%TO.N,GND*%
X131368800Y-111099600D03*
%TD*%
D12*
%TO.P,R12,1*%
%TO.N,VDD*%
X166840400Y-91084400D03*
%TO.P,R12,2*%
%TO.N,RX_CLK*%
X166840400Y-86004400D03*
%TD*%
%TO.P,R3,1*%
%TO.N,VDD*%
X116281200Y-79553600D03*
%TO.P,R3,2*%
%TO.N,TX_ENA*%
X116281200Y-74473600D03*
%TD*%
D17*
%TO.P,D1,1,K*%
%TO.N,Net-(D1-K)*%
X136855200Y-106730800D03*
D18*
%TO.P,D1,2,A*%
%TO.N,VDD*%
X134315200Y-106730800D03*
%TD*%
D12*
%TO.P,R5,1*%
%TO.N,VDD*%
X115858800Y-90794800D03*
%TO.P,R5,2*%
%TO.N,TX_CLK*%
X115858800Y-85714800D03*
%TD*%
%TO.P,R2,1*%
%TO.N,3.3VDC*%
X104648000Y-79553600D03*
%TO.P,R2,2*%
%TO.N,FIS_PIN_ENA_OUT*%
X104648000Y-74473600D03*
%TD*%
D10*
%TO.P,J1,1,Pin_1*%
%TO.N,TX_ENA*%
X110591600Y-64617600D03*
D11*
%TO.P,J1,2,Pin_2*%
%TO.N,TX_CLK*%
X113131600Y-64617600D03*
%TO.P,J1,3,Pin_3*%
%TO.N,TX_DATA*%
X115671600Y-64617600D03*
%TD*%
D12*
%TO.P,R1,1*%
%TO.N,Net-(J3-Pin_1)*%
X125334400Y-117623600D03*
%TO.P,R1,2*%
%TO.N,Net-(J3-Pin_2)*%
X125334400Y-112543600D03*
%TD*%
D19*
%TO.P,J3,1,Pin_1*%
%TO.N,Net-(J3-Pin_1)*%
X121767600Y-108559600D03*
D20*
%TO.P,J3,2,Pin_2*%
%TO.N,Net-(J3-Pin_2)*%
X119767600Y-108559600D03*
%TD*%
D13*
%TO.P,Q4,1,D*%
%TO.N,RX_ENA*%
X160388800Y-76814000D03*
D14*
%TO.P,Q4,2,G*%
%TO.N,3.3VDC*%
X161658800Y-76814000D03*
%TO.P,Q4,3,S*%
%TO.N,FIS_PIN_ENA*%
X162928800Y-76814000D03*
%TD*%
D12*
%TO.P,R11,1*%
%TO.N,VDD*%
X167196000Y-78842400D03*
%TO.P,R11,2*%
%TO.N,RX_ENA*%
X167196000Y-73762400D03*
%TD*%
D13*
%TO.P,Q5,1,D*%
%TO.N,RX_CLK*%
X159931600Y-89049200D03*
D14*
%TO.P,Q5,2,G*%
%TO.N,3.3VDC*%
X161201600Y-89049200D03*
%TO.P,Q5,3,S*%
%TO.N,FIS_PIN_CLK *%
X162471600Y-89049200D03*
%TD*%
D12*
%TO.P,R8,1*%
%TO.N,3.3VDC*%
X155969200Y-78994800D03*
%TO.P,R8,2*%
%TO.N,FIS_PIN_ENA*%
X155969200Y-73914800D03*
%TD*%
%TO.P,R14,1*%
%TO.N,Net-(D1-K)*%
X142493200Y-107086400D03*
%TO.P,R14,2*%
%TO.N,GND*%
X147573200Y-107086400D03*
%TD*%
D21*
%TO.P,A1,1,GPIO0*%
%TO.N,FIS_PIN_ENA*%
X126778600Y-52346400D03*
D16*
%TO.P,A1,2,GPIO1*%
%TO.N,FIS_PIN_CLK *%
X126778600Y-54886400D03*
D22*
%TO.P,A1,3,GND*%
%TO.N,GND*%
X126778600Y-57426400D03*
D16*
%TO.P,A1,4,GPIO2*%
%TO.N,FIS_PIN_DATA*%
X126778600Y-59966400D03*
%TO.P,A1,5,GPIO3*%
%TO.N,FIS_PIN_ENA_OUT*%
X126778600Y-62506400D03*
%TO.P,A1,6,GPIO4*%
%TO.N,FIS_PIN_CLK_OUT *%
X126778600Y-65046400D03*
%TO.P,A1,7,GPIO5*%
%TO.N,FIS_PIN_DATA_OUT*%
X126778600Y-67586400D03*
D22*
%TO.P,A1,8,GND*%
%TO.N,GND*%
X126778600Y-70126400D03*
D16*
%TO.P,A1,9,GPIO6*%
%TO.N,unconnected-(A1-GPIO6-Pad9)*%
X126778600Y-72666400D03*
%TO.P,A1,10,GPIO7*%
%TO.N,unconnected-(A1-GPIO7-Pad10)_1*%
X126778600Y-75206400D03*
%TO.P,A1,11,GPIO8*%
%TO.N,unconnected-(A1-GPIO8-Pad11)*%
X126778600Y-77746400D03*
%TO.P,A1,12,GPIO9*%
%TO.N,unconnected-(A1-GPIO9-Pad12)_1*%
X126778600Y-80286400D03*
D22*
%TO.P,A1,13,GND*%
%TO.N,GND*%
X126778600Y-82826400D03*
D16*
%TO.P,A1,14,GPIO10*%
%TO.N,unconnected-(A1-GPIO10-Pad14)*%
X126778600Y-85366400D03*
%TO.P,A1,15,GPIO11*%
%TO.N,FIS_CAN_TXCAN*%
X126778600Y-87906400D03*
%TO.P,A1,16,GPIO12*%
%TO.N,FIS_CAN_  RXCAN*%
X126778600Y-90446400D03*
%TO.P,A1,17,GPIO13*%
%TO.N,unconnected-(A1-GPIO13-Pad17)_1*%
X126778600Y-92986400D03*
D22*
%TO.P,A1,18,GND*%
%TO.N,GND*%
X126778600Y-95526400D03*
D16*
%TO.P,A1,19,GPIO14*%
%TO.N,unconnected-(A1-GPIO14-Pad19)*%
X126778600Y-98066400D03*
%TO.P,A1,20,GPIO15*%
%TO.N,unconnected-(A1-GPIO15-Pad20)*%
X126778600Y-100606400D03*
%TO.P,A1,21,GPIO16*%
%TO.N,CS*%
X144558600Y-100606400D03*
%TO.P,A1,22,GPIO17*%
%TO.N,RESET*%
X144558600Y-98066400D03*
D23*
%TO.P,A1,23,GND*%
%TO.N,GND*%
X144558600Y-95526400D03*
D16*
%TO.P,A1,24,GPIO18*%
%TO.N,DC{slash}RS*%
X144558600Y-92986400D03*
%TO.P,A1,25,GPIO19*%
%TO.N,SDI*%
X144558600Y-90446400D03*
%TO.P,A1,26,GPIO20*%
%TO.N,SCK*%
X144558600Y-87906400D03*
%TO.P,A1,27,GPIO21*%
%TO.N,LED*%
X144558600Y-85366400D03*
D23*
%TO.P,A1,28,GND*%
%TO.N,GND*%
X144558600Y-82826400D03*
D16*
%TO.P,A1,29,GPIO22*%
%TO.N,unconnected-(A1-GPIO22-Pad29)_1*%
X144558600Y-80286400D03*
%TO.P,A1,30,RUN*%
%TO.N,unconnected-(A1-RUN-Pad30)_1*%
X144558600Y-77746400D03*
%TO.P,A1,31,GPIO26_ADC0*%
%TO.N,unconnected-(A1-GPIO26_ADC0-Pad31)*%
X144558600Y-75206400D03*
%TO.P,A1,32,GPIO27_ADC1*%
%TO.N,unconnected-(A1-GPIO27_ADC1-Pad32)_1*%
X144558600Y-72666400D03*
D23*
%TO.P,A1,33,AGND*%
%TO.N,GND*%
X144558600Y-70126400D03*
D16*
%TO.P,A1,34,GPIO28_ADC2*%
%TO.N,unconnected-(A1-GPIO28_ADC2-Pad34)_1*%
X144558600Y-67586400D03*
%TO.P,A1,35,ADC_VREF*%
%TO.N,unconnected-(A1-ADC_VREF-Pad35)_1*%
X144558600Y-65046400D03*
%TO.P,A1,36,3V3*%
%TO.N,3.3VDC*%
X144558600Y-62506400D03*
%TO.P,A1,37,3V3_EN*%
%TO.N,unconnected-(A1-3V3_EN-Pad37)*%
X144558600Y-59966400D03*
D23*
%TO.P,A1,38,GND*%
%TO.N,GND*%
X144558600Y-57426400D03*
D16*
%TO.P,A1,39,VSYS*%
%TO.N,unconnected-(A1-VSYS-Pad39)*%
X144558600Y-54886400D03*
%TO.P,A1,40,VBUS*%
%TO.N,VDD*%
X144558600Y-52346400D03*
%TD*%
D13*
%TO.P,Q2,1,D*%
%TO.N,TX_CLK*%
X109016800Y-88904400D03*
D14*
%TO.P,Q2,2,G*%
%TO.N,3.3VDC*%
X110286800Y-88904400D03*
%TO.P,Q2,3,S*%
%TO.N,FIS_PIN_CLK_OUT *%
X111556800Y-88904400D03*
%TD*%
D13*
%TO.P,Q6,1,D*%
%TO.N,RX_DATA*%
X159830000Y-99572400D03*
D14*
%TO.P,Q6,2,G*%
%TO.N,3.3VDC*%
X161100000Y-99572400D03*
%TO.P,Q6,3,S*%
%TO.N,FIS_PIN_DATA*%
X162370000Y-99572400D03*
%TD*%
D12*
%TO.P,R4,1*%
%TO.N,3.3VDC*%
X104632000Y-90998000D03*
%TO.P,R4,2*%
%TO.N,FIS_PIN_CLK_OUT *%
X104632000Y-85918000D03*
%TD*%
D16*
%TO.P,C1,1*%
%TO.N,Net-(U2-SPLIT)*%
X145868800Y-116349600D03*
%TO.P,C1,2*%
%TO.N,GND*%
X145868800Y-113849600D03*
%TD*%
D12*
%TO.P,R7,1*%
%TO.N,VDD*%
X116078000Y-102315600D03*
%TO.P,R7,2*%
%TO.N,TX_DATA*%
X116078000Y-97235600D03*
%TD*%
D10*
%TO.P,J2,1,Pin_1*%
%TO.N,RX_ENA*%
X156768800Y-65074800D03*
D11*
%TO.P,J2,2,Pin_2*%
%TO.N,RX_CLK*%
X159308800Y-65074800D03*
%TO.P,J2,3,Pin_3*%
%TO.N,RX_DATA*%
X161848800Y-65074800D03*
%TD*%
D24*
%TO.N,GND*%
X148488400Y-85852000D03*
X152450800Y-87426800D03*
X110693200Y-72593200D03*
X112166400Y-67665600D03*
X111861600Y-81686400D03*
X162306000Y-72085200D03*
X160172400Y-69951600D03*
X160070800Y-93929200D03*
X136499600Y-114198400D03*
X127152400Y-115214400D03*
X142138400Y-102717600D03*
X148132800Y-120904000D03*
X142951200Y-117906800D03*
X138887200Y-114655600D03*
X142951200Y-110947200D03*
X157378400Y-93522800D03*
X162966400Y-82448400D03*
X112623600Y-93776800D03*
X122529600Y-82042000D03*
X115519200Y-82245200D03*
X115417600Y-71577200D03*
X152806400Y-81280000D03*
%TO.N,RX_CLK*%
X158103700Y-88587100D03*
%TO.N,RX_ENA*%
X162818300Y-69937000D03*
%TO.N,TX_DATA*%
X117904500Y-89375600D03*
%TO.N,FIS_PIN_DATA*%
X148607700Y-67528500D03*
%TO.N,FIS_CAN_TXCAN*%
X123880200Y-88600400D03*
%TO.N,RESET*%
X140403100Y-122830500D03*
%TO.N,DC{slash}RS*%
X143395500Y-96898800D03*
%TO.N,SCK*%
X149186600Y-90295700D03*
X149129300Y-122832100D03*
%TO.N,VDD*%
X163670300Y-52280900D03*
X117867100Y-94302900D03*
%TO.N,FIS_PIN_ENA_OUT*%
X111322700Y-69937000D03*
%TO.N,FIS_PIN_CLK *%
X131680100Y-84697000D03*
%TO.N,SDI*%
X137720600Y-120782400D03*
X145934100Y-119813200D03*
%TO.N,CS*%
X143245000Y-122830500D03*
%TO.N,FIS_CAN_  RXCAN*%
X128771900Y-117169000D03*
%TD*%
D25*
%TO.N,Net-(D1-K)*%
X142137600Y-106730800D02*
X142493200Y-107086400D01*
X136855200Y-106730800D02*
X142137600Y-106730800D01*
%TO.N,Net-(J3-Pin_1)*%
X131368800Y-108559600D02*
X121767600Y-108559600D01*
X133908800Y-111099600D02*
X131368800Y-108559600D01*
%TO.N,Net-(J3-Pin_2)*%
X123751600Y-112543600D02*
X125334400Y-112543600D01*
X119767600Y-108559600D02*
X123751600Y-112543600D01*
X135004800Y-112543600D02*
X125334400Y-112543600D01*
X136448800Y-111099600D02*
X135004800Y-112543600D01*
%TO.N,RX_CLK*%
X158444500Y-88587100D02*
X158906600Y-89049200D01*
X158103700Y-88587100D02*
X158444500Y-88587100D01*
X159931600Y-89049200D02*
X158906600Y-89049200D01*
%TO.N,RX_ENA*%
X159306100Y-66424800D02*
X162818300Y-69937000D01*
X156768800Y-66424800D02*
X159306100Y-66424800D01*
X166643700Y-73762400D02*
X167196000Y-73762400D01*
X162818300Y-69937000D02*
X166643700Y-73762400D01*
X156768800Y-65074800D02*
X156768800Y-66424800D01*
%TO.N,RX_DATA*%
X161627200Y-96525200D02*
X159830000Y-98322400D01*
X166789600Y-96525200D02*
X161627200Y-96525200D01*
X159830000Y-99572400D02*
X159830000Y-98322400D01*
%TO.N,TX_CLK*%
X110956400Y-85714800D02*
X109016800Y-87654400D01*
X115858800Y-85714800D02*
X110956400Y-85714800D01*
X109016800Y-88904400D02*
X109016800Y-87654400D01*
%TO.N,TX_ENA*%
X110462800Y-74473600D02*
X109067600Y-75868800D01*
X116281200Y-74473600D02*
X110462800Y-74473600D01*
X109067600Y-77118800D02*
X109067600Y-75868800D01*
%TO.N,TX_DATA*%
X118643800Y-94669800D02*
X116078000Y-97235600D01*
X118643800Y-90114900D02*
X118643800Y-94669800D01*
X117904500Y-89375600D02*
X118643800Y-90114900D01*
%TO.N,Net-(U2-SPLIT)*%
X144238800Y-116349600D02*
X145868800Y-116349600D01*
X138988800Y-111099600D02*
X144238800Y-116349600D01*
%TO.N,FIS_PIN_ENA*%
X162928800Y-76814000D02*
X162928800Y-75564000D01*
X161279600Y-73914800D02*
X155969200Y-73914800D01*
X162928800Y-75564000D02*
X161279600Y-73914800D01*
X138208600Y-63776400D02*
X126778600Y-52346400D01*
X145918700Y-63776400D02*
X138208600Y-63776400D01*
X155969200Y-73826900D02*
X145918700Y-63776400D01*
X155969200Y-73914800D02*
X155969200Y-73826900D01*
%TO.N,3.3VDC*%
X160063200Y-101859200D02*
X161100000Y-100822400D01*
X156020000Y-101859200D02*
X160063200Y-101859200D01*
X161100000Y-99572400D02*
X161100000Y-100822400D01*
X156602000Y-90299200D02*
X155816800Y-91084400D01*
X161201600Y-90299200D02*
X156602000Y-90299200D01*
X161201600Y-89049200D02*
X161201600Y-90299200D01*
X160728000Y-78994800D02*
X161658800Y-78064000D01*
X155969200Y-78994800D02*
X160728000Y-78994800D01*
X161658800Y-76814000D02*
X161658800Y-78064000D01*
X105475600Y-90154400D02*
X104632000Y-90998000D01*
X110286800Y-90154400D02*
X105475600Y-90154400D01*
X109250800Y-102061600D02*
X110337600Y-100974800D01*
X104444800Y-102061600D02*
X109250800Y-102061600D01*
X110337600Y-99724800D02*
X110337600Y-100974800D01*
X109152800Y-79553600D02*
X110337600Y-78368800D01*
X104648000Y-79553600D02*
X109152800Y-79553600D01*
X110337600Y-77118800D02*
X110337600Y-78368800D01*
X110286800Y-90104600D02*
X110286800Y-90154400D01*
X110286800Y-89954400D02*
X110286800Y-90104600D01*
X110286800Y-88904400D02*
X110286800Y-89954400D01*
X110339100Y-90156900D02*
X110286800Y-90104600D01*
X114068700Y-90156900D02*
X110339100Y-90156900D01*
X115458100Y-88767500D02*
X114068700Y-90156900D01*
X117449600Y-88767500D02*
X115458100Y-88767500D01*
X117593200Y-88623900D02*
X117449600Y-88767500D01*
X120049600Y-88623900D02*
X117593200Y-88623900D01*
X123142100Y-91716400D02*
X120049600Y-88623900D01*
X155184800Y-91716400D02*
X123142100Y-91716400D01*
X155816800Y-91084400D02*
X155184800Y-91716400D01*
%TO.N,FIS_PIN_DATA*%
X133133700Y-66321500D02*
X126778600Y-59966400D01*
X147400700Y-66321500D02*
X133133700Y-66321500D01*
X148607700Y-67528500D02*
X147400700Y-66321500D01*
%TO.N,FIS_PIN_CLK_OUT *%
X114328800Y-88904400D02*
X111556800Y-88904400D01*
X117024400Y-86208800D02*
X114328800Y-88904400D01*
X117024400Y-85247400D02*
X117024400Y-86208800D01*
X116337000Y-84560000D02*
X117024400Y-85247400D01*
X105990000Y-84560000D02*
X116337000Y-84560000D01*
X104632000Y-85918000D02*
X105990000Y-84560000D01*
%TO.N,FIS_CAN_TXCAN*%
X124574200Y-87906400D02*
X123880200Y-88600400D01*
X126778600Y-87906400D02*
X124574200Y-87906400D01*
%TO.N,RESET*%
X129289900Y-122830500D02*
X140403100Y-122830500D01*
X127203200Y-124917200D02*
X129289900Y-122830500D01*
%TO.N,DC{slash}RS*%
X145842400Y-94270200D02*
X144558600Y-92986400D01*
X145842400Y-96009100D02*
X145842400Y-94270200D01*
X145057700Y-96793800D02*
X145842400Y-96009100D01*
X143500500Y-96793800D02*
X145057700Y-96793800D01*
X143395500Y-96898800D02*
X143500500Y-96793800D01*
%TO.N,FIS_PIN_DATA_OUT*%
X105938000Y-98474800D02*
X104444800Y-96981600D01*
X111607600Y-98474800D02*
X105938000Y-98474800D01*
X111607600Y-99724800D02*
X111607600Y-98474800D01*
%TO.N,SCK*%
X146797300Y-87906400D02*
X149186600Y-90295700D01*
X144558600Y-87906400D02*
X146797300Y-87906400D01*
X148361600Y-123599800D02*
X149129300Y-122832100D01*
X136140600Y-123599800D02*
X148361600Y-123599800D01*
X134823200Y-124917200D02*
X136140600Y-123599800D01*
%TO.N,VDD*%
X163604800Y-52346400D02*
X163670300Y-52280900D01*
X144558600Y-52346400D02*
X163604800Y-52346400D01*
X117867100Y-92803100D02*
X117867100Y-94302900D01*
X115858800Y-90794800D02*
X117867100Y-92803100D01*
X129900000Y-102315600D02*
X134315200Y-106730800D01*
X116078000Y-102315600D02*
X129900000Y-102315600D01*
X164474000Y-103920800D02*
X166789600Y-101605200D01*
X137125200Y-103920800D02*
X164474000Y-103920800D01*
X134315200Y-106730800D02*
X137125200Y-103920800D01*
%TO.N,FIS_PIN_ENA_OUT*%
X106786100Y-74473600D02*
X104648000Y-74473600D01*
X111322700Y-69937000D02*
X106786100Y-74473600D01*
X119348000Y-69937000D02*
X111322700Y-69937000D01*
X126778600Y-62506400D02*
X119348000Y-69937000D01*
%TO.N,FIS_PIN_CLK *%
X162471600Y-89049200D02*
X162471600Y-87799200D01*
X157611600Y-87799200D02*
X156714200Y-86901800D01*
X162471600Y-87799200D02*
X157611600Y-87799200D01*
X156714200Y-86901800D02*
X155816800Y-86004400D01*
X132280700Y-84096400D02*
X131680100Y-84697000D01*
X148399100Y-84096400D02*
X132280700Y-84096400D01*
X149156900Y-84854200D02*
X148399100Y-84096400D01*
X155837600Y-84854200D02*
X149156900Y-84854200D01*
X155983900Y-85000500D02*
X155837600Y-84854200D01*
X155983900Y-86171500D02*
X155983900Y-85000500D01*
X156714200Y-86901800D02*
X155983900Y-86171500D01*
%TO.N,SDI*%
X144964900Y-120782400D02*
X145934100Y-119813200D01*
X137720600Y-120782400D02*
X144964900Y-120782400D01*
%TO.N,CS*%
X127506400Y-122074000D02*
X124663200Y-124917200D01*
X142488500Y-122074000D02*
X127506400Y-122074000D01*
X143245000Y-122830500D02*
X142488500Y-122074000D01*
%TO.N,FIS_CAN_  RXCAN*%
X137438200Y-117169000D02*
X138988800Y-118719600D01*
X128771900Y-117169000D02*
X137438200Y-117169000D01*
%TD*%
%TA.AperFunction,Conductor*%
%TO.N,GND*%
G36*
X131073609Y-109329785D02*
G01*
X131094251Y-109346419D01*
X132582326Y-110834493D01*
X132615811Y-110895816D01*
X132617118Y-110941571D01*
X132608300Y-110997247D01*
X132608300Y-111201951D01*
X132640322Y-111404134D01*
X132703582Y-111598826D01*
X132710706Y-111612806D01*
X132723602Y-111681475D01*
X132697325Y-111746215D01*
X132640219Y-111786472D01*
X132600221Y-111793100D01*
X126333025Y-111793100D01*
X126265986Y-111773415D01*
X126245344Y-111756781D01*
X126116475Y-111627912D01*
X126116473Y-111627910D01*
X125963599Y-111516840D01*
X125907123Y-111488064D01*
X125795236Y-111431054D01*
X125615518Y-111372659D01*
X125428886Y-111343100D01*
X125428881Y-111343100D01*
X125239919Y-111343100D01*
X125239914Y-111343100D01*
X125053281Y-111372659D01*
X124873563Y-111431054D01*
X124705200Y-111516840D01*
X124617979Y-111580210D01*
X124552327Y-111627910D01*
X124552325Y-111627912D01*
X124552324Y-111627912D01*
X124423456Y-111756781D01*
X124396528Y-111771484D01*
X124370710Y-111788077D01*
X124364509Y-111788968D01*
X124362133Y-111790266D01*
X124335775Y-111793100D01*
X124113830Y-111793100D01*
X124046791Y-111773415D01*
X124026149Y-111756781D01*
X122355141Y-110085773D01*
X122321656Y-110024450D01*
X122326640Y-109954758D01*
X122368512Y-109898825D01*
X122403812Y-109880389D01*
X122436934Y-109869414D01*
X122586256Y-109777312D01*
X122710312Y-109653256D01*
X122802414Y-109503934D01*
X122838479Y-109395094D01*
X122878252Y-109337651D01*
X122942767Y-109310828D01*
X122956185Y-109310100D01*
X131006570Y-109310100D01*
X131073609Y-109329785D01*
G37*
%TD.AperFunction*%
%TA.AperFunction,Conductor*%
G36*
X148103909Y-84866585D02*
G01*
X148124550Y-84883218D01*
X148678484Y-85437152D01*
X148725778Y-85468752D01*
X148801405Y-85519284D01*
X148937987Y-85575858D01*
X148937991Y-85575858D01*
X148937992Y-85575859D01*
X149082979Y-85604700D01*
X149082982Y-85604700D01*
X149082983Y-85604700D01*
X149230817Y-85604700D01*
X154519456Y-85604700D01*
X154586495Y-85624385D01*
X154632250Y-85677189D01*
X154642194Y-85746347D01*
X154641929Y-85748098D01*
X154616300Y-85909913D01*
X154616300Y-86098886D01*
X154645859Y-86285518D01*
X154704254Y-86465236D01*
X154775927Y-86605900D01*
X154790040Y-86633599D01*
X154901110Y-86786473D01*
X155034727Y-86920090D01*
X155187601Y-87031160D01*
X155267147Y-87071690D01*
X155355963Y-87116945D01*
X155355965Y-87116945D01*
X155355968Y-87116947D01*
X155449849Y-87147451D01*
X155535681Y-87175340D01*
X155722314Y-87204900D01*
X155904571Y-87204900D01*
X155934011Y-87213544D01*
X155963998Y-87220068D01*
X155969013Y-87223822D01*
X155971610Y-87224585D01*
X155992252Y-87241219D01*
X156126907Y-87375874D01*
X156126928Y-87375897D01*
X157028649Y-88277616D01*
X157133184Y-88382151D01*
X157248091Y-88458929D01*
X157292896Y-88512541D01*
X157303200Y-88562031D01*
X157303200Y-88665946D01*
X157333961Y-88820589D01*
X157333964Y-88820601D01*
X157394302Y-88966272D01*
X157394309Y-88966285D01*
X157481910Y-89097388D01*
X157481913Y-89097392D01*
X157593407Y-89208886D01*
X157593411Y-89208889D01*
X157724514Y-89296490D01*
X157724527Y-89296497D01*
X157757462Y-89310139D01*
X157811866Y-89353980D01*
X157833931Y-89420274D01*
X157816652Y-89487973D01*
X157765515Y-89535584D01*
X157710010Y-89548700D01*
X156528080Y-89548700D01*
X156435742Y-89567068D01*
X156404277Y-89573327D01*
X156388347Y-89576495D01*
X156383086Y-89577542D01*
X156383082Y-89577543D01*
X156246511Y-89634112D01*
X156246498Y-89634119D01*
X156123584Y-89716248D01*
X156123580Y-89716251D01*
X155992251Y-89847581D01*
X155930928Y-89881066D01*
X155904570Y-89883900D01*
X155722314Y-89883900D01*
X155535681Y-89913459D01*
X155355963Y-89971854D01*
X155187600Y-90057640D01*
X155100379Y-90121010D01*
X155034727Y-90168710D01*
X155034725Y-90168712D01*
X155034724Y-90168712D01*
X154901112Y-90302324D01*
X154901112Y-90302325D01*
X154901110Y-90302327D01*
X154870798Y-90344048D01*
X154790040Y-90455200D01*
X154704254Y-90623565D01*
X154645859Y-90803285D01*
X154636671Y-90861298D01*
X154606742Y-90924433D01*
X154547430Y-90961364D01*
X154514198Y-90965900D01*
X149933528Y-90965900D01*
X149866489Y-90946215D01*
X149820734Y-90893411D01*
X149810790Y-90824253D01*
X149830426Y-90773009D01*
X149895990Y-90674885D01*
X149895990Y-90674884D01*
X149895994Y-90674879D01*
X149956337Y-90529197D01*
X149987100Y-90374542D01*
X149987100Y-90216858D01*
X149987100Y-90216855D01*
X149987099Y-90216853D01*
X149968166Y-90121672D01*
X149956337Y-90062203D01*
X149935843Y-90012725D01*
X149895997Y-89916527D01*
X149895990Y-89916514D01*
X149808389Y-89785411D01*
X149808386Y-89785407D01*
X149696892Y-89673913D01*
X149696888Y-89673910D01*
X149565785Y-89586309D01*
X149565780Y-89586307D01*
X149565779Y-89586306D01*
X149542119Y-89576505D01*
X149501893Y-89549626D01*
X147275715Y-87323447D01*
X147275713Y-87323445D01*
X147226479Y-87290550D01*
X147193655Y-87268618D01*
X147152795Y-87241316D01*
X147152794Y-87241315D01*
X147152792Y-87241314D01*
X147152790Y-87241313D01*
X147016217Y-87184743D01*
X147016207Y-87184740D01*
X146871220Y-87155900D01*
X146871218Y-87155900D01*
X145684018Y-87155900D01*
X145616979Y-87136215D01*
X145583700Y-87104785D01*
X145550571Y-87059187D01*
X145550567Y-87059182D01*
X145405813Y-86914428D01*
X145240214Y-86794115D01*
X145225216Y-86786473D01*
X145147517Y-86746883D01*
X145096723Y-86698911D01*
X145079928Y-86631090D01*
X145102465Y-86564955D01*
X145147517Y-86525916D01*
X145240210Y-86478687D01*
X145310365Y-86427717D01*
X145405813Y-86358371D01*
X145405815Y-86358368D01*
X145405819Y-86358366D01*
X145550566Y-86213619D01*
X145550568Y-86213615D01*
X145550571Y-86213613D01*
X145619652Y-86118529D01*
X145670887Y-86048010D01*
X145763820Y-85865619D01*
X145827077Y-85670934D01*
X145859100Y-85468752D01*
X145859100Y-85264048D01*
X145827077Y-85061866D01*
X145809971Y-85009219D01*
X145807976Y-84939377D01*
X145844056Y-84879544D01*
X145906757Y-84848716D01*
X145927902Y-84846900D01*
X148036870Y-84846900D01*
X148103909Y-84866585D01*
G37*
%TD.AperFunction*%
%TA.AperFunction,Conductor*%
G36*
X125425770Y-51359021D02*
G01*
X125452837Y-51363369D01*
X125458815Y-51368724D01*
X125466514Y-51370985D01*
X125484461Y-51391697D01*
X125504880Y-51409988D01*
X125507013Y-51417724D01*
X125512269Y-51423789D01*
X125516170Y-51450919D01*
X125523458Y-51477342D01*
X125521617Y-51488803D01*
X125522213Y-51492947D01*
X125517862Y-51512181D01*
X125499377Y-51571506D01*
X125484513Y-51619207D01*
X125478100Y-51689786D01*
X125478100Y-53003013D01*
X125484513Y-53073592D01*
X125484513Y-53073594D01*
X125484514Y-53073596D01*
X125518984Y-53184216D01*
X125535122Y-53236006D01*
X125623130Y-53381588D01*
X125743411Y-53501869D01*
X125743413Y-53501870D01*
X125743415Y-53501872D01*
X125888994Y-53589878D01*
X125976166Y-53617041D01*
X126034312Y-53655778D01*
X126062286Y-53719803D01*
X126051205Y-53788788D01*
X126012160Y-53835744D01*
X125931382Y-53894432D01*
X125786628Y-54039186D01*
X125666315Y-54204786D01*
X125573381Y-54387176D01*
X125510122Y-54581865D01*
X125478100Y-54784048D01*
X125478100Y-54988751D01*
X125510122Y-55190934D01*
X125573381Y-55385623D01*
X125666315Y-55568013D01*
X125786628Y-55733613D01*
X125931386Y-55878371D01*
X126040482Y-55957632D01*
X126096990Y-55998687D01*
X126213207Y-56057903D01*
X126279376Y-56091618D01*
X126279378Y-56091618D01*
X126279381Y-56091620D01*
X126374408Y-56122496D01*
X126474065Y-56154877D01*
X126575157Y-56170888D01*
X126676248Y-56186900D01*
X126676249Y-56186900D01*
X126880951Y-56186900D01*
X126880952Y-56186900D01*
X127083134Y-56154877D01*
X127277819Y-56091620D01*
X127460210Y-55998687D01*
X127553190Y-55931132D01*
X127625813Y-55878371D01*
X127625815Y-55878368D01*
X127625819Y-55878366D01*
X127770566Y-55733619D01*
X127770568Y-55733615D01*
X127770571Y-55733613D01*
X127823332Y-55660990D01*
X127890887Y-55568010D01*
X127983820Y-55385619D01*
X128047077Y-55190934D01*
X128079100Y-54988752D01*
X128079100Y-54988745D01*
X128079379Y-54986984D01*
X128109308Y-54923850D01*
X128168619Y-54886918D01*
X128238482Y-54887916D01*
X128289533Y-54918701D01*
X137730186Y-64359354D01*
X137741603Y-64366982D01*
X137803870Y-64408586D01*
X137853105Y-64441484D01*
X137853106Y-64441484D01*
X137853107Y-64441485D01*
X137853109Y-64441486D01*
X137989682Y-64498056D01*
X137989687Y-64498058D01*
X137989691Y-64498058D01*
X137989692Y-64498059D01*
X138134679Y-64526900D01*
X138134682Y-64526900D01*
X138134683Y-64526900D01*
X138282517Y-64526900D01*
X143189298Y-64526900D01*
X143256337Y-64546585D01*
X143302092Y-64599389D01*
X143312036Y-64668547D01*
X143307229Y-64689219D01*
X143290122Y-64741865D01*
X143259717Y-64933839D01*
X143258100Y-64944048D01*
X143258100Y-65148752D01*
X143273988Y-65249063D01*
X143290123Y-65350935D01*
X143290123Y-65350938D01*
X143308886Y-65408682D01*
X143310881Y-65478523D01*
X143274801Y-65538356D01*
X143212100Y-65569184D01*
X143190955Y-65571000D01*
X133495929Y-65571000D01*
X133428890Y-65551315D01*
X133408248Y-65534681D01*
X128105073Y-60231506D01*
X128071588Y-60170183D01*
X128070281Y-60124428D01*
X128079100Y-60068752D01*
X128079100Y-59864048D01*
X128047077Y-59661866D01*
X127983820Y-59467181D01*
X127983818Y-59467178D01*
X127983818Y-59467176D01*
X127950103Y-59401007D01*
X127890887Y-59284790D01*
X127883156Y-59274149D01*
X127770571Y-59119186D01*
X127625813Y-58974428D01*
X127460213Y-58854115D01*
X127460212Y-58854114D01*
X127460210Y-58854113D01*
X127403253Y-58825091D01*
X127277823Y-58761181D01*
X127083134Y-58697922D01*
X126908595Y-58670278D01*
X126880952Y-58665900D01*
X126676248Y-58665900D01*
X126651929Y-58669751D01*
X126474065Y-58697922D01*
X126279376Y-58761181D01*
X126096986Y-58854115D01*
X125931386Y-58974428D01*
X125786628Y-59119186D01*
X125666315Y-59284786D01*
X125573381Y-59467176D01*
X125510122Y-59661865D01*
X125478100Y-59864048D01*
X125478100Y-60068751D01*
X125510122Y-60270934D01*
X125573381Y-60465623D01*
X125666315Y-60648013D01*
X125786628Y-60813613D01*
X125931386Y-60958371D01*
X126086349Y-61070956D01*
X126096990Y-61078687D01*
X126188440Y-61125283D01*
X126189680Y-61125915D01*
X126240476Y-61173890D01*
X126257271Y-61241711D01*
X126234734Y-61307846D01*
X126189680Y-61346885D01*
X126096986Y-61394115D01*
X125931386Y-61514428D01*
X125786628Y-61659186D01*
X125666315Y-61824786D01*
X125573381Y-62007176D01*
X125510122Y-62201865D01*
X125478100Y-62404048D01*
X125478100Y-62608751D01*
X125486918Y-62664426D01*
X125477963Y-62733720D01*
X125452126Y-62771505D01*
X119073451Y-69150181D01*
X119012128Y-69183666D01*
X118985770Y-69186500D01*
X111627304Y-69186500D01*
X111579855Y-69177062D01*
X111556197Y-69167263D01*
X111556193Y-69167262D01*
X111556188Y-69167260D01*
X111401545Y-69136500D01*
X111401542Y-69136500D01*
X111243858Y-69136500D01*
X111243855Y-69136500D01*
X111089210Y-69167261D01*
X111089198Y-69167264D01*
X110943527Y-69227602D01*
X110943514Y-69227609D01*
X110812411Y-69315210D01*
X110812407Y-69315213D01*
X110700913Y-69426707D01*
X110700907Y-69426715D01*
X110613307Y-69557818D01*
X110613305Y-69557822D01*
X110603505Y-69581480D01*
X110576627Y-69621704D01*
X106511551Y-73686781D01*
X106450228Y-73720266D01*
X106423870Y-73723100D01*
X105646625Y-73723100D01*
X105579586Y-73703415D01*
X105558944Y-73686781D01*
X105430075Y-73557912D01*
X105430073Y-73557910D01*
X105277199Y-73446840D01*
X105108836Y-73361054D01*
X104929118Y-73302659D01*
X104742486Y-73273100D01*
X104742481Y-73273100D01*
X104553519Y-73273100D01*
X104553514Y-73273100D01*
X104366881Y-73302659D01*
X104187163Y-73361054D01*
X104018800Y-73446840D01*
X103931579Y-73510210D01*
X103865927Y-73557910D01*
X103865925Y-73557912D01*
X103865924Y-73557912D01*
X103732312Y-73691524D01*
X103732312Y-73691525D01*
X103732310Y-73691527D01*
X103723673Y-73703415D01*
X103621240Y-73844400D01*
X103535454Y-74012763D01*
X103477059Y-74192481D01*
X103447500Y-74379113D01*
X103447500Y-74568086D01*
X103477059Y-74754718D01*
X103535454Y-74934436D01*
X103612548Y-75085740D01*
X103621240Y-75102799D01*
X103732310Y-75255673D01*
X103865927Y-75389290D01*
X104018801Y-75500360D01*
X104094179Y-75538767D01*
X104187163Y-75586145D01*
X104187165Y-75586145D01*
X104187168Y-75586147D01*
X104238750Y-75602907D01*
X104366881Y-75644540D01*
X104553514Y-75674100D01*
X104553519Y-75674100D01*
X104742486Y-75674100D01*
X104929118Y-75644540D01*
X104954401Y-75636325D01*
X105108832Y-75586147D01*
X105277199Y-75500360D01*
X105430073Y-75389290D01*
X105558944Y-75260419D01*
X105620267Y-75226934D01*
X105646625Y-75224100D01*
X106860020Y-75224100D01*
X106957562Y-75204696D01*
X107005013Y-75195258D01*
X107141595Y-75138684D01*
X107195301Y-75102799D01*
X107195301Y-75102798D01*
X107195303Y-75102798D01*
X107229908Y-75079675D01*
X107264516Y-75056552D01*
X109433028Y-72888040D01*
X109757020Y-72564048D01*
X125478100Y-72564048D01*
X125478100Y-72768751D01*
X125510122Y-72970934D01*
X125573381Y-73165623D01*
X125637291Y-73291053D01*
X125643205Y-73302659D01*
X125666315Y-73348013D01*
X125786628Y-73513613D01*
X125931386Y-73658371D01*
X126082682Y-73768292D01*
X126096990Y-73778687D01*
X126178697Y-73820319D01*
X126189680Y-73825915D01*
X126240476Y-73873890D01*
X126257271Y-73941711D01*
X126234734Y-74007846D01*
X126189680Y-74046885D01*
X126096986Y-74094115D01*
X125931386Y-74214428D01*
X125786628Y-74359186D01*
X125666315Y-74524786D01*
X125573381Y-74707176D01*
X125510122Y-74901865D01*
X125478100Y-75104048D01*
X125478100Y-75308751D01*
X125510122Y-75510934D01*
X125573381Y-75705623D01*
X125637291Y-75831053D01*
X125656270Y-75868300D01*
X125666315Y-75888013D01*
X125786628Y-76053613D01*
X125931386Y-76198371D01*
X126057340Y-76289880D01*
X126096990Y-76318687D01*
X126188440Y-76365283D01*
X126189680Y-76365915D01*
X126240476Y-76413890D01*
X126257271Y-76481711D01*
X126234734Y-76547846D01*
X126189680Y-76586885D01*
X126096986Y-76634115D01*
X125931386Y-76754428D01*
X125786628Y-76899186D01*
X125666315Y-77064786D01*
X125573381Y-77247176D01*
X125510122Y-77441865D01*
X125478100Y-77644048D01*
X125478100Y-77848751D01*
X125510122Y-78050934D01*
X125573381Y-78245623D01*
X125616319Y-78329892D01*
X125661974Y-78419495D01*
X125666315Y-78428013D01*
X125786628Y-78593613D01*
X125931386Y-78738371D01*
X126086349Y-78850956D01*
X126096990Y-78858687D01*
X126178697Y-78900319D01*
X126189680Y-78905915D01*
X126240476Y-78953890D01*
X126257271Y-79021711D01*
X126234734Y-79087846D01*
X126189680Y-79126885D01*
X126096986Y-79174115D01*
X125931386Y-79294428D01*
X125786628Y-79439186D01*
X125666315Y-79604786D01*
X125573381Y-79787176D01*
X125510122Y-79981865D01*
X125478100Y-80184048D01*
X125478100Y-80388751D01*
X125510122Y-80590934D01*
X125573381Y-80785623D01*
X125666315Y-80968013D01*
X125786628Y-81133613D01*
X125931386Y-81278371D01*
X126086349Y-81390956D01*
X126096990Y-81398687D01*
X126213207Y-81457903D01*
X126279376Y-81491618D01*
X126279378Y-81491618D01*
X126279381Y-81491620D01*
X126383737Y-81525527D01*
X126474065Y-81554877D01*
X126575157Y-81570888D01*
X126676248Y-81586900D01*
X126676249Y-81586900D01*
X126880951Y-81586900D01*
X126880952Y-81586900D01*
X127083134Y-81554877D01*
X127277819Y-81491620D01*
X127460210Y-81398687D01*
X127553190Y-81331132D01*
X127625813Y-81278371D01*
X127625815Y-81278368D01*
X127625819Y-81278366D01*
X127770566Y-81133619D01*
X127770568Y-81133615D01*
X127770571Y-81133613D01*
X127823332Y-81060990D01*
X127890887Y-80968010D01*
X127983820Y-80785619D01*
X128047077Y-80590934D01*
X128079100Y-80388752D01*
X128079100Y-80184048D01*
X128047077Y-79981866D01*
X128038330Y-79954947D01*
X127983818Y-79787176D01*
X127947784Y-79716456D01*
X127890887Y-79604790D01*
X127883156Y-79594149D01*
X127770571Y-79439186D01*
X127625813Y-79294428D01*
X127460214Y-79174115D01*
X127453606Y-79170748D01*
X127367517Y-79126883D01*
X127316723Y-79078911D01*
X127299928Y-79011090D01*
X127322465Y-78944955D01*
X127367517Y-78905916D01*
X127460210Y-78858687D01*
X127536720Y-78803100D01*
X127625813Y-78738371D01*
X127625815Y-78738368D01*
X127625819Y-78738366D01*
X127770566Y-78593619D01*
X127770568Y-78593615D01*
X127770571Y-78593613D01*
X127830631Y-78510946D01*
X127890887Y-78428010D01*
X127983820Y-78245619D01*
X128047077Y-78050934D01*
X128079100Y-77848752D01*
X128079100Y-77644048D01*
X128047077Y-77441866D01*
X127983820Y-77247181D01*
X127983818Y-77247178D01*
X127983818Y-77247176D01*
X127929212Y-77140007D01*
X127890887Y-77064790D01*
X127883156Y-77054149D01*
X127770571Y-76899186D01*
X127625813Y-76754428D01*
X127460214Y-76634115D01*
X127382818Y-76594680D01*
X127367517Y-76586883D01*
X127316723Y-76538911D01*
X127299928Y-76471090D01*
X127322465Y-76404955D01*
X127367517Y-76365916D01*
X127460210Y-76318687D01*
X127499860Y-76289880D01*
X127625813Y-76198371D01*
X127625815Y-76198368D01*
X127625819Y-76198366D01*
X127770566Y-76053619D01*
X127770568Y-76053615D01*
X127770571Y-76053613D01*
X127841114Y-75956517D01*
X127890887Y-75888010D01*
X127983820Y-75705619D01*
X128047077Y-75510934D01*
X128079100Y-75308752D01*
X128079100Y-75104048D01*
X128047077Y-74901866D01*
X128038330Y-74874947D01*
X127983818Y-74707176D01*
X127912947Y-74568086D01*
X127890887Y-74524790D01*
X127883156Y-74514149D01*
X127770571Y-74359186D01*
X127625813Y-74214428D01*
X127460214Y-74094115D01*
X127453606Y-74090748D01*
X127367517Y-74046883D01*
X127316723Y-73998911D01*
X127299928Y-73931090D01*
X127322465Y-73864955D01*
X127367517Y-73825916D01*
X127460210Y-73778687D01*
X127536720Y-73723100D01*
X127625813Y-73658371D01*
X127625815Y-73658368D01*
X127625819Y-73658366D01*
X127770566Y-73513619D01*
X127770568Y-73513615D01*
X127770571Y-73513613D01*
X127823332Y-73440990D01*
X127890887Y-73348010D01*
X127983820Y-73165619D01*
X128047077Y-72970934D01*
X128079100Y-72768752D01*
X128079100Y-72564048D01*
X143258100Y-72564048D01*
X143258100Y-72768751D01*
X143290122Y-72970934D01*
X143353381Y-73165623D01*
X143417291Y-73291053D01*
X143423205Y-73302659D01*
X143446315Y-73348013D01*
X143566628Y-73513613D01*
X143711386Y-73658371D01*
X143862682Y-73768292D01*
X143876990Y-73778687D01*
X143958697Y-73820319D01*
X143969680Y-73825915D01*
X144020476Y-73873890D01*
X144037271Y-73941711D01*
X144014734Y-74007846D01*
X143969680Y-74046885D01*
X143876986Y-74094115D01*
X143711386Y-74214428D01*
X143566628Y-74359186D01*
X143446315Y-74524786D01*
X143353381Y-74707176D01*
X143290122Y-74901865D01*
X143258100Y-75104048D01*
X143258100Y-75308751D01*
X143290122Y-75510934D01*
X143353381Y-75705623D01*
X143417291Y-75831053D01*
X143436270Y-75868300D01*
X143446315Y-75888013D01*
X143566628Y-76053613D01*
X143711386Y-76198371D01*
X143837340Y-76289880D01*
X143876990Y-76318687D01*
X143968440Y-76365283D01*
X143969680Y-76365915D01*
X144020476Y-76413890D01*
X144037271Y-76481711D01*
X144014734Y-76547846D01*
X143969680Y-76586885D01*
X143876986Y-76634115D01*
X143711386Y-76754428D01*
X143566628Y-76899186D01*
X143446315Y-77064786D01*
X143353381Y-77247176D01*
X143290122Y-77441865D01*
X143258100Y-77644048D01*
X143258100Y-77848751D01*
X143290122Y-78050934D01*
X143353381Y-78245623D01*
X143396319Y-78329892D01*
X143441974Y-78419495D01*
X143446315Y-78428013D01*
X143566628Y-78593613D01*
X143711386Y-78738371D01*
X143866349Y-78850956D01*
X143876990Y-78858687D01*
X143958697Y-78900319D01*
X143969680Y-78905915D01*
X144020476Y-78953890D01*
X144037271Y-79021711D01*
X144014734Y-79087846D01*
X143969680Y-79126885D01*
X143876986Y-79174115D01*
X143711386Y-79294428D01*
X143566628Y-79439186D01*
X143446315Y-79604786D01*
X143353381Y-79787176D01*
X143290122Y-79981865D01*
X143258100Y-80184048D01*
X143258100Y-80388751D01*
X143290122Y-80590934D01*
X143353381Y-80785623D01*
X143446315Y-80968013D01*
X143566628Y-81133613D01*
X143711386Y-81278371D01*
X143866349Y-81390956D01*
X143876990Y-81398687D01*
X143993207Y-81457903D01*
X144059376Y-81491618D01*
X144059378Y-81491618D01*
X144059381Y-81491620D01*
X144163737Y-81525527D01*
X144254065Y-81554877D01*
X144355157Y-81570888D01*
X144456248Y-81586900D01*
X144456249Y-81586900D01*
X144660951Y-81586900D01*
X144660952Y-81586900D01*
X144863134Y-81554877D01*
X145057819Y-81491620D01*
X145240210Y-81398687D01*
X145333190Y-81331132D01*
X145405813Y-81278371D01*
X145405815Y-81278368D01*
X145405819Y-81278366D01*
X145550566Y-81133619D01*
X145550568Y-81133615D01*
X145550571Y-81133613D01*
X145603332Y-81060990D01*
X145670887Y-80968010D01*
X145763820Y-80785619D01*
X145827077Y-80590934D01*
X145859100Y-80388752D01*
X145859100Y-80184048D01*
X145827077Y-79981866D01*
X145818330Y-79954947D01*
X145763818Y-79787176D01*
X145727784Y-79716456D01*
X145670887Y-79604790D01*
X145663156Y-79594149D01*
X145550571Y-79439186D01*
X145405813Y-79294428D01*
X145240214Y-79174115D01*
X145233606Y-79170748D01*
X145147517Y-79126883D01*
X145096723Y-79078911D01*
X145079928Y-79011090D01*
X145102465Y-78944955D01*
X145147517Y-78905916D01*
X145240210Y-78858687D01*
X145316720Y-78803100D01*
X145405813Y-78738371D01*
X145405815Y-78738368D01*
X145405819Y-78738366D01*
X145550566Y-78593619D01*
X145550568Y-78593615D01*
X145550571Y-78593613D01*
X145610631Y-78510946D01*
X145670887Y-78428010D01*
X145763820Y-78245619D01*
X145827077Y-78050934D01*
X145859100Y-77848752D01*
X145859100Y-77644048D01*
X145827077Y-77441866D01*
X145763820Y-77247181D01*
X145763818Y-77247178D01*
X145763818Y-77247176D01*
X145709212Y-77140007D01*
X145670887Y-77064790D01*
X145663156Y-77054149D01*
X145550571Y-76899186D01*
X145405813Y-76754428D01*
X145240214Y-76634115D01*
X145162818Y-76594680D01*
X145147517Y-76586883D01*
X145096723Y-76538911D01*
X145079928Y-76471090D01*
X145102465Y-76404955D01*
X145147517Y-76365916D01*
X145240210Y-76318687D01*
X145279860Y-76289880D01*
X145405813Y-76198371D01*
X145405815Y-76198368D01*
X145405819Y-76198366D01*
X145550566Y-76053619D01*
X145550568Y-76053615D01*
X145550571Y-76053613D01*
X145621114Y-75956517D01*
X145670887Y-75888010D01*
X145763820Y-75705619D01*
X145827077Y-75510934D01*
X145859100Y-75308752D01*
X145859100Y-75104048D01*
X145827077Y-74901866D01*
X145818330Y-74874947D01*
X145763818Y-74707176D01*
X145692947Y-74568086D01*
X145670887Y-74524790D01*
X145663156Y-74514149D01*
X145550571Y-74359186D01*
X145405813Y-74214428D01*
X145240214Y-74094115D01*
X145233606Y-74090748D01*
X145147517Y-74046883D01*
X145096723Y-73998911D01*
X145079928Y-73931090D01*
X145102465Y-73864955D01*
X145147517Y-73825916D01*
X145240210Y-73778687D01*
X145316720Y-73723100D01*
X145405813Y-73658371D01*
X145405815Y-73658368D01*
X145405819Y-73658366D01*
X145550566Y-73513619D01*
X145550568Y-73513615D01*
X145550571Y-73513613D01*
X145603332Y-73440990D01*
X145670887Y-73348010D01*
X145763820Y-73165619D01*
X145827077Y-72970934D01*
X145859100Y-72768752D01*
X145859100Y-72564048D01*
X145827077Y-72361866D01*
X145763820Y-72167181D01*
X145763818Y-72167178D01*
X145763818Y-72167176D01*
X145730103Y-72101007D01*
X145670887Y-71984790D01*
X145663156Y-71974149D01*
X145550571Y-71819186D01*
X145405813Y-71674428D01*
X145240213Y-71554115D01*
X145240212Y-71554114D01*
X145240210Y-71554113D01*
X145183253Y-71525091D01*
X145057823Y-71461181D01*
X144863134Y-71397922D01*
X144688595Y-71370278D01*
X144660952Y-71365900D01*
X144456248Y-71365900D01*
X144431929Y-71369751D01*
X144254065Y-71397922D01*
X144059376Y-71461181D01*
X143876986Y-71554115D01*
X143711386Y-71674428D01*
X143566628Y-71819186D01*
X143446315Y-71984786D01*
X143353381Y-72167176D01*
X143290122Y-72361865D01*
X143258100Y-72564048D01*
X128079100Y-72564048D01*
X128047077Y-72361866D01*
X127983820Y-72167181D01*
X127983818Y-72167178D01*
X127983818Y-72167176D01*
X127950103Y-72101007D01*
X127890887Y-71984790D01*
X127883156Y-71974149D01*
X127770571Y-71819186D01*
X127625813Y-71674428D01*
X127460213Y-71554115D01*
X127460212Y-71554114D01*
X127460210Y-71554113D01*
X127403253Y-71525091D01*
X127277823Y-71461181D01*
X127083134Y-71397922D01*
X126908595Y-71370278D01*
X126880952Y-71365900D01*
X126676248Y-71365900D01*
X126651929Y-71369751D01*
X126474065Y-71397922D01*
X126279376Y-71461181D01*
X126096986Y-71554115D01*
X125931386Y-71674428D01*
X125786628Y-71819186D01*
X125666315Y-71984786D01*
X125573381Y-72167176D01*
X125510122Y-72361865D01*
X125478100Y-72564048D01*
X109757020Y-72564048D01*
X109849573Y-72471495D01*
X111597248Y-70723819D01*
X111658571Y-70690334D01*
X111684929Y-70687500D01*
X119421920Y-70687500D01*
X119531863Y-70665630D01*
X119566913Y-70658658D01*
X119703495Y-70602084D01*
X119768291Y-70558789D01*
X119768294Y-70558786D01*
X119768296Y-70558786D01*
X119797547Y-70539240D01*
X119826416Y-70519952D01*
X125267667Y-65078698D01*
X125328988Y-65045215D01*
X125398680Y-65050199D01*
X125454613Y-65092071D01*
X125477819Y-65146982D01*
X125510123Y-65350935D01*
X125573381Y-65545623D01*
X125637291Y-65671053D01*
X125663790Y-65723059D01*
X125666315Y-65728013D01*
X125786628Y-65893613D01*
X125931386Y-66038371D01*
X126022963Y-66104904D01*
X126096990Y-66158687D01*
X126181549Y-66201772D01*
X126189680Y-66205915D01*
X126240476Y-66253890D01*
X126257271Y-66321711D01*
X126234734Y-66387846D01*
X126189680Y-66426885D01*
X126096986Y-66474115D01*
X125931386Y-66594428D01*
X125786628Y-66739186D01*
X125666315Y-66904786D01*
X125573381Y-67087176D01*
X125510122Y-67281865D01*
X125478100Y-67484048D01*
X125478100Y-67688751D01*
X125510122Y-67890934D01*
X125573381Y-68085623D01*
X125666315Y-68268013D01*
X125786628Y-68433613D01*
X125931386Y-68578371D01*
X126086349Y-68690956D01*
X126096990Y-68698687D01*
X126213207Y-68757903D01*
X126279376Y-68791618D01*
X126279378Y-68791618D01*
X126279381Y-68791620D01*
X126383737Y-68825527D01*
X126474065Y-68854877D01*
X126575157Y-68870888D01*
X126676248Y-68886900D01*
X126676249Y-68886900D01*
X126880951Y-68886900D01*
X126880952Y-68886900D01*
X127083134Y-68854877D01*
X127277819Y-68791620D01*
X127460210Y-68698687D01*
X127553190Y-68631132D01*
X127625813Y-68578371D01*
X127625815Y-68578368D01*
X127625819Y-68578366D01*
X127770566Y-68433619D01*
X127770568Y-68433615D01*
X127770571Y-68433613D01*
X127823332Y-68360990D01*
X127890887Y-68268010D01*
X127983820Y-68085619D01*
X128047077Y-67890934D01*
X128079100Y-67688752D01*
X128079100Y-67484048D01*
X128047077Y-67281866D01*
X127983820Y-67087181D01*
X127983818Y-67087178D01*
X127983818Y-67087176D01*
X127932563Y-66986584D01*
X127890887Y-66904790D01*
X127883156Y-66894149D01*
X127770571Y-66739186D01*
X127625813Y-66594428D01*
X127460214Y-66474115D01*
X127403037Y-66444982D01*
X127367517Y-66426883D01*
X127316723Y-66378911D01*
X127299928Y-66311090D01*
X127322465Y-66244955D01*
X127367517Y-66205916D01*
X127460210Y-66158687D01*
X127557871Y-66087733D01*
X127625813Y-66038371D01*
X127625815Y-66038368D01*
X127625819Y-66038366D01*
X127770566Y-65893619D01*
X127770568Y-65893615D01*
X127770571Y-65893613D01*
X127823332Y-65820990D01*
X127890887Y-65728010D01*
X127983820Y-65545619D01*
X128047077Y-65350934D01*
X128079100Y-65148752D01*
X128079100Y-64944048D01*
X128047077Y-64741866D01*
X128041235Y-64723887D01*
X128000783Y-64599389D01*
X127983820Y-64547181D01*
X127983818Y-64547178D01*
X127983818Y-64547176D01*
X127930908Y-64443336D01*
X127890887Y-64364790D01*
X127844801Y-64301357D01*
X127770571Y-64199186D01*
X127625813Y-64054428D01*
X127460214Y-63934115D01*
X127429658Y-63918546D01*
X127367517Y-63886883D01*
X127316723Y-63838911D01*
X127299928Y-63771090D01*
X127322465Y-63704955D01*
X127367517Y-63665916D01*
X127460210Y-63618687D01*
X127503151Y-63587489D01*
X127625813Y-63498371D01*
X127625815Y-63498368D01*
X127625819Y-63498366D01*
X127770566Y-63353619D01*
X127770568Y-63353615D01*
X127770571Y-63353613D01*
X127886935Y-63193449D01*
X127890887Y-63188010D01*
X127983820Y-63005619D01*
X128047077Y-62810934D01*
X128079100Y-62608752D01*
X128079100Y-62608745D01*
X128079379Y-62606984D01*
X128109308Y-62543850D01*
X128168619Y-62506918D01*
X128238482Y-62507916D01*
X128289533Y-62538701D01*
X130440052Y-64689219D01*
X132550749Y-66799916D01*
X132655284Y-66904451D01*
X132655287Y-66904453D01*
X132655288Y-66904454D01*
X132778203Y-66986583D01*
X132778204Y-66986583D01*
X132778205Y-66986584D01*
X132829307Y-67007751D01*
X132914788Y-67043159D01*
X133030941Y-67066263D01*
X133054187Y-67070887D01*
X133059781Y-67072000D01*
X133059782Y-67072000D01*
X133059783Y-67072000D01*
X133207618Y-67072000D01*
X143187641Y-67072000D01*
X143254680Y-67091685D01*
X143300435Y-67144489D01*
X143310379Y-67213647D01*
X143305572Y-67234319D01*
X143290122Y-67281865D01*
X143258100Y-67484048D01*
X143258100Y-67688751D01*
X143290122Y-67890934D01*
X143353381Y-68085623D01*
X143446315Y-68268013D01*
X143566628Y-68433613D01*
X143711386Y-68578371D01*
X143866349Y-68690956D01*
X143876990Y-68698687D01*
X143993207Y-68757903D01*
X144059376Y-68791618D01*
X144059378Y-68791618D01*
X144059381Y-68791620D01*
X144163737Y-68825527D01*
X144254065Y-68854877D01*
X144355157Y-68870888D01*
X144456248Y-68886900D01*
X144456249Y-68886900D01*
X144660951Y-68886900D01*
X144660952Y-68886900D01*
X144863134Y-68854877D01*
X145057819Y-68791620D01*
X145240210Y-68698687D01*
X145333190Y-68631132D01*
X145405813Y-68578371D01*
X145405815Y-68578368D01*
X145405819Y-68578366D01*
X145550566Y-68433619D01*
X145550568Y-68433615D01*
X145550571Y-68433613D01*
X145603332Y-68360990D01*
X145670887Y-68268010D01*
X145763820Y-68085619D01*
X145827077Y-67890934D01*
X145859100Y-67688752D01*
X145859100Y-67484048D01*
X145827077Y-67281866D01*
X145811627Y-67234318D01*
X145809633Y-67164478D01*
X145845713Y-67104645D01*
X145908413Y-67073816D01*
X145929559Y-67072000D01*
X147038470Y-67072000D01*
X147105509Y-67091685D01*
X147126151Y-67108319D01*
X147861627Y-67843795D01*
X147888507Y-67884023D01*
X147898304Y-67907675D01*
X147898309Y-67907685D01*
X147985910Y-68038788D01*
X147985913Y-68038792D01*
X148097407Y-68150286D01*
X148097411Y-68150289D01*
X148228514Y-68237890D01*
X148228527Y-68237897D01*
X148301235Y-68268013D01*
X148374203Y-68298237D01*
X148528853Y-68328999D01*
X148528856Y-68329000D01*
X148528858Y-68329000D01*
X148686544Y-68329000D01*
X148686545Y-68328999D01*
X148841197Y-68298237D01*
X148986879Y-68237894D01*
X149101255Y-68161469D01*
X149167930Y-68140593D01*
X149235310Y-68159077D01*
X149257825Y-68176892D01*
X154742147Y-73661214D01*
X154775632Y-73722537D01*
X154776939Y-73768292D01*
X154768700Y-73820313D01*
X154768700Y-74009286D01*
X154798259Y-74195918D01*
X154856654Y-74375636D01*
X154942440Y-74543999D01*
X155053510Y-74696873D01*
X155187127Y-74830490D01*
X155340001Y-74941560D01*
X155419547Y-74982090D01*
X155508363Y-75027345D01*
X155508365Y-75027345D01*
X155508368Y-75027347D01*
X155598236Y-75056547D01*
X155688081Y-75085740D01*
X155874714Y-75115300D01*
X155874719Y-75115300D01*
X156063686Y-75115300D01*
X156250318Y-75085740D01*
X156250798Y-75085584D01*
X156430032Y-75027347D01*
X156598399Y-74941560D01*
X156751273Y-74830490D01*
X156880144Y-74701619D01*
X156941467Y-74668134D01*
X156967825Y-74665300D01*
X160917370Y-74665300D01*
X160984409Y-74684985D01*
X161005051Y-74701619D01*
X161655251Y-75351819D01*
X161688736Y-75413142D01*
X161683752Y-75482834D01*
X161641880Y-75538767D01*
X161576416Y-75563184D01*
X161567570Y-75563500D01*
X161557792Y-75563500D01*
X161359680Y-75602907D01*
X161359668Y-75602910D01*
X161278998Y-75636325D01*
X161209529Y-75643794D01*
X161164142Y-75624036D01*
X161163914Y-75624454D01*
X161159247Y-75621905D01*
X161157232Y-75621028D01*
X161156131Y-75620204D01*
X161156130Y-75620203D01*
X161156128Y-75620202D01*
X161021282Y-75569908D01*
X161021283Y-75569908D01*
X160961683Y-75563501D01*
X160961681Y-75563500D01*
X160961673Y-75563500D01*
X160961664Y-75563500D01*
X159815929Y-75563500D01*
X159815923Y-75563501D01*
X159756316Y-75569908D01*
X159621471Y-75620202D01*
X159621464Y-75620206D01*
X159506255Y-75706452D01*
X159506252Y-75706455D01*
X159420006Y-75821664D01*
X159420002Y-75821671D01*
X159369708Y-75956517D01*
X159363301Y-76016116D01*
X159363300Y-76016135D01*
X159363300Y-77611870D01*
X159363301Y-77611876D01*
X159369708Y-77671483D01*
X159420002Y-77806328D01*
X159420006Y-77806335D01*
X159506252Y-77921544D01*
X159506255Y-77921547D01*
X159621466Y-78007795D01*
X159628193Y-78011468D01*
X159677598Y-78060873D01*
X159692450Y-78129146D01*
X159668033Y-78194611D01*
X159612099Y-78236482D01*
X159568766Y-78244300D01*
X156967825Y-78244300D01*
X156900786Y-78224615D01*
X156880144Y-78207981D01*
X156751275Y-78079112D01*
X156751273Y-78079110D01*
X156598399Y-77968040D01*
X156430036Y-77882254D01*
X156250318Y-77823859D01*
X156063686Y-77794300D01*
X156063681Y-77794300D01*
X155874719Y-77794300D01*
X155874714Y-77794300D01*
X155688081Y-77823859D01*
X155508363Y-77882254D01*
X155340000Y-77968040D01*
X155261479Y-78025090D01*
X155187127Y-78079110D01*
X155187125Y-78079112D01*
X155187124Y-78079112D01*
X155053512Y-78212724D01*
X155053512Y-78212725D01*
X155053510Y-78212727D01*
X155029610Y-78245623D01*
X154942440Y-78365600D01*
X154856654Y-78533963D01*
X154798259Y-78713681D01*
X154768700Y-78900313D01*
X154768700Y-79089286D01*
X154798259Y-79275918D01*
X154856654Y-79455636D01*
X154942440Y-79623999D01*
X155053510Y-79776873D01*
X155187127Y-79910490D01*
X155340001Y-80021560D01*
X155419547Y-80062090D01*
X155508363Y-80107345D01*
X155508365Y-80107345D01*
X155508368Y-80107347D01*
X155598236Y-80136547D01*
X155688081Y-80165740D01*
X155874714Y-80195300D01*
X155874719Y-80195300D01*
X156063686Y-80195300D01*
X156250318Y-80165740D01*
X156430032Y-80107347D01*
X156598399Y-80021560D01*
X156751273Y-79910490D01*
X156880144Y-79781619D01*
X156941467Y-79748134D01*
X156967825Y-79745300D01*
X160801920Y-79745300D01*
X160899462Y-79725896D01*
X160946913Y-79716458D01*
X161083495Y-79659884D01*
X161132729Y-79626986D01*
X161136488Y-79624475D01*
X161165955Y-79604786D01*
X161206416Y-79577752D01*
X162036255Y-78747913D01*
X165995500Y-78747913D01*
X165995500Y-78936886D01*
X166025059Y-79123518D01*
X166083454Y-79303236D01*
X166115723Y-79366566D01*
X166169240Y-79471599D01*
X166280310Y-79624473D01*
X166413927Y-79758090D01*
X166566801Y-79869160D01*
X166646347Y-79909690D01*
X166735163Y-79954945D01*
X166735165Y-79954945D01*
X166735168Y-79954947D01*
X166818013Y-79981865D01*
X166914881Y-80013340D01*
X167101514Y-80042900D01*
X167101519Y-80042900D01*
X167290486Y-80042900D01*
X167477118Y-80013340D01*
X167656832Y-79954947D01*
X167825199Y-79869160D01*
X167978073Y-79758090D01*
X168111690Y-79624473D01*
X168222760Y-79471599D01*
X168308547Y-79303232D01*
X168366940Y-79123518D01*
X168374005Y-79078911D01*
X168396500Y-78936886D01*
X168396500Y-78747913D01*
X168366940Y-78561281D01*
X168336869Y-78468735D01*
X168308547Y-78381568D01*
X168308545Y-78381565D01*
X168308545Y-78381563D01*
X168242828Y-78252587D01*
X168222760Y-78213201D01*
X168111690Y-78060327D01*
X167978073Y-77926710D01*
X167825199Y-77815640D01*
X167783317Y-77794300D01*
X167656836Y-77729854D01*
X167477118Y-77671459D01*
X167290486Y-77641900D01*
X167290481Y-77641900D01*
X167101519Y-77641900D01*
X167101514Y-77641900D01*
X166914881Y-77671459D01*
X166735163Y-77729854D01*
X166566800Y-77815640D01*
X166521226Y-77848752D01*
X166413927Y-77926710D01*
X166413925Y-77926712D01*
X166413924Y-77926712D01*
X166280312Y-78060324D01*
X166280312Y-78060325D01*
X166280310Y-78060327D01*
X166232610Y-78125979D01*
X166169240Y-78213200D01*
X166083454Y-78381563D01*
X166025059Y-78561281D01*
X165995500Y-78747913D01*
X162036255Y-78747913D01*
X162241752Y-78542416D01*
X162290986Y-78468729D01*
X162323884Y-78419495D01*
X162380458Y-78282913D01*
X162391711Y-78226344D01*
X162409300Y-78137920D01*
X162409300Y-78119388D01*
X162428985Y-78052349D01*
X162481789Y-78006594D01*
X162550947Y-77996650D01*
X162580747Y-78004825D01*
X162629673Y-78025091D01*
X162795577Y-78058091D01*
X162827792Y-78064499D01*
X162827796Y-78064500D01*
X162827797Y-78064500D01*
X163029804Y-78064500D01*
X163029805Y-78064499D01*
X163227927Y-78025091D01*
X163414556Y-77947786D01*
X163582518Y-77835558D01*
X163725358Y-77692718D01*
X163837586Y-77524756D01*
X163914891Y-77338127D01*
X163954300Y-77140003D01*
X163954300Y-76487997D01*
X163914891Y-76289873D01*
X163837586Y-76103244D01*
X163837584Y-76103241D01*
X163837582Y-76103237D01*
X163725358Y-75935281D01*
X163715619Y-75925542D01*
X163682134Y-75864219D01*
X163679300Y-75837861D01*
X163679300Y-75490079D01*
X163650459Y-75345092D01*
X163650458Y-75345091D01*
X163650458Y-75345087D01*
X163635407Y-75308751D01*
X163593887Y-75208511D01*
X163593885Y-75208507D01*
X163593884Y-75208505D01*
X163547231Y-75138684D01*
X163523255Y-75102800D01*
X163511754Y-75085586D01*
X163511752Y-75085584D01*
X161758021Y-73331852D01*
X161758014Y-73331846D01*
X161684329Y-73282612D01*
X161684329Y-73282613D01*
X161635091Y-73249713D01*
X161498517Y-73193143D01*
X161498507Y-73193140D01*
X161353520Y-73164300D01*
X161353518Y-73164300D01*
X156967825Y-73164300D01*
X156900786Y-73144615D01*
X156880144Y-73127981D01*
X156751275Y-72999112D01*
X156751273Y-72999110D01*
X156598399Y-72888040D01*
X156430036Y-72802254D01*
X156250318Y-72743859D01*
X156063686Y-72714300D01*
X156063681Y-72714300D01*
X155969329Y-72714300D01*
X155902290Y-72694615D01*
X155881648Y-72677981D01*
X147464956Y-64261287D01*
X147380604Y-64176935D01*
X155418300Y-64176935D01*
X155418300Y-65972670D01*
X155418301Y-65972676D01*
X155424708Y-66032283D01*
X155475002Y-66167128D01*
X155475006Y-66167135D01*
X155561252Y-66282344D01*
X155561255Y-66282347D01*
X155676464Y-66368593D01*
X155676471Y-66368597D01*
X155704125Y-66378911D01*
X155811317Y-66418891D01*
X155870927Y-66425300D01*
X155901929Y-66425299D01*
X155968967Y-66444982D01*
X156014724Y-66497784D01*
X156023548Y-66525106D01*
X156047140Y-66643708D01*
X156047143Y-66643717D01*
X156103712Y-66780288D01*
X156103719Y-66780301D01*
X156185848Y-66903215D01*
X156185851Y-66903219D01*
X156290381Y-67007749D01*
X156413298Y-67089880D01*
X156413311Y-67089887D01*
X156545133Y-67144489D01*
X156549887Y-67146458D01*
X156549891Y-67146458D01*
X156549892Y-67146459D01*
X156694879Y-67175300D01*
X156694882Y-67175300D01*
X156842718Y-67175300D01*
X158943870Y-67175300D01*
X159010909Y-67194985D01*
X159031551Y-67211619D01*
X162072227Y-70252295D01*
X162099107Y-70292523D01*
X162108904Y-70316175D01*
X162108909Y-70316185D01*
X162196510Y-70447288D01*
X162196513Y-70447292D01*
X162308010Y-70558789D01*
X162372806Y-70602084D01*
X162439121Y-70646394D01*
X162462775Y-70656191D01*
X162503003Y-70683071D01*
X166060749Y-74240816D01*
X166111416Y-74291483D01*
X166134220Y-74322869D01*
X166169240Y-74391599D01*
X166280310Y-74544473D01*
X166413927Y-74678090D01*
X166566801Y-74789160D01*
X166646347Y-74829690D01*
X166735163Y-74874945D01*
X166735165Y-74874945D01*
X166735168Y-74874947D01*
X166818013Y-74901865D01*
X166914881Y-74933340D01*
X167101514Y-74962900D01*
X167101519Y-74962900D01*
X167290486Y-74962900D01*
X167477118Y-74933340D01*
X167656832Y-74874947D01*
X167825199Y-74789160D01*
X167978073Y-74678090D01*
X168111690Y-74544473D01*
X168222760Y-74391599D01*
X168308547Y-74223232D01*
X168366940Y-74043518D01*
X168374005Y-73998911D01*
X168396500Y-73856886D01*
X168396500Y-73667913D01*
X168366940Y-73481281D01*
X168318387Y-73331852D01*
X168308547Y-73301568D01*
X168308545Y-73301565D01*
X168308545Y-73301563D01*
X168253300Y-73193140D01*
X168222760Y-73133201D01*
X168111690Y-72980327D01*
X167978073Y-72846710D01*
X167825199Y-72735640D01*
X167783317Y-72714300D01*
X167656836Y-72649854D01*
X167477118Y-72591459D01*
X167290486Y-72561900D01*
X167290481Y-72561900D01*
X167101519Y-72561900D01*
X167101514Y-72561900D01*
X166914881Y-72591459D01*
X166735167Y-72649853D01*
X166735164Y-72649854D01*
X166720939Y-72657103D01*
X166652270Y-72669998D01*
X166587530Y-72643720D01*
X166576965Y-72634298D01*
X163564371Y-69621703D01*
X163537491Y-69581475D01*
X163527694Y-69557821D01*
X163440092Y-69426715D01*
X163440089Y-69426710D01*
X163328592Y-69315213D01*
X163328588Y-69315210D01*
X163197485Y-69227609D01*
X163197475Y-69227604D01*
X163173823Y-69217807D01*
X163133595Y-69190927D01*
X160205763Y-66263095D01*
X160172278Y-66201772D01*
X160177262Y-66132080D01*
X160205763Y-66087733D01*
X160261213Y-66032283D01*
X160338904Y-65954592D01*
X160338906Y-65954588D01*
X160338909Y-65954586D01*
X160463848Y-65782620D01*
X160463847Y-65782620D01*
X160463851Y-65782616D01*
X160468314Y-65773854D01*
X160516288Y-65723059D01*
X160584108Y-65706263D01*
X160650244Y-65728799D01*
X160689286Y-65773856D01*
X160693751Y-65782620D01*
X160818690Y-65954586D01*
X160969013Y-66104909D01*
X161140979Y-66229848D01*
X161140981Y-66229849D01*
X161140984Y-66229851D01*
X161330388Y-66326357D01*
X161532557Y-66392046D01*
X161742513Y-66425300D01*
X161742514Y-66425300D01*
X161955086Y-66425300D01*
X161955087Y-66425300D01*
X162165043Y-66392046D01*
X162367212Y-66326357D01*
X162556616Y-66229851D01*
X162642938Y-66167135D01*
X162728586Y-66104909D01*
X162728588Y-66104906D01*
X162728592Y-66104904D01*
X162878904Y-65954592D01*
X162878906Y-65954588D01*
X162878909Y-65954586D01*
X163003848Y-65782620D01*
X163003847Y-65782620D01*
X163003851Y-65782616D01*
X163100357Y-65593212D01*
X163166046Y-65391043D01*
X163199300Y-65181087D01*
X163199300Y-64968513D01*
X163166046Y-64758557D01*
X163100357Y-64556388D01*
X163003851Y-64366984D01*
X163003849Y-64366981D01*
X163003848Y-64366979D01*
X162878909Y-64195013D01*
X162728586Y-64044690D01*
X162556620Y-63919751D01*
X162367214Y-63823244D01*
X162367213Y-63823243D01*
X162367212Y-63823243D01*
X162165043Y-63757554D01*
X162165041Y-63757553D01*
X162165040Y-63757553D01*
X162003757Y-63732008D01*
X161955087Y-63724300D01*
X161742513Y-63724300D01*
X161693842Y-63732008D01*
X161532560Y-63757553D01*
X161330385Y-63823244D01*
X161140979Y-63919751D01*
X160969013Y-64044690D01*
X160818690Y-64195013D01*
X160693749Y-64366982D01*
X160689284Y-64375746D01*
X160641309Y-64426542D01*
X160573488Y-64443336D01*
X160507353Y-64420798D01*
X160468316Y-64375746D01*
X160463850Y-64366982D01*
X160338909Y-64195013D01*
X160188586Y-64044690D01*
X160016620Y-63919751D01*
X159827214Y-63823244D01*
X159827213Y-63823243D01*
X159827212Y-63823243D01*
X159625043Y-63757554D01*
X159625041Y-63757553D01*
X159625040Y-63757553D01*
X159463757Y-63732008D01*
X159415087Y-63724300D01*
X159202513Y-63724300D01*
X159153842Y-63732008D01*
X158992560Y-63757553D01*
X158790385Y-63823244D01*
X158600979Y-63919751D01*
X158429015Y-64044689D01*
X158315473Y-64158231D01*
X158254150Y-64191715D01*
X158184458Y-64186731D01*
X158128525Y-64144859D01*
X158111610Y-64113882D01*
X158062597Y-63982471D01*
X158062593Y-63982464D01*
X157976347Y-63867255D01*
X157976344Y-63867252D01*
X157861135Y-63781006D01*
X157861128Y-63781002D01*
X157726282Y-63730708D01*
X157726283Y-63730708D01*
X157666683Y-63724301D01*
X157666681Y-63724300D01*
X157666673Y-63724300D01*
X157666664Y-63724300D01*
X155870929Y-63724300D01*
X155870923Y-63724301D01*
X155811316Y-63730708D01*
X155676471Y-63781002D01*
X155676464Y-63781006D01*
X155561255Y-63867252D01*
X155561252Y-63867255D01*
X155475006Y-63982464D01*
X155475002Y-63982471D01*
X155424708Y-64117317D01*
X155418301Y-64176916D01*
X155418300Y-64176935D01*
X147380604Y-64176935D01*
X146397118Y-63193449D01*
X146323383Y-63144182D01*
X146274195Y-63111316D01*
X146274192Y-63111314D01*
X146274191Y-63111314D01*
X146137617Y-63054743D01*
X146137607Y-63054740D01*
X145992620Y-63025900D01*
X145992618Y-63025900D01*
X145927902Y-63025900D01*
X145860863Y-63006215D01*
X145815108Y-62953411D01*
X145805164Y-62884253D01*
X145809971Y-62863581D01*
X145827077Y-62810934D01*
X145859100Y-62608751D01*
X145859100Y-62404048D01*
X145827077Y-62201865D01*
X145763818Y-62007176D01*
X145730103Y-61941007D01*
X145670887Y-61824790D01*
X145663156Y-61814149D01*
X145550571Y-61659186D01*
X145405813Y-61514428D01*
X145240214Y-61394115D01*
X145233606Y-61390748D01*
X145147517Y-61346883D01*
X145096723Y-61298911D01*
X145079928Y-61231090D01*
X145102465Y-61164955D01*
X145147517Y-61125916D01*
X145240210Y-61078687D01*
X145261370Y-61063313D01*
X145405813Y-60958371D01*
X145405815Y-60958368D01*
X145405819Y-60958366D01*
X145550566Y-60813619D01*
X145550568Y-60813615D01*
X145550571Y-60813613D01*
X145603332Y-60740990D01*
X145670887Y-60648010D01*
X145763820Y-60465619D01*
X145827077Y-60270934D01*
X145859100Y-60068752D01*
X145859100Y-59864048D01*
X145827077Y-59661866D01*
X145763820Y-59467181D01*
X145763818Y-59467178D01*
X145763818Y-59467176D01*
X145730103Y-59401007D01*
X145670887Y-59284790D01*
X145663156Y-59274149D01*
X145550571Y-59119186D01*
X145405813Y-58974428D01*
X145240213Y-58854115D01*
X145240212Y-58854114D01*
X145240210Y-58854113D01*
X145183253Y-58825091D01*
X145057823Y-58761181D01*
X144863134Y-58697922D01*
X144688595Y-58670278D01*
X144660952Y-58665900D01*
X144456248Y-58665900D01*
X144431929Y-58669751D01*
X144254065Y-58697922D01*
X144059376Y-58761181D01*
X143876986Y-58854115D01*
X143711386Y-58974428D01*
X143566628Y-59119186D01*
X143446315Y-59284786D01*
X143353381Y-59467176D01*
X143290122Y-59661865D01*
X143258100Y-59864048D01*
X143258100Y-60068751D01*
X143290122Y-60270934D01*
X143353381Y-60465623D01*
X143446315Y-60648013D01*
X143566628Y-60813613D01*
X143711386Y-60958371D01*
X143866349Y-61070956D01*
X143876990Y-61078687D01*
X143968440Y-61125283D01*
X143969680Y-61125915D01*
X144020476Y-61173890D01*
X144037271Y-61241711D01*
X144014734Y-61307846D01*
X143969680Y-61346885D01*
X143876986Y-61394115D01*
X143711386Y-61514428D01*
X143566628Y-61659186D01*
X143446315Y-61824786D01*
X143353381Y-62007176D01*
X143290122Y-62201865D01*
X143258100Y-62404048D01*
X143258100Y-62608751D01*
X143290122Y-62810934D01*
X143307229Y-62863581D01*
X143309224Y-62933423D01*
X143273144Y-62993256D01*
X143210443Y-63024084D01*
X143189298Y-63025900D01*
X138570830Y-63025900D01*
X138503791Y-63006215D01*
X138483149Y-62989581D01*
X130907454Y-55413886D01*
X132068100Y-55413886D01*
X132068100Y-55598913D01*
X132097045Y-55781665D01*
X132154219Y-55957632D01*
X132154220Y-55957635D01*
X132222489Y-56091618D01*
X132238222Y-56122496D01*
X132346979Y-56272187D01*
X132477813Y-56403021D01*
X132627504Y-56511778D01*
X132708363Y-56552977D01*
X132792364Y-56595779D01*
X132792367Y-56595780D01*
X132880350Y-56624367D01*
X132968336Y-56652955D01*
X133151086Y-56681900D01*
X133151087Y-56681900D01*
X133336113Y-56681900D01*
X133336114Y-56681900D01*
X133518864Y-56652955D01*
X133694835Y-56595779D01*
X133859696Y-56511778D01*
X134009387Y-56403021D01*
X134140221Y-56272187D01*
X134248978Y-56122496D01*
X134332979Y-55957635D01*
X134390155Y-55781664D01*
X134419100Y-55598914D01*
X134419100Y-55413886D01*
X136918100Y-55413886D01*
X136918100Y-55598913D01*
X136947045Y-55781665D01*
X137004219Y-55957632D01*
X137004220Y-55957635D01*
X137072489Y-56091618D01*
X137088222Y-56122496D01*
X137196979Y-56272187D01*
X137327813Y-56403021D01*
X137477504Y-56511778D01*
X137558363Y-56552977D01*
X137642364Y-56595779D01*
X137642367Y-56595780D01*
X137730350Y-56624367D01*
X137818336Y-56652955D01*
X138001086Y-56681900D01*
X138001087Y-56681900D01*
X138186113Y-56681900D01*
X138186114Y-56681900D01*
X138368864Y-56652955D01*
X138544835Y-56595779D01*
X138709696Y-56511778D01*
X138859387Y-56403021D01*
X138944897Y-56317511D01*
X157051900Y-56317511D01*
X157051900Y-56560088D01*
X157083561Y-56800585D01*
X157146347Y-57034904D01*
X157239173Y-57259005D01*
X157239176Y-57259012D01*
X157360464Y-57469089D01*
X157360466Y-57469092D01*
X157360467Y-57469093D01*
X157508133Y-57661536D01*
X157508139Y-57661543D01*
X157679656Y-57833060D01*
X157679662Y-57833065D01*
X157872111Y-57980736D01*
X158082188Y-58102024D01*
X158306300Y-58194854D01*
X158540611Y-58257638D01*
X158720986Y-58281384D01*
X158781111Y-58289300D01*
X158781112Y-58289300D01*
X159023689Y-58289300D01*
X159071788Y-58282967D01*
X159264189Y-58257638D01*
X159498500Y-58194854D01*
X159722612Y-58102024D01*
X159932689Y-57980736D01*
X160125138Y-57833065D01*
X160296665Y-57661538D01*
X160444336Y-57469089D01*
X160565624Y-57259012D01*
X160658454Y-57034900D01*
X160721238Y-56800589D01*
X160752900Y-56560088D01*
X160752900Y-56317512D01*
X160721238Y-56077011D01*
X160658454Y-55842700D01*
X160565624Y-55618588D01*
X160444336Y-55408511D01*
X160296665Y-55216062D01*
X160296660Y-55216056D01*
X160125143Y-55044539D01*
X160125136Y-55044533D01*
X159932693Y-54896867D01*
X159932692Y-54896866D01*
X159932689Y-54896864D01*
X159722612Y-54775576D01*
X159638204Y-54740613D01*
X159498504Y-54682747D01*
X159264185Y-54619961D01*
X159023689Y-54588300D01*
X159023688Y-54588300D01*
X158781112Y-54588300D01*
X158781111Y-54588300D01*
X158540614Y-54619961D01*
X158306295Y-54682747D01*
X158082194Y-54775573D01*
X158082185Y-54775577D01*
X157872106Y-54896867D01*
X157679663Y-55044533D01*
X157679656Y-55044539D01*
X157508139Y-55216056D01*
X157508133Y-55216063D01*
X157360467Y-55408506D01*
X157239177Y-55618585D01*
X157239173Y-55618594D01*
X157146347Y-55842695D01*
X157083561Y-56077014D01*
X157051900Y-56317511D01*
X138944897Y-56317511D01*
X138990221Y-56272187D01*
X139098978Y-56122496D01*
X139182979Y-55957635D01*
X139240155Y-55781664D01*
X139269100Y-55598914D01*
X139269100Y-55413886D01*
X139240155Y-55231136D01*
X139182979Y-55055165D01*
X139182979Y-55055164D01*
X139140177Y-54971163D01*
X139098978Y-54890304D01*
X138990221Y-54740613D01*
X138859387Y-54609779D01*
X138709696Y-54501022D01*
X138544835Y-54417020D01*
X138544832Y-54417019D01*
X138368865Y-54359845D01*
X138277489Y-54345372D01*
X138186114Y-54330900D01*
X138001086Y-54330900D01*
X137940169Y-54340548D01*
X137818334Y-54359845D01*
X137642367Y-54417019D01*
X137642364Y-54417020D01*
X137477503Y-54501022D01*
X137392099Y-54563072D01*
X137327813Y-54609779D01*
X137327811Y-54609781D01*
X137327810Y-54609781D01*
X137196981Y-54740610D01*
X137196981Y-54740611D01*
X137196979Y-54740613D01*
X137171579Y-54775573D01*
X137088222Y-54890303D01*
X137004220Y-55055164D01*
X137004219Y-55055167D01*
X136947045Y-55231134D01*
X136918100Y-55413886D01*
X134419100Y-55413886D01*
X134390155Y-55231136D01*
X134332979Y-55055165D01*
X134332979Y-55055164D01*
X134290177Y-54971163D01*
X134248978Y-54890304D01*
X134140221Y-54740613D01*
X134009387Y-54609779D01*
X133859696Y-54501022D01*
X133694835Y-54417020D01*
X133694832Y-54417019D01*
X133518865Y-54359845D01*
X133427489Y-54345372D01*
X133336114Y-54330900D01*
X133151086Y-54330900D01*
X133090169Y-54340548D01*
X132968334Y-54359845D01*
X132792367Y-54417019D01*
X132792364Y-54417020D01*
X132627503Y-54501022D01*
X132542099Y-54563072D01*
X132477813Y-54609779D01*
X132477811Y-54609781D01*
X132477810Y-54609781D01*
X132346981Y-54740610D01*
X132346981Y-54740611D01*
X132346979Y-54740613D01*
X132321579Y-54775573D01*
X132238222Y-54890303D01*
X132154220Y-55055164D01*
X132154219Y-55055167D01*
X132097045Y-55231134D01*
X132068100Y-55413886D01*
X130907454Y-55413886D01*
X128115419Y-52621851D01*
X128081934Y-52560528D01*
X128079100Y-52534170D01*
X128079100Y-51689786D01*
X128079100Y-51689784D01*
X128072686Y-51619204D01*
X128039338Y-51512187D01*
X128038189Y-51442329D01*
X128074990Y-51382937D01*
X128138059Y-51352869D01*
X128157725Y-51351300D01*
X131859442Y-51351300D01*
X131926481Y-51370985D01*
X131972236Y-51423789D01*
X131982180Y-51492947D01*
X131953155Y-51556503D01*
X131947123Y-51562981D01*
X131913494Y-51596609D01*
X131913490Y-51596613D01*
X131788551Y-51768579D01*
X131692044Y-51957985D01*
X131626353Y-52160160D01*
X131593100Y-52370113D01*
X131593100Y-52582686D01*
X131626123Y-52791189D01*
X131626354Y-52792643D01*
X131662110Y-52902689D01*
X131692044Y-52994814D01*
X131788551Y-53184220D01*
X131913490Y-53356186D01*
X132063813Y-53506509D01*
X132235779Y-53631448D01*
X132235781Y-53631449D01*
X132235784Y-53631451D01*
X132425188Y-53727957D01*
X132627357Y-53793646D01*
X132837313Y-53826900D01*
X132837314Y-53826900D01*
X133049886Y-53826900D01*
X133049887Y-53826900D01*
X133259843Y-53793646D01*
X133462012Y-53727957D01*
X133651416Y-53631451D01*
X133708638Y-53589877D01*
X133823386Y-53506509D01*
X133823388Y-53506506D01*
X133823392Y-53506504D01*
X133973704Y-53356192D01*
X133973706Y-53356188D01*
X133973709Y-53356186D01*
X134098648Y-53184220D01*
X134098647Y-53184220D01*
X134098651Y-53184216D01*
X134195157Y-52994812D01*
X134260846Y-52792643D01*
X134294100Y-52582687D01*
X134294100Y-52370113D01*
X134260846Y-52160157D01*
X134195157Y-51957988D01*
X134098651Y-51768584D01*
X134098649Y-51768581D01*
X134098648Y-51768579D01*
X133973709Y-51596613D01*
X133940077Y-51562981D01*
X133906592Y-51501658D01*
X133911576Y-51431966D01*
X133953448Y-51376033D01*
X134018912Y-51351616D01*
X134027758Y-51351300D01*
X137309442Y-51351300D01*
X137376481Y-51370985D01*
X137422236Y-51423789D01*
X137432180Y-51492947D01*
X137403155Y-51556503D01*
X137397123Y-51562981D01*
X137363494Y-51596609D01*
X137363490Y-51596613D01*
X137238551Y-51768579D01*
X137142044Y-51957985D01*
X137076353Y-52160160D01*
X137043100Y-52370113D01*
X137043100Y-52582686D01*
X137076123Y-52791189D01*
X137076354Y-52792643D01*
X137112110Y-52902689D01*
X137142044Y-52994814D01*
X137238551Y-53184220D01*
X137363490Y-53356186D01*
X137513813Y-53506509D01*
X137685779Y-53631448D01*
X137685781Y-53631449D01*
X137685784Y-53631451D01*
X137875188Y-53727957D01*
X138077357Y-53793646D01*
X138287313Y-53826900D01*
X138287314Y-53826900D01*
X138499886Y-53826900D01*
X138499887Y-53826900D01*
X138709843Y-53793646D01*
X138912012Y-53727957D01*
X139101416Y-53631451D01*
X139158638Y-53589877D01*
X139273386Y-53506509D01*
X139273388Y-53506506D01*
X139273392Y-53506504D01*
X139423704Y-53356192D01*
X139423706Y-53356188D01*
X139423709Y-53356186D01*
X139548648Y-53184220D01*
X139548647Y-53184220D01*
X139548651Y-53184216D01*
X139645157Y-52994812D01*
X139710846Y-52792643D01*
X139744100Y-52582687D01*
X139744100Y-52370113D01*
X139710846Y-52160157D01*
X139645157Y-51957988D01*
X139548651Y-51768584D01*
X139548649Y-51768581D01*
X139548648Y-51768579D01*
X139423709Y-51596613D01*
X139390077Y-51562981D01*
X139356592Y-51501658D01*
X139361576Y-51431966D01*
X139403448Y-51376033D01*
X139468912Y-51351616D01*
X139477758Y-51351300D01*
X143430712Y-51351300D01*
X143497751Y-51370985D01*
X143543506Y-51423789D01*
X143553450Y-51492947D01*
X143531030Y-51548185D01*
X143446315Y-51664786D01*
X143353381Y-51847176D01*
X143290122Y-52041865D01*
X143258100Y-52244048D01*
X143258100Y-52448751D01*
X143290122Y-52650934D01*
X143353381Y-52845623D01*
X143417291Y-52971053D01*
X143433576Y-53003013D01*
X143446315Y-53028013D01*
X143566628Y-53193613D01*
X143711386Y-53338371D01*
X143866349Y-53450956D01*
X143876990Y-53458687D01*
X143961739Y-53501869D01*
X143969680Y-53505915D01*
X144020476Y-53553890D01*
X144037271Y-53621711D01*
X144014734Y-53687846D01*
X143969680Y-53726885D01*
X143876986Y-53774115D01*
X143711386Y-53894428D01*
X143566628Y-54039186D01*
X143446315Y-54204786D01*
X143353381Y-54387176D01*
X143290122Y-54581865D01*
X143258100Y-54784048D01*
X143258100Y-54988751D01*
X143290122Y-55190934D01*
X143353381Y-55385623D01*
X143446315Y-55568013D01*
X143566628Y-55733613D01*
X143711386Y-55878371D01*
X143820482Y-55957632D01*
X143876990Y-55998687D01*
X143993207Y-56057903D01*
X144059376Y-56091618D01*
X144059378Y-56091618D01*
X144059381Y-56091620D01*
X144154408Y-56122496D01*
X144254065Y-56154877D01*
X144355157Y-56170888D01*
X144456248Y-56186900D01*
X144456249Y-56186900D01*
X144660951Y-56186900D01*
X144660952Y-56186900D01*
X144863134Y-56154877D01*
X145057819Y-56091620D01*
X145240210Y-55998687D01*
X145333190Y-55931132D01*
X145405813Y-55878371D01*
X145405815Y-55878368D01*
X145405819Y-55878366D01*
X145550566Y-55733619D01*
X145550568Y-55733615D01*
X145550571Y-55733613D01*
X145603332Y-55660990D01*
X145670887Y-55568010D01*
X145763820Y-55385619D01*
X145827077Y-55190934D01*
X145859100Y-54988752D01*
X145859100Y-54784048D01*
X145833111Y-54619961D01*
X145827077Y-54581865D01*
X145797727Y-54491537D01*
X145763820Y-54387181D01*
X145763818Y-54387178D01*
X145763818Y-54387176D01*
X145730103Y-54321007D01*
X145670887Y-54204790D01*
X145663156Y-54194149D01*
X145550571Y-54039186D01*
X145405813Y-53894428D01*
X145240214Y-53774115D01*
X145233606Y-53770748D01*
X145147517Y-53726883D01*
X145096723Y-53678911D01*
X145079928Y-53611090D01*
X145102465Y-53544955D01*
X145147517Y-53505916D01*
X145240210Y-53458687D01*
X145346333Y-53381585D01*
X145405813Y-53338371D01*
X145405815Y-53338368D01*
X145405819Y-53338366D01*
X145550566Y-53193619D01*
X145557398Y-53184216D01*
X145583700Y-53148015D01*
X145639029Y-53105349D01*
X145684018Y-53096900D01*
X163678720Y-53096900D01*
X163823708Y-53068059D01*
X163823708Y-53068058D01*
X163823713Y-53068058D01*
X163823717Y-53068056D01*
X163829545Y-53066289D01*
X163829679Y-53066733D01*
X163842611Y-53062807D01*
X163903797Y-53050637D01*
X164038567Y-52994814D01*
X164049472Y-52990297D01*
X164049472Y-52990296D01*
X164049479Y-52990294D01*
X164180589Y-52902689D01*
X164292089Y-52791189D01*
X164379694Y-52660079D01*
X164440037Y-52514397D01*
X164470800Y-52359742D01*
X164470800Y-52202058D01*
X164470800Y-52202055D01*
X164470799Y-52202053D01*
X164440038Y-52047410D01*
X164440037Y-52047403D01*
X164437743Y-52041865D01*
X164379697Y-51901727D01*
X164379690Y-51901714D01*
X164292089Y-51770611D01*
X164292086Y-51770607D01*
X164180592Y-51659113D01*
X164180588Y-51659110D01*
X164059801Y-51578402D01*
X164014996Y-51524790D01*
X164006289Y-51455465D01*
X164036444Y-51392437D01*
X164095887Y-51355718D01*
X164128692Y-51351300D01*
X170215900Y-51351300D01*
X170282939Y-51370985D01*
X170328694Y-51423789D01*
X170339900Y-51475300D01*
X170339900Y-129728300D01*
X170320215Y-129795339D01*
X170267411Y-129841094D01*
X170215900Y-129852300D01*
X101868900Y-129852300D01*
X101801861Y-129832615D01*
X101756106Y-129779811D01*
X101744900Y-129728300D01*
X101744900Y-124019335D01*
X118232700Y-124019335D01*
X118232700Y-125815070D01*
X118232701Y-125815076D01*
X118239108Y-125874683D01*
X118289402Y-126009528D01*
X118289406Y-126009535D01*
X118375652Y-126124744D01*
X118375655Y-126124747D01*
X118490864Y-126210993D01*
X118490871Y-126210997D01*
X118625717Y-126261291D01*
X118625716Y-126261291D01*
X118632644Y-126262035D01*
X118685327Y-126267700D01*
X120481072Y-126267699D01*
X120540683Y-126261291D01*
X120675531Y-126210996D01*
X120790746Y-126124746D01*
X120876996Y-126009531D01*
X120927291Y-125874683D01*
X120933700Y-125815073D01*
X120933699Y-124810913D01*
X123312700Y-124810913D01*
X123312700Y-125023486D01*
X123345953Y-125233439D01*
X123411644Y-125435614D01*
X123508151Y-125625020D01*
X123633090Y-125796986D01*
X123783413Y-125947309D01*
X123955379Y-126072248D01*
X123955381Y-126072249D01*
X123955384Y-126072251D01*
X124144788Y-126168757D01*
X124346957Y-126234446D01*
X124556913Y-126267700D01*
X124556914Y-126267700D01*
X124769486Y-126267700D01*
X124769487Y-126267700D01*
X124979443Y-126234446D01*
X125181612Y-126168757D01*
X125371016Y-126072251D01*
X125457338Y-126009535D01*
X125542986Y-125947309D01*
X125542988Y-125947306D01*
X125542992Y-125947304D01*
X125693304Y-125796992D01*
X125693306Y-125796988D01*
X125693309Y-125796986D01*
X125818248Y-125625020D01*
X125818247Y-125625020D01*
X125818251Y-125625016D01*
X125822714Y-125616254D01*
X125870688Y-125565459D01*
X125938508Y-125548663D01*
X126004644Y-125571199D01*
X126043686Y-125616256D01*
X126048151Y-125625020D01*
X126173090Y-125796986D01*
X126323413Y-125947309D01*
X126495379Y-126072248D01*
X126495381Y-126072249D01*
X126495384Y-126072251D01*
X126684788Y-126168757D01*
X126886957Y-126234446D01*
X127096913Y-126267700D01*
X127096914Y-126267700D01*
X127309486Y-126267700D01*
X127309487Y-126267700D01*
X127519443Y-126234446D01*
X127721612Y-126168757D01*
X127911016Y-126072251D01*
X127997338Y-126009535D01*
X128082986Y-125947309D01*
X128082988Y-125947306D01*
X128082992Y-125947304D01*
X128233304Y-125796992D01*
X128233306Y-125796988D01*
X128233309Y-125796986D01*
X128358248Y-125625020D01*
X128358247Y-125625020D01*
X128358251Y-125625016D01*
X128362714Y-125616254D01*
X128410688Y-125565459D01*
X128478508Y-125548663D01*
X128544644Y-125571199D01*
X128583686Y-125616256D01*
X128588151Y-125625020D01*
X128713090Y-125796986D01*
X128863413Y-125947309D01*
X129035379Y-126072248D01*
X129035381Y-126072249D01*
X129035384Y-126072251D01*
X129224788Y-126168757D01*
X129426957Y-126234446D01*
X129636913Y-126267700D01*
X129636914Y-126267700D01*
X129849486Y-126267700D01*
X129849487Y-126267700D01*
X130059443Y-126234446D01*
X130261612Y-126168757D01*
X130451016Y-126072251D01*
X130537338Y-126009535D01*
X130622986Y-125947309D01*
X130622988Y-125947306D01*
X130622992Y-125947304D01*
X130773304Y-125796992D01*
X130773306Y-125796988D01*
X130773309Y-125796986D01*
X130898248Y-125625020D01*
X130898247Y-125625020D01*
X130898251Y-125625016D01*
X130902714Y-125616254D01*
X130950688Y-125565459D01*
X131018508Y-125548663D01*
X131084644Y-125571199D01*
X131123686Y-125616256D01*
X131128151Y-125625020D01*
X131253090Y-125796986D01*
X131403413Y-125947309D01*
X131575379Y-126072248D01*
X131575381Y-126072249D01*
X131575384Y-126072251D01*
X131764788Y-126168757D01*
X131966957Y-126234446D01*
X132176913Y-126267700D01*
X132176914Y-126267700D01*
X132389486Y-126267700D01*
X132389487Y-126267700D01*
X132599443Y-126234446D01*
X132801612Y-126168757D01*
X132991016Y-126072251D01*
X133077338Y-126009535D01*
X133162986Y-125947309D01*
X133162988Y-125947306D01*
X133162992Y-125947304D01*
X133313304Y-125796992D01*
X133313306Y-125796988D01*
X133313309Y-125796986D01*
X133438248Y-125625020D01*
X133438247Y-125625020D01*
X133438251Y-125625016D01*
X133442714Y-125616254D01*
X133490688Y-125565459D01*
X133558508Y-125548663D01*
X133624644Y-125571199D01*
X133663686Y-125616256D01*
X133668151Y-125625020D01*
X133793090Y-125796986D01*
X133943413Y-125947309D01*
X134115379Y-126072248D01*
X134115381Y-126072249D01*
X134115384Y-126072251D01*
X134304788Y-126168757D01*
X134506957Y-126234446D01*
X134716913Y-126267700D01*
X134716914Y-126267700D01*
X134929486Y-126267700D01*
X134929487Y-126267700D01*
X135139443Y-126234446D01*
X135341612Y-126168757D01*
X135531016Y-126072251D01*
X135617338Y-126009535D01*
X135702986Y-125947309D01*
X135702988Y-125947306D01*
X135702992Y-125947304D01*
X135853304Y-125796992D01*
X135853306Y-125796988D01*
X135853309Y-125796986D01*
X135978248Y-125625020D01*
X135978247Y-125625020D01*
X135978251Y-125625016D01*
X135982714Y-125616254D01*
X136030688Y-125565459D01*
X136098508Y-125548663D01*
X136164644Y-125571199D01*
X136203686Y-125616256D01*
X136208151Y-125625020D01*
X136333090Y-125796986D01*
X136483413Y-125947309D01*
X136655379Y-126072248D01*
X136655381Y-126072249D01*
X136655384Y-126072251D01*
X136844788Y-126168757D01*
X137046957Y-126234446D01*
X137256913Y-126267700D01*
X137256914Y-126267700D01*
X137469486Y-126267700D01*
X137469487Y-126267700D01*
X137679443Y-126234446D01*
X137881612Y-126168757D01*
X138071016Y-126072251D01*
X138157338Y-126009535D01*
X138242986Y-125947309D01*
X138242988Y-125947306D01*
X138242992Y-125947304D01*
X138393304Y-125796992D01*
X138393306Y-125796988D01*
X138393309Y-125796986D01*
X138518248Y-125625020D01*
X138518247Y-125625020D01*
X138518251Y-125625016D01*
X138522714Y-125616254D01*
X138570688Y-125565459D01*
X138638508Y-125548663D01*
X138704644Y-125571199D01*
X138743686Y-125616256D01*
X138748151Y-125625020D01*
X138873090Y-125796986D01*
X139023413Y-125947309D01*
X139195379Y-126072248D01*
X139195381Y-126072249D01*
X139195384Y-126072251D01*
X139384788Y-126168757D01*
X139586957Y-126234446D01*
X139796913Y-126267700D01*
X139796914Y-126267700D01*
X140009486Y-126267700D01*
X140009487Y-126267700D01*
X140219443Y-126234446D01*
X140421612Y-126168757D01*
X140611016Y-126072251D01*
X140697338Y-126009535D01*
X140782986Y-125947309D01*
X140782988Y-125947306D01*
X140782992Y-125947304D01*
X140933304Y-125796992D01*
X140933306Y-125796988D01*
X140933309Y-125796986D01*
X141058248Y-125625020D01*
X141058247Y-125625020D01*
X141058251Y-125625016D01*
X141062714Y-125616254D01*
X141110688Y-125565459D01*
X141178508Y-125548663D01*
X141244644Y-125571199D01*
X141283686Y-125616256D01*
X141288151Y-125625020D01*
X141413090Y-125796986D01*
X141563413Y-125947309D01*
X141735379Y-126072248D01*
X141735381Y-126072249D01*
X141735384Y-126072251D01*
X141924788Y-126168757D01*
X142126957Y-126234446D01*
X142336913Y-126267700D01*
X142336914Y-126267700D01*
X142549486Y-126267700D01*
X142549487Y-126267700D01*
X142759443Y-126234446D01*
X142961612Y-126168757D01*
X143151016Y-126072251D01*
X143237338Y-126009535D01*
X143322986Y-125947309D01*
X143322988Y-125947306D01*
X143322992Y-125947304D01*
X143473304Y-125796992D01*
X143473306Y-125796988D01*
X143473309Y-125796986D01*
X143598248Y-125625020D01*
X143598247Y-125625020D01*
X143598251Y-125625016D01*
X143602714Y-125616254D01*
X143650688Y-125565459D01*
X143718508Y-125548663D01*
X143784644Y-125571199D01*
X143823686Y-125616256D01*
X143828151Y-125625020D01*
X143953090Y-125796986D01*
X144103413Y-125947309D01*
X144275379Y-126072248D01*
X144275381Y-126072249D01*
X144275384Y-126072251D01*
X144464788Y-126168757D01*
X144666957Y-126234446D01*
X144876913Y-126267700D01*
X144876914Y-126267700D01*
X145089486Y-126267700D01*
X145089487Y-126267700D01*
X145299443Y-126234446D01*
X145501612Y-126168757D01*
X145691016Y-126072251D01*
X145777338Y-126009535D01*
X145862986Y-125947309D01*
X145862988Y-125947306D01*
X145862992Y-125947304D01*
X146013304Y-125796992D01*
X146013306Y-125796988D01*
X146013309Y-125796986D01*
X146138248Y-125625020D01*
X146138247Y-125625020D01*
X146138251Y-125625016D01*
X146142714Y-125616254D01*
X146190688Y-125565459D01*
X146258508Y-125548663D01*
X146324644Y-125571199D01*
X146363686Y-125616256D01*
X146368151Y-125625020D01*
X146493090Y-125796986D01*
X146643413Y-125947309D01*
X146815379Y-126072248D01*
X146815381Y-126072249D01*
X146815384Y-126072251D01*
X147004788Y-126168757D01*
X147206957Y-126234446D01*
X147416913Y-126267700D01*
X147416914Y-126267700D01*
X147629486Y-126267700D01*
X147629487Y-126267700D01*
X147839443Y-126234446D01*
X148041612Y-126168757D01*
X148231016Y-126072251D01*
X148317338Y-126009535D01*
X148402986Y-125947309D01*
X148402988Y-125947306D01*
X148402992Y-125947304D01*
X148553304Y-125796992D01*
X148553306Y-125796988D01*
X148553309Y-125796986D01*
X148678248Y-125625020D01*
X148678247Y-125625020D01*
X148678251Y-125625016D01*
X148682714Y-125616254D01*
X148730688Y-125565459D01*
X148798508Y-125548663D01*
X148864644Y-125571199D01*
X148903686Y-125616256D01*
X148908151Y-125625020D01*
X149033090Y-125796986D01*
X149183413Y-125947309D01*
X149355379Y-126072248D01*
X149355381Y-126072249D01*
X149355384Y-126072251D01*
X149544788Y-126168757D01*
X149746957Y-126234446D01*
X149956913Y-126267700D01*
X149956914Y-126267700D01*
X150169486Y-126267700D01*
X150169487Y-126267700D01*
X150379443Y-126234446D01*
X150581612Y-126168757D01*
X150771016Y-126072251D01*
X150857338Y-126009535D01*
X150942986Y-125947309D01*
X150942988Y-125947306D01*
X150942992Y-125947304D01*
X151093304Y-125796992D01*
X151093306Y-125796988D01*
X151093309Y-125796986D01*
X151218248Y-125625020D01*
X151218247Y-125625020D01*
X151218251Y-125625016D01*
X151222714Y-125616254D01*
X151270688Y-125565459D01*
X151338508Y-125548663D01*
X151404644Y-125571199D01*
X151443686Y-125616256D01*
X151448151Y-125625020D01*
X151573090Y-125796986D01*
X151723413Y-125947309D01*
X151895379Y-126072248D01*
X151895381Y-126072249D01*
X151895384Y-126072251D01*
X152084788Y-126168757D01*
X152286957Y-126234446D01*
X152496913Y-126267700D01*
X152496914Y-126267700D01*
X152709486Y-126267700D01*
X152709487Y-126267700D01*
X152919443Y-126234446D01*
X153121612Y-126168757D01*
X153311016Y-126072251D01*
X153397338Y-126009535D01*
X153482986Y-125947309D01*
X153482988Y-125947306D01*
X153482992Y-125947304D01*
X153633304Y-125796992D01*
X153633306Y-125796988D01*
X153633309Y-125796986D01*
X153758248Y-125625020D01*
X153758247Y-125625020D01*
X153758251Y-125625016D01*
X153854757Y-125435612D01*
X153920446Y-125233443D01*
X153953700Y-125023487D01*
X153953700Y-124810913D01*
X153920446Y-124600957D01*
X153854757Y-124398788D01*
X153758251Y-124209384D01*
X153758249Y-124209381D01*
X153758248Y-124209379D01*
X153633309Y-124037413D01*
X153482986Y-123887090D01*
X153311020Y-123762151D01*
X153121614Y-123665644D01*
X153121613Y-123665643D01*
X153121612Y-123665643D01*
X152919443Y-123599954D01*
X152919441Y-123599953D01*
X152919440Y-123599953D01*
X152758157Y-123574408D01*
X152709487Y-123566700D01*
X152496913Y-123566700D01*
X152448242Y-123574408D01*
X152286960Y-123599953D01*
X152084785Y-123665644D01*
X151895379Y-123762151D01*
X151723413Y-123887090D01*
X151573090Y-124037413D01*
X151448149Y-124209382D01*
X151443684Y-124218146D01*
X151395709Y-124268942D01*
X151327888Y-124285736D01*
X151261753Y-124263198D01*
X151222716Y-124218146D01*
X151218250Y-124209382D01*
X151093309Y-124037413D01*
X150942986Y-123887090D01*
X150771020Y-123762151D01*
X150581614Y-123665644D01*
X150581613Y-123665643D01*
X150581612Y-123665643D01*
X150379443Y-123599954D01*
X150379441Y-123599953D01*
X150379440Y-123599953D01*
X150218157Y-123574408D01*
X150169487Y-123566700D01*
X149956913Y-123566700D01*
X149906772Y-123574641D01*
X149822764Y-123587947D01*
X149753470Y-123578992D01*
X149700018Y-123533996D01*
X149679379Y-123467244D01*
X149698104Y-123399931D01*
X149715686Y-123377792D01*
X149751086Y-123342392D01*
X149751089Y-123342389D01*
X149838694Y-123211279D01*
X149899037Y-123065597D01*
X149929800Y-122910942D01*
X149929800Y-122753258D01*
X149929800Y-122753255D01*
X149929799Y-122753253D01*
X149899038Y-122598610D01*
X149899037Y-122598603D01*
X149865155Y-122516803D01*
X149838697Y-122452927D01*
X149838690Y-122452914D01*
X149751089Y-122321811D01*
X149751086Y-122321807D01*
X149639592Y-122210313D01*
X149639588Y-122210310D01*
X149508485Y-122122709D01*
X149508472Y-122122702D01*
X149362801Y-122062364D01*
X149362789Y-122062361D01*
X149208145Y-122031600D01*
X149208142Y-122031600D01*
X149050458Y-122031600D01*
X149050455Y-122031600D01*
X148895810Y-122062361D01*
X148895798Y-122062364D01*
X148750127Y-122122702D01*
X148750114Y-122122709D01*
X148619011Y-122210310D01*
X148619007Y-122210313D01*
X148507513Y-122321807D01*
X148507507Y-122321815D01*
X148419907Y-122452918D01*
X148419906Y-122452919D01*
X148410105Y-122476580D01*
X148383227Y-122516803D01*
X148087049Y-122812982D01*
X148025729Y-122846466D01*
X147999370Y-122849300D01*
X144166687Y-122849300D01*
X144099648Y-122829615D01*
X144053893Y-122776811D01*
X144045070Y-122749492D01*
X144014738Y-122597008D01*
X144014737Y-122597007D01*
X144014737Y-122597003D01*
X144014735Y-122596998D01*
X143954397Y-122451327D01*
X143954390Y-122451314D01*
X143866789Y-122320211D01*
X143866786Y-122320207D01*
X143755292Y-122208713D01*
X143755284Y-122208707D01*
X143624181Y-122121107D01*
X143624179Y-122121106D01*
X143600521Y-122111306D01*
X143560295Y-122084427D01*
X143220449Y-121744581D01*
X143186964Y-121683258D01*
X143191948Y-121613566D01*
X143233820Y-121557633D01*
X143299284Y-121533216D01*
X143308130Y-121532900D01*
X145038820Y-121532900D01*
X145136362Y-121513496D01*
X145183813Y-121504058D01*
X145320395Y-121447484D01*
X145385191Y-121404189D01*
X145385194Y-121404186D01*
X145385196Y-121404186D01*
X145414447Y-121384640D01*
X145443316Y-121365352D01*
X146249397Y-120559269D01*
X146289624Y-120532391D01*
X146313279Y-120522594D01*
X146444389Y-120434989D01*
X146555889Y-120323489D01*
X146643494Y-120192379D01*
X146703837Y-120046697D01*
X146734600Y-119892042D01*
X146734600Y-119734358D01*
X146734600Y-119734355D01*
X146734599Y-119734353D01*
X146730066Y-119711565D01*
X146703837Y-119579703D01*
X146669955Y-119497903D01*
X146643497Y-119434027D01*
X146643490Y-119434014D01*
X146555889Y-119302911D01*
X146555886Y-119302907D01*
X146444392Y-119191413D01*
X146444388Y-119191410D01*
X146313285Y-119103809D01*
X146313272Y-119103802D01*
X146167601Y-119043464D01*
X146167589Y-119043461D01*
X146012945Y-119012700D01*
X146012942Y-119012700D01*
X145855258Y-119012700D01*
X145855255Y-119012700D01*
X145700610Y-119043461D01*
X145700598Y-119043464D01*
X145554927Y-119103802D01*
X145554914Y-119103809D01*
X145423811Y-119191410D01*
X145423807Y-119191413D01*
X145312313Y-119302907D01*
X145312307Y-119302915D01*
X145224707Y-119434018D01*
X145224706Y-119434019D01*
X145214905Y-119457680D01*
X145188027Y-119497903D01*
X144690351Y-119995581D01*
X144629028Y-120029066D01*
X144602670Y-120031900D01*
X139776749Y-120031900D01*
X139709710Y-120012215D01*
X139663955Y-119959411D01*
X139654011Y-119890253D01*
X139683036Y-119826697D01*
X139703861Y-119807583D01*
X139836019Y-119711566D01*
X139980766Y-119566819D01*
X139980768Y-119566815D01*
X139980771Y-119566813D01*
X140033532Y-119494190D01*
X140101087Y-119401210D01*
X140194020Y-119218819D01*
X140257277Y-119024134D01*
X140289300Y-118821952D01*
X140289300Y-118617248D01*
X140257277Y-118415065D01*
X140194018Y-118220376D01*
X140142665Y-118119591D01*
X140101087Y-118037990D01*
X140028978Y-117938739D01*
X139980771Y-117872386D01*
X139836013Y-117727628D01*
X139670413Y-117607315D01*
X139670412Y-117607314D01*
X139670410Y-117607313D01*
X139613453Y-117578291D01*
X139488023Y-117514381D01*
X139293334Y-117451122D01*
X139118795Y-117423478D01*
X139091152Y-117419100D01*
X138886448Y-117419100D01*
X138830771Y-117427918D01*
X138761478Y-117418963D01*
X138723693Y-117393126D01*
X137916621Y-116586052D01*
X137916614Y-116586046D01*
X137842929Y-116536812D01*
X137842929Y-116536813D01*
X137793691Y-116503913D01*
X137657117Y-116447343D01*
X137657107Y-116447340D01*
X137512120Y-116418500D01*
X137512118Y-116418500D01*
X129076504Y-116418500D01*
X129029055Y-116409062D01*
X129005397Y-116399263D01*
X129005393Y-116399262D01*
X129005388Y-116399260D01*
X128850745Y-116368500D01*
X128850742Y-116368500D01*
X128693058Y-116368500D01*
X128693055Y-116368500D01*
X128538410Y-116399261D01*
X128538398Y-116399264D01*
X128392727Y-116459602D01*
X128392714Y-116459609D01*
X128261611Y-116547210D01*
X128261607Y-116547213D01*
X128150113Y-116658707D01*
X128150110Y-116658711D01*
X128062509Y-116789814D01*
X128062502Y-116789827D01*
X128002164Y-116935498D01*
X128002161Y-116935510D01*
X127971400Y-117090153D01*
X127971400Y-117247846D01*
X128002161Y-117402489D01*
X128002164Y-117402501D01*
X128062502Y-117548172D01*
X128062509Y-117548185D01*
X128150110Y-117679288D01*
X128150113Y-117679292D01*
X128261607Y-117790786D01*
X128261611Y-117790789D01*
X128392714Y-117878390D01*
X128392727Y-117878397D01*
X128491960Y-117919500D01*
X128538403Y-117938737D01*
X128693053Y-117969499D01*
X128693056Y-117969500D01*
X128693058Y-117969500D01*
X128850744Y-117969500D01*
X128850745Y-117969499D01*
X128927052Y-117954320D01*
X129005388Y-117938739D01*
X129005389Y-117938738D01*
X129005397Y-117938737D01*
X129029055Y-117928937D01*
X129076504Y-117919500D01*
X129951428Y-117919500D01*
X130018467Y-117939185D01*
X130064222Y-117991989D01*
X130074786Y-118056103D01*
X130068300Y-118119583D01*
X130068300Y-119319601D01*
X130068301Y-119319618D01*
X130078800Y-119422396D01*
X130078801Y-119422399D01*
X130103821Y-119497903D01*
X130133986Y-119588934D01*
X130226088Y-119738256D01*
X130350144Y-119862312D01*
X130499466Y-119954414D01*
X130666003Y-120009599D01*
X130768791Y-120020100D01*
X131968808Y-120020099D01*
X132071597Y-120009599D01*
X132238134Y-119954414D01*
X132387456Y-119862312D01*
X132511512Y-119738256D01*
X132603614Y-119588934D01*
X132658799Y-119422397D01*
X132669300Y-119319609D01*
X132669299Y-118119592D01*
X132662813Y-118056100D01*
X132675582Y-117987409D01*
X132723463Y-117936525D01*
X132786171Y-117919500D01*
X135194537Y-117919500D01*
X135261576Y-117939185D01*
X135307331Y-117991989D01*
X135317275Y-118061147D01*
X135305022Y-118099795D01*
X135243581Y-118220376D01*
X135180322Y-118415065D01*
X135148300Y-118617248D01*
X135148300Y-118821951D01*
X135180322Y-119024134D01*
X135243581Y-119218823D01*
X135336515Y-119401213D01*
X135456828Y-119566813D01*
X135601586Y-119711571D01*
X135733735Y-119807581D01*
X135767190Y-119831887D01*
X135881740Y-119890253D01*
X135949576Y-119924818D01*
X135949578Y-119924818D01*
X135949581Y-119924820D01*
X136040656Y-119954412D01*
X136144265Y-119988077D01*
X136245357Y-120004088D01*
X136346448Y-120020100D01*
X136346449Y-120020100D01*
X136551151Y-120020100D01*
X136551152Y-120020100D01*
X136753334Y-119988077D01*
X136948019Y-119924820D01*
X137130410Y-119831887D01*
X137259282Y-119738257D01*
X137296013Y-119711571D01*
X137296015Y-119711568D01*
X137296019Y-119711566D01*
X137440766Y-119566819D01*
X137440768Y-119566815D01*
X137440771Y-119566813D01*
X137561084Y-119401214D01*
X137561085Y-119401213D01*
X137561087Y-119401210D01*
X137608316Y-119308517D01*
X137656289Y-119257723D01*
X137724110Y-119240928D01*
X137790245Y-119263465D01*
X137829283Y-119308517D01*
X137834939Y-119319616D01*
X137876515Y-119401214D01*
X137996828Y-119566813D01*
X137996834Y-119566819D01*
X138141581Y-119711566D01*
X138273736Y-119807582D01*
X138293003Y-119832567D01*
X138313645Y-119856389D01*
X138314165Y-119860011D01*
X138316402Y-119862911D01*
X138319100Y-119894332D01*
X138323589Y-119925547D01*
X138322067Y-119928877D01*
X138322381Y-119932524D01*
X138307667Y-119960410D01*
X138294564Y-119989103D01*
X138291484Y-119991082D01*
X138289776Y-119994320D01*
X138262317Y-120009826D01*
X138235786Y-120026877D01*
X138230873Y-120027583D01*
X138228937Y-120028677D01*
X138200851Y-120031900D01*
X138025204Y-120031900D01*
X137977755Y-120022462D01*
X137954097Y-120012663D01*
X137954093Y-120012662D01*
X137954088Y-120012660D01*
X137799445Y-119981900D01*
X137799442Y-119981900D01*
X137641758Y-119981900D01*
X137641755Y-119981900D01*
X137487110Y-120012661D01*
X137487098Y-120012664D01*
X137341427Y-120073002D01*
X137341414Y-120073009D01*
X137210311Y-120160610D01*
X137210307Y-120160613D01*
X137098813Y-120272107D01*
X137098810Y-120272111D01*
X137011209Y-120403214D01*
X137011202Y-120403227D01*
X136950864Y-120548898D01*
X136950861Y-120548910D01*
X136920100Y-120703553D01*
X136920100Y-120861246D01*
X136950861Y-121015889D01*
X136950864Y-121015901D01*
X137007258Y-121152048D01*
X137014727Y-121221517D01*
X136983452Y-121283996D01*
X136923363Y-121319648D01*
X136892697Y-121323500D01*
X127432480Y-121323500D01*
X127287492Y-121352340D01*
X127287486Y-121352342D01*
X127150908Y-121408914D01*
X127150896Y-121408921D01*
X127101669Y-121441813D01*
X127027988Y-121491044D01*
X127027980Y-121491050D01*
X124972006Y-123547024D01*
X124910683Y-123580509D01*
X124864926Y-123581816D01*
X124769491Y-123566700D01*
X124769487Y-123566700D01*
X124556913Y-123566700D01*
X124508242Y-123574408D01*
X124346960Y-123599953D01*
X124144785Y-123665644D01*
X123955379Y-123762151D01*
X123783413Y-123887090D01*
X123633090Y-124037413D01*
X123508151Y-124209379D01*
X123411644Y-124398785D01*
X123345953Y-124600960D01*
X123312700Y-124810913D01*
X120933699Y-124810913D01*
X120933699Y-124019328D01*
X120927291Y-123959717D01*
X120900204Y-123887094D01*
X120876997Y-123824871D01*
X120876993Y-123824864D01*
X120790747Y-123709655D01*
X120790744Y-123709652D01*
X120675535Y-123623406D01*
X120675528Y-123623402D01*
X120540682Y-123573108D01*
X120540683Y-123573108D01*
X120481083Y-123566701D01*
X120481081Y-123566700D01*
X120481073Y-123566700D01*
X120481064Y-123566700D01*
X118685329Y-123566700D01*
X118685323Y-123566701D01*
X118625716Y-123573108D01*
X118490871Y-123623402D01*
X118490864Y-123623406D01*
X118375655Y-123709652D01*
X118375652Y-123709655D01*
X118289406Y-123824864D01*
X118289402Y-123824871D01*
X118239108Y-123959717D01*
X118232701Y-124019316D01*
X118232701Y-124019323D01*
X118232700Y-124019335D01*
X101744900Y-124019335D01*
X101744900Y-117529113D01*
X124133900Y-117529113D01*
X124133900Y-117718086D01*
X124163459Y-117904718D01*
X124221854Y-118084436D01*
X124291120Y-118220376D01*
X124307640Y-118252799D01*
X124418710Y-118405673D01*
X124552327Y-118539290D01*
X124705201Y-118650360D01*
X124784747Y-118690890D01*
X124873563Y-118736145D01*
X124873565Y-118736145D01*
X124873568Y-118736147D01*
X124969897Y-118767446D01*
X125053281Y-118794540D01*
X125239914Y-118824100D01*
X125239919Y-118824100D01*
X125428886Y-118824100D01*
X125615518Y-118794540D01*
X125795232Y-118736147D01*
X125963599Y-118650360D01*
X126116473Y-118539290D01*
X126250090Y-118405673D01*
X126361160Y-118252799D01*
X126446947Y-118084432D01*
X126505340Y-117904718D01*
X126510462Y-117872381D01*
X126534900Y-117718086D01*
X126534900Y-117529113D01*
X126505340Y-117342481D01*
X126458009Y-117196813D01*
X126446947Y-117162768D01*
X126446945Y-117162765D01*
X126446945Y-117162763D01*
X126400319Y-117071256D01*
X126361160Y-116994401D01*
X126250090Y-116841527D01*
X126116473Y-116707910D01*
X125963599Y-116596840D01*
X125795236Y-116511054D01*
X125615518Y-116452659D01*
X125428886Y-116423100D01*
X125428881Y-116423100D01*
X125239919Y-116423100D01*
X125239914Y-116423100D01*
X125053281Y-116452659D01*
X124873563Y-116511054D01*
X124705200Y-116596840D01*
X124626343Y-116654134D01*
X124552327Y-116707910D01*
X124552325Y-116707912D01*
X124552324Y-116707912D01*
X124418712Y-116841524D01*
X124418712Y-116841525D01*
X124418710Y-116841527D01*
X124371010Y-116907179D01*
X124307640Y-116994400D01*
X124221854Y-117162763D01*
X124163459Y-117342481D01*
X124133900Y-117529113D01*
X101744900Y-117529113D01*
X101744900Y-112908711D01*
X112144700Y-112908711D01*
X112144700Y-113151288D01*
X112176361Y-113391785D01*
X112239147Y-113626104D01*
X112275779Y-113714540D01*
X112331976Y-113850212D01*
X112453264Y-114060289D01*
X112453266Y-114060292D01*
X112453267Y-114060293D01*
X112600933Y-114252736D01*
X112600939Y-114252743D01*
X112772456Y-114424260D01*
X112772462Y-114424265D01*
X112964911Y-114571936D01*
X113174988Y-114693224D01*
X113399100Y-114786054D01*
X113633411Y-114848838D01*
X113813786Y-114872584D01*
X113873911Y-114880500D01*
X113873912Y-114880500D01*
X114116489Y-114880500D01*
X114164588Y-114874167D01*
X114356989Y-114848838D01*
X114591300Y-114786054D01*
X114815412Y-114693224D01*
X115025489Y-114571936D01*
X115217938Y-114424265D01*
X115389465Y-114252738D01*
X115537136Y-114060289D01*
X115658424Y-113850212D01*
X115751254Y-113626100D01*
X115814038Y-113391789D01*
X115845700Y-113151288D01*
X115845700Y-112908712D01*
X115814038Y-112668211D01*
X115751254Y-112433900D01*
X115658424Y-112209788D01*
X115537136Y-111999711D01*
X115389465Y-111807262D01*
X115389460Y-111807256D01*
X115217943Y-111635739D01*
X115217936Y-111635733D01*
X115025493Y-111488067D01*
X115025492Y-111488066D01*
X115025489Y-111488064D01*
X114853861Y-111388974D01*
X114815414Y-111366777D01*
X114815405Y-111366773D01*
X114591304Y-111273947D01*
X114356985Y-111211161D01*
X114116489Y-111179500D01*
X114116488Y-111179500D01*
X113873912Y-111179500D01*
X113873911Y-111179500D01*
X113633414Y-111211161D01*
X113399095Y-111273947D01*
X113174994Y-111366773D01*
X113174985Y-111366777D01*
X112964906Y-111488067D01*
X112772463Y-111635733D01*
X112772456Y-111635739D01*
X112600939Y-111807256D01*
X112600933Y-111807263D01*
X112453267Y-111999706D01*
X112331977Y-112209785D01*
X112331973Y-112209794D01*
X112239147Y-112433895D01*
X112176361Y-112668214D01*
X112144700Y-112908711D01*
X101744900Y-112908711D01*
X101744900Y-108197989D01*
X118667100Y-108197989D01*
X118667100Y-108921211D01*
X118694198Y-109092301D01*
X118747727Y-109257045D01*
X118826368Y-109411388D01*
X118928186Y-109551528D01*
X119050672Y-109674014D01*
X119190812Y-109775832D01*
X119345155Y-109854473D01*
X119509899Y-109908002D01*
X119680989Y-109935100D01*
X119680990Y-109935100D01*
X119854210Y-109935100D01*
X119854211Y-109935100D01*
X119988220Y-109913875D01*
X120057514Y-109922830D01*
X120095299Y-109948667D01*
X123273178Y-113126547D01*
X123273185Y-113126553D01*
X123342394Y-113172796D01*
X123342396Y-113172797D01*
X123342399Y-113172799D01*
X123396105Y-113208684D01*
X123532687Y-113265258D01*
X123532691Y-113265258D01*
X123532692Y-113265259D01*
X123677679Y-113294100D01*
X123677682Y-113294100D01*
X123677683Y-113294100D01*
X123825518Y-113294100D01*
X124335775Y-113294100D01*
X124402814Y-113313785D01*
X124423456Y-113330419D01*
X124552327Y-113459290D01*
X124705201Y-113570360D01*
X124784747Y-113610890D01*
X124873563Y-113656145D01*
X124873565Y-113656145D01*
X124873568Y-113656147D01*
X124969897Y-113687446D01*
X125053281Y-113714540D01*
X125239914Y-113744100D01*
X125239919Y-113744100D01*
X125428886Y-113744100D01*
X125615518Y-113714540D01*
X125795232Y-113656147D01*
X125963599Y-113570360D01*
X126116473Y-113459290D01*
X126245344Y-113330419D01*
X126306667Y-113296934D01*
X126333025Y-113294100D01*
X135078720Y-113294100D01*
X135176262Y-113274696D01*
X135223713Y-113265258D01*
X135360295Y-113208684D01*
X135414001Y-113172799D01*
X135414001Y-113172798D01*
X135414003Y-113172798D01*
X135448608Y-113149675D01*
X135483216Y-113126552D01*
X136183694Y-112426071D01*
X136245015Y-112392588D01*
X136290770Y-112391281D01*
X136346448Y-112400100D01*
X136346449Y-112400100D01*
X136551151Y-112400100D01*
X136551152Y-112400100D01*
X136753334Y-112368077D01*
X136948019Y-112304820D01*
X137130410Y-112211887D01*
X137223390Y-112144332D01*
X137296013Y-112091571D01*
X137296015Y-112091568D01*
X137296019Y-112091566D01*
X137440766Y-111946819D01*
X137440768Y-111946815D01*
X137440771Y-111946813D01*
X137554507Y-111790266D01*
X137561087Y-111781210D01*
X137608316Y-111688517D01*
X137656289Y-111637723D01*
X137724110Y-111620928D01*
X137790245Y-111643465D01*
X137829285Y-111688519D01*
X137876515Y-111781214D01*
X137996828Y-111946813D01*
X138141586Y-112091571D01*
X138296549Y-112204156D01*
X138307190Y-112211887D01*
X138423407Y-112271103D01*
X138489576Y-112304818D01*
X138489578Y-112304818D01*
X138489581Y-112304820D01*
X138593937Y-112338727D01*
X138684265Y-112368077D01*
X138768364Y-112381397D01*
X138886448Y-112400100D01*
X138886449Y-112400100D01*
X139091150Y-112400100D01*
X139091152Y-112400100D01*
X139146827Y-112391281D01*
X139216119Y-112400235D01*
X139253906Y-112426073D01*
X143760380Y-116932548D01*
X143760384Y-116932551D01*
X143883298Y-117014680D01*
X143883311Y-117014687D01*
X144019882Y-117071256D01*
X144019887Y-117071258D01*
X144019891Y-117071258D01*
X144019892Y-117071259D01*
X144164879Y-117100100D01*
X144164882Y-117100100D01*
X144312717Y-117100100D01*
X144743382Y-117100100D01*
X144810421Y-117119785D01*
X144843700Y-117151215D01*
X144876828Y-117196812D01*
X144876832Y-117196817D01*
X145021586Y-117341571D01*
X145176549Y-117454156D01*
X145187190Y-117461887D01*
X145290213Y-117514380D01*
X145369576Y-117554818D01*
X145369578Y-117554818D01*
X145369581Y-117554820D01*
X145473937Y-117588727D01*
X145564265Y-117618077D01*
X145665357Y-117634088D01*
X145766448Y-117650100D01*
X145766449Y-117650100D01*
X145971151Y-117650100D01*
X145971152Y-117650100D01*
X146173334Y-117618077D01*
X146368019Y-117554820D01*
X146550410Y-117461887D01*
X146645052Y-117393126D01*
X146716013Y-117341571D01*
X146716015Y-117341568D01*
X146716019Y-117341566D01*
X146860766Y-117196819D01*
X146860768Y-117196815D01*
X146860771Y-117196813D01*
X146938259Y-117090158D01*
X146981087Y-117031210D01*
X147074020Y-116848819D01*
X147137277Y-116654134D01*
X147169300Y-116451952D01*
X147169300Y-116247248D01*
X147137277Y-116045066D01*
X147074020Y-115850381D01*
X147074018Y-115850378D01*
X147074018Y-115850376D01*
X147040303Y-115784207D01*
X146981087Y-115667990D01*
X146925808Y-115591904D01*
X146860771Y-115502386D01*
X146716013Y-115357628D01*
X146550413Y-115237315D01*
X146550412Y-115237314D01*
X146550410Y-115237313D01*
X146493453Y-115208291D01*
X146368023Y-115144381D01*
X146173334Y-115081122D01*
X145998795Y-115053478D01*
X145971152Y-115049100D01*
X145766448Y-115049100D01*
X145742129Y-115052951D01*
X145564265Y-115081122D01*
X145369576Y-115144381D01*
X145187186Y-115237315D01*
X145021586Y-115357628D01*
X144876832Y-115502382D01*
X144876828Y-115502387D01*
X144843700Y-115547985D01*
X144839368Y-115551325D01*
X144837095Y-115556303D01*
X144811995Y-115572433D01*
X144788371Y-115590651D01*
X144781697Y-115591904D01*
X144778317Y-115594077D01*
X144743382Y-115599100D01*
X144601029Y-115599100D01*
X144533990Y-115579415D01*
X144513348Y-115562781D01*
X141859278Y-112908711D01*
X157051900Y-112908711D01*
X157051900Y-113151288D01*
X157083561Y-113391785D01*
X157146347Y-113626104D01*
X157182979Y-113714540D01*
X157239176Y-113850212D01*
X157360464Y-114060289D01*
X157360466Y-114060292D01*
X157360467Y-114060293D01*
X157508133Y-114252736D01*
X157508139Y-114252743D01*
X157679656Y-114424260D01*
X157679662Y-114424265D01*
X157872111Y-114571936D01*
X158082188Y-114693224D01*
X158306300Y-114786054D01*
X158540611Y-114848838D01*
X158720986Y-114872584D01*
X158781111Y-114880500D01*
X158781112Y-114880500D01*
X159023689Y-114880500D01*
X159071788Y-114874167D01*
X159264189Y-114848838D01*
X159498500Y-114786054D01*
X159722612Y-114693224D01*
X159932689Y-114571936D01*
X160125138Y-114424265D01*
X160296665Y-114252738D01*
X160444336Y-114060289D01*
X160565624Y-113850212D01*
X160658454Y-113626100D01*
X160721238Y-113391789D01*
X160752900Y-113151288D01*
X160752900Y-112908712D01*
X160721238Y-112668211D01*
X160658454Y-112433900D01*
X160565624Y-112209788D01*
X160444336Y-111999711D01*
X160296665Y-111807262D01*
X160296660Y-111807256D01*
X160125143Y-111635739D01*
X160125136Y-111635733D01*
X159932693Y-111488067D01*
X159932692Y-111488066D01*
X159932689Y-111488064D01*
X159761061Y-111388974D01*
X159722614Y-111366777D01*
X159722605Y-111366773D01*
X159498504Y-111273947D01*
X159264185Y-111211161D01*
X159023689Y-111179500D01*
X159023688Y-111179500D01*
X158781112Y-111179500D01*
X158781111Y-111179500D01*
X158540614Y-111211161D01*
X158306295Y-111273947D01*
X158082194Y-111366773D01*
X158082185Y-111366777D01*
X157872106Y-111488067D01*
X157679663Y-111635733D01*
X157679656Y-111635739D01*
X157508139Y-111807256D01*
X157508133Y-111807263D01*
X157360467Y-111999706D01*
X157239177Y-112209785D01*
X157239173Y-112209794D01*
X157146347Y-112433895D01*
X157083561Y-112668214D01*
X157051900Y-112908711D01*
X141859278Y-112908711D01*
X140315273Y-111364706D01*
X140281788Y-111303383D01*
X140280481Y-111257628D01*
X140289300Y-111201952D01*
X140289300Y-110997248D01*
X140289300Y-110997247D01*
X140257277Y-110795065D01*
X140194018Y-110600376D01*
X140148315Y-110510680D01*
X140101087Y-110417990D01*
X140093356Y-110407349D01*
X139980771Y-110252386D01*
X139836013Y-110107628D01*
X139670413Y-109987315D01*
X139670412Y-109987314D01*
X139670410Y-109987313D01*
X139594563Y-109948667D01*
X139488023Y-109894381D01*
X139293334Y-109831122D01*
X139118795Y-109803478D01*
X139091152Y-109799100D01*
X138886448Y-109799100D01*
X138862129Y-109802951D01*
X138684265Y-109831122D01*
X138489576Y-109894381D01*
X138307186Y-109987315D01*
X138141586Y-110107628D01*
X137996828Y-110252386D01*
X137876515Y-110417986D01*
X137829285Y-110510680D01*
X137781310Y-110561476D01*
X137713489Y-110578271D01*
X137647354Y-110555734D01*
X137608315Y-110510680D01*
X137607683Y-110509440D01*
X137561087Y-110417990D01*
X137553356Y-110407349D01*
X137440771Y-110252386D01*
X137296013Y-110107628D01*
X137130413Y-109987315D01*
X137130412Y-109987314D01*
X137130410Y-109987313D01*
X137054563Y-109948667D01*
X136948023Y-109894381D01*
X136753334Y-109831122D01*
X136578795Y-109803478D01*
X136551152Y-109799100D01*
X136346448Y-109799100D01*
X136322129Y-109802951D01*
X136144265Y-109831122D01*
X135949576Y-109894381D01*
X135767186Y-109987315D01*
X135601586Y-110107628D01*
X135456828Y-110252386D01*
X135336515Y-110417986D01*
X135289285Y-110510680D01*
X135241310Y-110561476D01*
X135173489Y-110578271D01*
X135107354Y-110555734D01*
X135068315Y-110510680D01*
X135067683Y-110509440D01*
X135021087Y-110417990D01*
X135013356Y-110407349D01*
X134900771Y-110252386D01*
X134756013Y-110107628D01*
X134590413Y-109987315D01*
X134590412Y-109987314D01*
X134590410Y-109987313D01*
X134514563Y-109948667D01*
X134408023Y-109894381D01*
X134213334Y-109831122D01*
X134038795Y-109803478D01*
X134011152Y-109799100D01*
X133806448Y-109799100D01*
X133750771Y-109807918D01*
X133681478Y-109798963D01*
X133643693Y-109773126D01*
X131847221Y-107976652D01*
X131847214Y-107976646D01*
X131773529Y-107927412D01*
X131773529Y-107927413D01*
X131724291Y-107894513D01*
X131587717Y-107837943D01*
X131587707Y-107837940D01*
X131442720Y-107809100D01*
X131442718Y-107809100D01*
X122956185Y-107809100D01*
X122889146Y-107789415D01*
X122843391Y-107736611D01*
X122838479Y-107724104D01*
X122835661Y-107715599D01*
X122802414Y-107615266D01*
X122710312Y-107465944D01*
X122586256Y-107341888D01*
X122461159Y-107264728D01*
X122436936Y-107249787D01*
X122436931Y-107249785D01*
X122435462Y-107249298D01*
X122270397Y-107194601D01*
X122270395Y-107194600D01*
X122167610Y-107184100D01*
X121367598Y-107184100D01*
X121367580Y-107184101D01*
X121264803Y-107194600D01*
X121264800Y-107194601D01*
X121098268Y-107249785D01*
X121098263Y-107249787D01*
X120948942Y-107341889D01*
X120824887Y-107465944D01*
X120785288Y-107530144D01*
X120733339Y-107576868D01*
X120664377Y-107588089D01*
X120600295Y-107560245D01*
X120592069Y-107552727D01*
X120484530Y-107445188D01*
X120484528Y-107445186D01*
X120344388Y-107343368D01*
X120190045Y-107264727D01*
X120025301Y-107211198D01*
X120025299Y-107211197D01*
X120025298Y-107211197D01*
X119893871Y-107190381D01*
X119854211Y-107184100D01*
X119680989Y-107184100D01*
X119641328Y-107190381D01*
X119509902Y-107211197D01*
X119345152Y-107264728D01*
X119190811Y-107343368D01*
X119157572Y-107367518D01*
X119050672Y-107445186D01*
X119050670Y-107445188D01*
X119050669Y-107445188D01*
X118928188Y-107567669D01*
X118928188Y-107567670D01*
X118928186Y-107567672D01*
X118921505Y-107576868D01*
X118826368Y-107707811D01*
X118747728Y-107862152D01*
X118747727Y-107862154D01*
X118747727Y-107862155D01*
X118744162Y-107873128D01*
X118694197Y-108026902D01*
X118667100Y-108197989D01*
X101744900Y-108197989D01*
X101744900Y-96887113D01*
X103244300Y-96887113D01*
X103244300Y-97076086D01*
X103273859Y-97262718D01*
X103332254Y-97442436D01*
X103398046Y-97571558D01*
X103418040Y-97610799D01*
X103529110Y-97763673D01*
X103662727Y-97897290D01*
X103815601Y-98008360D01*
X103895147Y-98048890D01*
X103983963Y-98094145D01*
X103983965Y-98094145D01*
X103983968Y-98094147D01*
X104080297Y-98125446D01*
X104163681Y-98152540D01*
X104350314Y-98182100D01*
X104532570Y-98182100D01*
X104599609Y-98201785D01*
X104620251Y-98218419D01*
X105459586Y-99057754D01*
X105490119Y-99078154D01*
X105533270Y-99106986D01*
X105582505Y-99139884D01*
X105625505Y-99157695D01*
X105719088Y-99196459D01*
X105835241Y-99219563D01*
X105854468Y-99223387D01*
X105864081Y-99225300D01*
X105864082Y-99225300D01*
X105864083Y-99225300D01*
X106011918Y-99225300D01*
X107918100Y-99225300D01*
X107985139Y-99244985D01*
X108030894Y-99297789D01*
X108042100Y-99349300D01*
X108042100Y-100522670D01*
X108042101Y-100522676D01*
X108048508Y-100582283D01*
X108098802Y-100717128D01*
X108098806Y-100717135D01*
X108185052Y-100832344D01*
X108185055Y-100832347D01*
X108300264Y-100918593D01*
X108300271Y-100918597D01*
X108435117Y-100968891D01*
X108435116Y-100968891D01*
X108442044Y-100969635D01*
X108494727Y-100975300D01*
X108976371Y-100975299D01*
X108997616Y-100981537D01*
X109019703Y-100983117D01*
X109030485Y-100991188D01*
X109043409Y-100994983D01*
X109057909Y-101011717D01*
X109075637Y-101024988D01*
X109080344Y-101037608D01*
X109089164Y-101047787D01*
X109092315Y-101069703D01*
X109100054Y-101090452D01*
X109097191Y-101103613D01*
X109099108Y-101116946D01*
X109089909Y-101137087D01*
X109085203Y-101158725D01*
X109071931Y-101176453D01*
X109070083Y-101180502D01*
X109064052Y-101186980D01*
X108976249Y-101274782D01*
X108914929Y-101308266D01*
X108888570Y-101311100D01*
X105443425Y-101311100D01*
X105376386Y-101291415D01*
X105355744Y-101274781D01*
X105226875Y-101145912D01*
X105226873Y-101145910D01*
X105073999Y-101034840D01*
X105060775Y-101028102D01*
X104905636Y-100949054D01*
X104725918Y-100890659D01*
X104539286Y-100861100D01*
X104539281Y-100861100D01*
X104350319Y-100861100D01*
X104350314Y-100861100D01*
X104163681Y-100890659D01*
X103983963Y-100949054D01*
X103815600Y-101034840D01*
X103763930Y-101072381D01*
X103662727Y-101145910D01*
X103662725Y-101145912D01*
X103662724Y-101145912D01*
X103529112Y-101279524D01*
X103529112Y-101279525D01*
X103529110Y-101279527D01*
X103496739Y-101324082D01*
X103418040Y-101432400D01*
X103332254Y-101600763D01*
X103273859Y-101780481D01*
X103244300Y-101967113D01*
X103244300Y-102156086D01*
X103273859Y-102342718D01*
X103332254Y-102522436D01*
X103411016Y-102677013D01*
X103418040Y-102690799D01*
X103529110Y-102843673D01*
X103662727Y-102977290D01*
X103815601Y-103088360D01*
X103895147Y-103128890D01*
X103983963Y-103174145D01*
X103983965Y-103174145D01*
X103983968Y-103174147D01*
X104080297Y-103205446D01*
X104163681Y-103232540D01*
X104350314Y-103262100D01*
X104350319Y-103262100D01*
X104539286Y-103262100D01*
X104725918Y-103232540D01*
X104729774Y-103231287D01*
X104905632Y-103174147D01*
X105073999Y-103088360D01*
X105226873Y-102977290D01*
X105355744Y-102848419D01*
X105417067Y-102814934D01*
X105443425Y-102812100D01*
X109324720Y-102812100D01*
X109422262Y-102792696D01*
X109469713Y-102783258D01*
X109606295Y-102726684D01*
X109680629Y-102677016D01*
X109729216Y-102644552D01*
X109986495Y-102387273D01*
X110152656Y-102221113D01*
X114877500Y-102221113D01*
X114877500Y-102410086D01*
X114907059Y-102596718D01*
X114965454Y-102776436D01*
X115021260Y-102885960D01*
X115051240Y-102944799D01*
X115162310Y-103097673D01*
X115295927Y-103231290D01*
X115448801Y-103342360D01*
X115528347Y-103382890D01*
X115617163Y-103428145D01*
X115617165Y-103428145D01*
X115617168Y-103428147D01*
X115713497Y-103459446D01*
X115796881Y-103486540D01*
X115983514Y-103516100D01*
X115983519Y-103516100D01*
X116172486Y-103516100D01*
X116359118Y-103486540D01*
X116538832Y-103428147D01*
X116707199Y-103342360D01*
X116860073Y-103231290D01*
X116988944Y-103102419D01*
X117050267Y-103068934D01*
X117076625Y-103066100D01*
X129537770Y-103066100D01*
X129604809Y-103085785D01*
X129625451Y-103102419D01*
X132901322Y-106378290D01*
X132934807Y-106439613D01*
X132936114Y-106485369D01*
X132914700Y-106620572D01*
X132914700Y-106841021D01*
X132949185Y-107058752D01*
X133017303Y-107268403D01*
X133017304Y-107268406D01*
X133117387Y-107464825D01*
X133246952Y-107643158D01*
X133246956Y-107643163D01*
X133402836Y-107799043D01*
X133402841Y-107799047D01*
X133498402Y-107868475D01*
X133581178Y-107928615D01*
X133709575Y-107994037D01*
X133777593Y-108028695D01*
X133777596Y-108028696D01*
X133882421Y-108062755D01*
X133987249Y-108096815D01*
X134204978Y-108131300D01*
X134204979Y-108131300D01*
X134425421Y-108131300D01*
X134425422Y-108131300D01*
X134643151Y-108096815D01*
X134852806Y-108028695D01*
X135049222Y-107928615D01*
X135227565Y-107799042D01*
X135277736Y-107748870D01*
X135339057Y-107715386D01*
X135408748Y-107720370D01*
X135464682Y-107762241D01*
X135481598Y-107793219D01*
X135511402Y-107873128D01*
X135511406Y-107873135D01*
X135597652Y-107988344D01*
X135597655Y-107988347D01*
X135712864Y-108074593D01*
X135712871Y-108074597D01*
X135847717Y-108124891D01*
X135847716Y-108124891D01*
X135854644Y-108125635D01*
X135907327Y-108131300D01*
X137803072Y-108131299D01*
X137862683Y-108124891D01*
X137997531Y-108074596D01*
X138112746Y-107988346D01*
X138198996Y-107873131D01*
X138249291Y-107738283D01*
X138255700Y-107678673D01*
X138255700Y-107605300D01*
X138275385Y-107538261D01*
X138328189Y-107492506D01*
X138379700Y-107481300D01*
X141271071Y-107481300D01*
X141338110Y-107500985D01*
X141381556Y-107549005D01*
X141429532Y-107643163D01*
X141466440Y-107715599D01*
X141577510Y-107868473D01*
X141711127Y-108002090D01*
X141864001Y-108113160D01*
X141899599Y-108131298D01*
X142032363Y-108198945D01*
X142032365Y-108198945D01*
X142032368Y-108198947D01*
X142128697Y-108230246D01*
X142212081Y-108257340D01*
X142398714Y-108286900D01*
X142398719Y-108286900D01*
X142587686Y-108286900D01*
X142774318Y-108257340D01*
X142954032Y-108198947D01*
X143122399Y-108113160D01*
X143275273Y-108002090D01*
X143408890Y-107868473D01*
X143519960Y-107715599D01*
X143605747Y-107547232D01*
X143664140Y-107367518D01*
X143679838Y-107268403D01*
X143693700Y-107180886D01*
X143693700Y-106991913D01*
X143664140Y-106805281D01*
X143605745Y-106625563D01*
X143519959Y-106457200D01*
X143408890Y-106304327D01*
X143275273Y-106170710D01*
X143122399Y-106059640D01*
X142954036Y-105973854D01*
X142774318Y-105915459D01*
X142587686Y-105885900D01*
X142587681Y-105885900D01*
X142398719Y-105885900D01*
X142398714Y-105885900D01*
X142212081Y-105915459D01*
X142097456Y-105952704D01*
X142032368Y-105973853D01*
X142032363Y-105973855D01*
X142031207Y-105974231D01*
X141992888Y-105980300D01*
X138379699Y-105980300D01*
X138312660Y-105960615D01*
X138266905Y-105907811D01*
X138255699Y-105856300D01*
X138255699Y-105782929D01*
X138255698Y-105782923D01*
X138249291Y-105723316D01*
X138198997Y-105588471D01*
X138198993Y-105588464D01*
X138112747Y-105473255D01*
X138112744Y-105473252D01*
X137997535Y-105387006D01*
X137997528Y-105387002D01*
X137862682Y-105336708D01*
X137862683Y-105336708D01*
X137803083Y-105330301D01*
X137803081Y-105330300D01*
X137803073Y-105330300D01*
X137803065Y-105330300D01*
X137076428Y-105330300D01*
X137009389Y-105310615D01*
X136963634Y-105257811D01*
X136953690Y-105188653D01*
X136982715Y-105125097D01*
X136988747Y-105118619D01*
X137399748Y-104707619D01*
X137461071Y-104674134D01*
X137487429Y-104671300D01*
X164547920Y-104671300D01*
X164645462Y-104651896D01*
X164692913Y-104642458D01*
X164829495Y-104585884D01*
X164878729Y-104552986D01*
X164952416Y-104503752D01*
X166614148Y-102842018D01*
X166675471Y-102808534D01*
X166701829Y-102805700D01*
X166884086Y-102805700D01*
X167070718Y-102776140D01*
X167074574Y-102774887D01*
X167250432Y-102717747D01*
X167418799Y-102631960D01*
X167571673Y-102520890D01*
X167705290Y-102387273D01*
X167816360Y-102234399D01*
X167902147Y-102066032D01*
X167960540Y-101886318D01*
X167977303Y-101780481D01*
X167990100Y-101699686D01*
X167990100Y-101510713D01*
X167960540Y-101324081D01*
X167921215Y-101203053D01*
X167902147Y-101144368D01*
X167902145Y-101144365D01*
X167902145Y-101144363D01*
X167852937Y-101047787D01*
X167816360Y-100976001D01*
X167705290Y-100823127D01*
X167571673Y-100689510D01*
X167418799Y-100578440D01*
X167250436Y-100492654D01*
X167070718Y-100434259D01*
X166884086Y-100404700D01*
X166884081Y-100404700D01*
X166695119Y-100404700D01*
X166695114Y-100404700D01*
X166508481Y-100434259D01*
X166328763Y-100492654D01*
X166160400Y-100578440D01*
X166139042Y-100593958D01*
X166007527Y-100689510D01*
X166007525Y-100689512D01*
X166007524Y-100689512D01*
X165873912Y-100823124D01*
X165873912Y-100823125D01*
X165873910Y-100823127D01*
X165837975Y-100872587D01*
X165762840Y-100976000D01*
X165677054Y-101144363D01*
X165618659Y-101324081D01*
X165589100Y-101510713D01*
X165589100Y-101692969D01*
X165569415Y-101760008D01*
X165552781Y-101780650D01*
X164199451Y-103133981D01*
X164138128Y-103167466D01*
X164111770Y-103170300D01*
X156607648Y-103170300D01*
X156540609Y-103150615D01*
X156494854Y-103097811D01*
X156484910Y-103028653D01*
X156513935Y-102965097D01*
X156551353Y-102935815D01*
X156562652Y-102930057D01*
X156649199Y-102885960D01*
X156802073Y-102774890D01*
X156930944Y-102646019D01*
X156992267Y-102612534D01*
X157018625Y-102609700D01*
X160137120Y-102609700D01*
X160234662Y-102590296D01*
X160282113Y-102580858D01*
X160418695Y-102524284D01*
X160508224Y-102464463D01*
X160508226Y-102464462D01*
X160541609Y-102442157D01*
X160541610Y-102442155D01*
X160541616Y-102442152D01*
X161682952Y-101300815D01*
X161710205Y-101260027D01*
X161765084Y-101177895D01*
X161788518Y-101121320D01*
X161821659Y-101041312D01*
X161842628Y-100935891D01*
X161843754Y-100930232D01*
X161843754Y-100930231D01*
X161844763Y-100925159D01*
X161850500Y-100896318D01*
X161850500Y-100870779D01*
X161851291Y-100863808D01*
X161862238Y-100837812D01*
X161870185Y-100810749D01*
X161875617Y-100806041D01*
X161878408Y-100799415D01*
X161901676Y-100783461D01*
X161922989Y-100764994D01*
X161930103Y-100763971D01*
X161936034Y-100759905D01*
X161964230Y-100759064D01*
X161992147Y-100755050D01*
X162002606Y-100757919D01*
X162005872Y-100757822D01*
X162008909Y-100759648D01*
X162021947Y-100763225D01*
X162070873Y-100783491D01*
X162236777Y-100816491D01*
X162268992Y-100822899D01*
X162268996Y-100822900D01*
X162268997Y-100822900D01*
X162471004Y-100822900D01*
X162471005Y-100822899D01*
X162669127Y-100783491D01*
X162855756Y-100706186D01*
X163023718Y-100593958D01*
X163166558Y-100451118D01*
X163278786Y-100283156D01*
X163356091Y-100096527D01*
X163395500Y-99898403D01*
X163395500Y-99246397D01*
X163356091Y-99048273D01*
X163278786Y-98861644D01*
X163278784Y-98861641D01*
X163278782Y-98861637D01*
X163166558Y-98693681D01*
X163023718Y-98550841D01*
X162855762Y-98438617D01*
X162855752Y-98438612D01*
X162669127Y-98361309D01*
X162669119Y-98361307D01*
X162471007Y-98321900D01*
X162471003Y-98321900D01*
X162268997Y-98321900D01*
X162268992Y-98321900D01*
X162070880Y-98361307D01*
X162070872Y-98361309D01*
X161884244Y-98438613D01*
X161803891Y-98492304D01*
X161737213Y-98513182D01*
X161669833Y-98494697D01*
X161666109Y-98492304D01*
X161585755Y-98438613D01*
X161399127Y-98361309D01*
X161399119Y-98361307D01*
X161201007Y-98321900D01*
X161201003Y-98321900D01*
X161191229Y-98321900D01*
X161124190Y-98302215D01*
X161078435Y-98249411D01*
X161068491Y-98180253D01*
X161097516Y-98116697D01*
X161103548Y-98110219D01*
X161901748Y-97312019D01*
X161963071Y-97278534D01*
X161989429Y-97275700D01*
X165790975Y-97275700D01*
X165858014Y-97295385D01*
X165878656Y-97312019D01*
X166007527Y-97440890D01*
X166160401Y-97551960D01*
X166239947Y-97592490D01*
X166328763Y-97637745D01*
X166328765Y-97637745D01*
X166328768Y-97637747D01*
X166423526Y-97668536D01*
X166508481Y-97696140D01*
X166695114Y-97725700D01*
X166695119Y-97725700D01*
X166884086Y-97725700D01*
X167070718Y-97696140D01*
X167074574Y-97694887D01*
X167250432Y-97637747D01*
X167418799Y-97551960D01*
X167571673Y-97440890D01*
X167705290Y-97307273D01*
X167816360Y-97154399D01*
X167902147Y-96986032D01*
X167960540Y-96806318D01*
X167965538Y-96774763D01*
X167990100Y-96619686D01*
X167990100Y-96430713D01*
X167960540Y-96244081D01*
X167908207Y-96083020D01*
X167902147Y-96064368D01*
X167902145Y-96064365D01*
X167902145Y-96064363D01*
X167816359Y-95896000D01*
X167705290Y-95743127D01*
X167571673Y-95609510D01*
X167418799Y-95498440D01*
X167250436Y-95412654D01*
X167070718Y-95354259D01*
X166884086Y-95324700D01*
X166884081Y-95324700D01*
X166695119Y-95324700D01*
X166695114Y-95324700D01*
X166508481Y-95354259D01*
X166328763Y-95412654D01*
X166160400Y-95498440D01*
X166073179Y-95561810D01*
X166007527Y-95609510D01*
X166007525Y-95609512D01*
X166007524Y-95609512D01*
X165878656Y-95738381D01*
X165817333Y-95771866D01*
X165790975Y-95774700D01*
X161553276Y-95774700D01*
X161524442Y-95780434D01*
X161524443Y-95780435D01*
X161408293Y-95803539D01*
X161408283Y-95803542D01*
X161328281Y-95836679D01*
X161328282Y-95836680D01*
X161271705Y-95860115D01*
X161189572Y-95914995D01*
X161148785Y-95942247D01*
X161148781Y-95942250D01*
X159247048Y-97843983D01*
X159233140Y-97864799D01*
X159212142Y-97896226D01*
X159164914Y-97966907D01*
X159108343Y-98103482D01*
X159108340Y-98103492D01*
X159079500Y-98248479D01*
X159079500Y-98303934D01*
X159059815Y-98370973D01*
X159029812Y-98403200D01*
X158947452Y-98464855D01*
X158861206Y-98580064D01*
X158861202Y-98580071D01*
X158810908Y-98714917D01*
X158804501Y-98774516D01*
X158804500Y-98774535D01*
X158804500Y-100370270D01*
X158804501Y-100370276D01*
X158810908Y-100429883D01*
X158861202Y-100564728D01*
X158861206Y-100564735D01*
X158947452Y-100679944D01*
X158947455Y-100679947D01*
X159062664Y-100766193D01*
X159062671Y-100766197D01*
X159197517Y-100816491D01*
X159197516Y-100816491D01*
X159204444Y-100817235D01*
X159257127Y-100822900D01*
X159738771Y-100822899D01*
X159760017Y-100829137D01*
X159782102Y-100830717D01*
X159792883Y-100838787D01*
X159805809Y-100842583D01*
X159820309Y-100859317D01*
X159838036Y-100872587D01*
X159842743Y-100885207D01*
X159851564Y-100895387D01*
X159854715Y-100917303D01*
X159862454Y-100938051D01*
X159859590Y-100951213D01*
X159861508Y-100964546D01*
X159852309Y-100984688D01*
X159847603Y-101006324D01*
X159834333Y-101024050D01*
X159832483Y-101028102D01*
X159826452Y-101034579D01*
X159788652Y-101072380D01*
X159727330Y-101105866D01*
X159700970Y-101108700D01*
X157018625Y-101108700D01*
X156951586Y-101089015D01*
X156930944Y-101072381D01*
X156802075Y-100943512D01*
X156802073Y-100943510D01*
X156649199Y-100832440D01*
X156645817Y-100830717D01*
X156480836Y-100746654D01*
X156301118Y-100688259D01*
X156114486Y-100658700D01*
X156114481Y-100658700D01*
X155925519Y-100658700D01*
X155925514Y-100658700D01*
X155738881Y-100688259D01*
X155559163Y-100746654D01*
X155390800Y-100832440D01*
X155318174Y-100885207D01*
X155237927Y-100943510D01*
X155237925Y-100943512D01*
X155237924Y-100943512D01*
X155104312Y-101077124D01*
X155104312Y-101077125D01*
X155104310Y-101077127D01*
X155076721Y-101115100D01*
X154993240Y-101230000D01*
X154907454Y-101398363D01*
X154849059Y-101578081D01*
X154819500Y-101764713D01*
X154819500Y-101953686D01*
X154849059Y-102140318D01*
X154907454Y-102320036D01*
X154987126Y-102476400D01*
X154993240Y-102488399D01*
X155104310Y-102641273D01*
X155237927Y-102774890D01*
X155390801Y-102885960D01*
X155468075Y-102925333D01*
X155488647Y-102935815D01*
X155539443Y-102983790D01*
X155556238Y-103051611D01*
X155533701Y-103117746D01*
X155478985Y-103161197D01*
X155432352Y-103170300D01*
X137051280Y-103170300D01*
X136906292Y-103199140D01*
X136906282Y-103199143D01*
X136769711Y-103255712D01*
X136769698Y-103255719D01*
X136646784Y-103337848D01*
X136646780Y-103337851D01*
X134667708Y-105316922D01*
X134606385Y-105350407D01*
X134560629Y-105351714D01*
X134425427Y-105330300D01*
X134425422Y-105330300D01*
X134204978Y-105330300D01*
X134204973Y-105330300D01*
X134069769Y-105351714D01*
X134000475Y-105342759D01*
X133962690Y-105316922D01*
X130378421Y-101732652D01*
X130378414Y-101732646D01*
X130304729Y-101683412D01*
X130304729Y-101683413D01*
X130255491Y-101650513D01*
X130118917Y-101593943D01*
X130118907Y-101593940D01*
X129973920Y-101565100D01*
X129973918Y-101565100D01*
X127932934Y-101565100D01*
X127865895Y-101545415D01*
X127820140Y-101492611D01*
X127810196Y-101423453D01*
X127832616Y-101368215D01*
X127876170Y-101308266D01*
X127890887Y-101288010D01*
X127983820Y-101105619D01*
X128047077Y-100910934D01*
X128079100Y-100708752D01*
X128079100Y-100504048D01*
X128068251Y-100435552D01*
X128047077Y-100301865D01*
X127983818Y-100107176D01*
X127950103Y-100041007D01*
X127890887Y-99924790D01*
X127871716Y-99898403D01*
X127770571Y-99759186D01*
X127625813Y-99614428D01*
X127460214Y-99494115D01*
X127453606Y-99490748D01*
X127367517Y-99446883D01*
X127316723Y-99398911D01*
X127299928Y-99331090D01*
X127322465Y-99264955D01*
X127367517Y-99225916D01*
X127460210Y-99178687D01*
X127558899Y-99106986D01*
X127625813Y-99058371D01*
X127625815Y-99058368D01*
X127625819Y-99058366D01*
X127770566Y-98913619D01*
X127770568Y-98913615D01*
X127770571Y-98913613D01*
X127853097Y-98800024D01*
X127890887Y-98748010D01*
X127983820Y-98565619D01*
X128047077Y-98370934D01*
X128079100Y-98168752D01*
X128079100Y-97964048D01*
X128067665Y-97891849D01*
X128047077Y-97761865D01*
X127997146Y-97608194D01*
X127983820Y-97567181D01*
X127983818Y-97567178D01*
X127983818Y-97567176D01*
X127919471Y-97440890D01*
X127890887Y-97384790D01*
X127845197Y-97321902D01*
X127770571Y-97219186D01*
X127625813Y-97074428D01*
X127460213Y-96954115D01*
X127460212Y-96954114D01*
X127460210Y-96954113D01*
X127403253Y-96925091D01*
X127277823Y-96861181D01*
X127083134Y-96797922D01*
X126908595Y-96770278D01*
X126880952Y-96765900D01*
X126676248Y-96765900D01*
X126651929Y-96769751D01*
X126474065Y-96797922D01*
X126279376Y-96861181D01*
X126096986Y-96954115D01*
X125931386Y-97074428D01*
X125786628Y-97219186D01*
X125666315Y-97384786D01*
X125573381Y-97567176D01*
X125510122Y-97761865D01*
X125478100Y-97964048D01*
X125478100Y-98168751D01*
X125510122Y-98370934D01*
X125573381Y-98565623D01*
X125666315Y-98748013D01*
X125786628Y-98913613D01*
X125931386Y-99058371D01*
X126068097Y-99157695D01*
X126096990Y-99178687D01*
X126177210Y-99219561D01*
X126189680Y-99225915D01*
X126240476Y-99273890D01*
X126257271Y-99341711D01*
X126234734Y-99407846D01*
X126189680Y-99446885D01*
X126096986Y-99494115D01*
X125931386Y-99614428D01*
X125786628Y-99759186D01*
X125666315Y-99924786D01*
X125573381Y-100107176D01*
X125510122Y-100301865D01*
X125478100Y-100504048D01*
X125478100Y-100708751D01*
X125510122Y-100910934D01*
X125573381Y-101105623D01*
X125636755Y-101230000D01*
X125661989Y-101279524D01*
X125666315Y-101288013D01*
X125724584Y-101368215D01*
X125748064Y-101434022D01*
X125732238Y-101502075D01*
X125682132Y-101550770D01*
X125624266Y-101565100D01*
X117076625Y-101565100D01*
X117009586Y-101545415D01*
X116988944Y-101528781D01*
X116860075Y-101399912D01*
X116860073Y-101399910D01*
X116707199Y-101288840D01*
X116679607Y-101274781D01*
X116538836Y-101203054D01*
X116359118Y-101144659D01*
X116172486Y-101115100D01*
X116172481Y-101115100D01*
X115983519Y-101115100D01*
X115983514Y-101115100D01*
X115796881Y-101144659D01*
X115617163Y-101203054D01*
X115448800Y-101288840D01*
X115391753Y-101330288D01*
X115295927Y-101399910D01*
X115295925Y-101399912D01*
X115295924Y-101399912D01*
X115162312Y-101533524D01*
X115162312Y-101533525D01*
X115162310Y-101533527D01*
X115129939Y-101578082D01*
X115051240Y-101686400D01*
X114965454Y-101854763D01*
X114907059Y-102034481D01*
X114877500Y-102221113D01*
X110152656Y-102221113D01*
X110245203Y-102128566D01*
X110920548Y-101453219D01*
X110920547Y-101453219D01*
X110920551Y-101453216D01*
X111002684Y-101330295D01*
X111059258Y-101193713D01*
X111074528Y-101116946D01*
X111088100Y-101048720D01*
X111088100Y-101030188D01*
X111107785Y-100963149D01*
X111160589Y-100917394D01*
X111229747Y-100907450D01*
X111259547Y-100915625D01*
X111308473Y-100935891D01*
X111452533Y-100964546D01*
X111506592Y-100975299D01*
X111506596Y-100975300D01*
X111506597Y-100975300D01*
X111708604Y-100975300D01*
X111708605Y-100975299D01*
X111906727Y-100935891D01*
X112093356Y-100858586D01*
X112261318Y-100746358D01*
X112404158Y-100603518D01*
X112516386Y-100435556D01*
X112593691Y-100248927D01*
X112633100Y-100050803D01*
X112633100Y-99398797D01*
X112593691Y-99200673D01*
X112516386Y-99014044D01*
X112516384Y-99014041D01*
X112516382Y-99014037D01*
X112404158Y-98846081D01*
X112394419Y-98836342D01*
X112360934Y-98775019D01*
X112358100Y-98748661D01*
X112358100Y-98400879D01*
X112329259Y-98255892D01*
X112329258Y-98255891D01*
X112329258Y-98255887D01*
X112313738Y-98218419D01*
X112272687Y-98119311D01*
X112272680Y-98119298D01*
X112190551Y-97996384D01*
X112190548Y-97996380D01*
X112086019Y-97891851D01*
X112086015Y-97891848D01*
X111963101Y-97809719D01*
X111963088Y-97809712D01*
X111826517Y-97753143D01*
X111826507Y-97753140D01*
X111681520Y-97724300D01*
X111681518Y-97724300D01*
X106300230Y-97724300D01*
X106233191Y-97704615D01*
X106212549Y-97687981D01*
X105681619Y-97157051D01*
X105648134Y-97095728D01*
X105645300Y-97069370D01*
X105645300Y-96887113D01*
X105615740Y-96700481D01*
X105557345Y-96520763D01*
X105477773Y-96364595D01*
X105471560Y-96352401D01*
X105360490Y-96199527D01*
X105226873Y-96065910D01*
X105073999Y-95954840D01*
X104995799Y-95914995D01*
X104905636Y-95869054D01*
X104725918Y-95810659D01*
X104539286Y-95781100D01*
X104539281Y-95781100D01*
X104350319Y-95781100D01*
X104350314Y-95781100D01*
X104163681Y-95810659D01*
X103983963Y-95869054D01*
X103815600Y-95954840D01*
X103743835Y-96006981D01*
X103662727Y-96065910D01*
X103662725Y-96065912D01*
X103662724Y-96065912D01*
X103529112Y-96199524D01*
X103529112Y-96199525D01*
X103529110Y-96199527D01*
X103496739Y-96244082D01*
X103418040Y-96352400D01*
X103332254Y-96520763D01*
X103273859Y-96700481D01*
X103244300Y-96887113D01*
X101744900Y-96887113D01*
X101744900Y-85823513D01*
X103431500Y-85823513D01*
X103431500Y-86012486D01*
X103461059Y-86199118D01*
X103519454Y-86378836D01*
X103582016Y-86501619D01*
X103605240Y-86547199D01*
X103716310Y-86700073D01*
X103849927Y-86833690D01*
X104002801Y-86944760D01*
X104082347Y-86985290D01*
X104171163Y-87030545D01*
X104171165Y-87030545D01*
X104171168Y-87030547D01*
X104227037Y-87048700D01*
X104350881Y-87088940D01*
X104537514Y-87118500D01*
X104537519Y-87118500D01*
X104726486Y-87118500D01*
X104913118Y-87088940D01*
X104948203Y-87077540D01*
X105092832Y-87030547D01*
X105261199Y-86944760D01*
X105414073Y-86833690D01*
X105547690Y-86700073D01*
X105658760Y-86547199D01*
X105744547Y-86378832D01*
X105802940Y-86199118D01*
X105819879Y-86092171D01*
X105832500Y-86012486D01*
X105832500Y-85830229D01*
X105852185Y-85763190D01*
X105868819Y-85742548D01*
X106264549Y-85346819D01*
X106325872Y-85313334D01*
X106352230Y-85310500D01*
X109999971Y-85310500D01*
X110067010Y-85330185D01*
X110112765Y-85382989D01*
X110122709Y-85452147D01*
X110093684Y-85515703D01*
X110087652Y-85522181D01*
X108433847Y-87175984D01*
X108433845Y-87175986D01*
X108401240Y-87224787D01*
X108401238Y-87224790D01*
X108351719Y-87298899D01*
X108351712Y-87298911D01*
X108295143Y-87435482D01*
X108295140Y-87435492D01*
X108266300Y-87580479D01*
X108266300Y-87635934D01*
X108246615Y-87702973D01*
X108216612Y-87735200D01*
X108134252Y-87796855D01*
X108048006Y-87912064D01*
X108048002Y-87912071D01*
X107997708Y-88046917D01*
X107993065Y-88090107D01*
X107991300Y-88106527D01*
X107991300Y-88753619D01*
X107991301Y-89279900D01*
X107971616Y-89346939D01*
X107918813Y-89392694D01*
X107867301Y-89403900D01*
X105401676Y-89403900D01*
X105372842Y-89409634D01*
X105372843Y-89409635D01*
X105256693Y-89432739D01*
X105256689Y-89432740D01*
X105209137Y-89452437D01*
X105209131Y-89452439D01*
X105204298Y-89454442D01*
X105120105Y-89489316D01*
X105065259Y-89525963D01*
X105059497Y-89529812D01*
X105059491Y-89529816D01*
X104997186Y-89571447D01*
X104997182Y-89571450D01*
X104807451Y-89761181D01*
X104746128Y-89794666D01*
X104719770Y-89797500D01*
X104537514Y-89797500D01*
X104350881Y-89827059D01*
X104171163Y-89885454D01*
X104002800Y-89971240D01*
X103966810Y-89997389D01*
X103849927Y-90082310D01*
X103849925Y-90082312D01*
X103849924Y-90082312D01*
X103716312Y-90215924D01*
X103716312Y-90215925D01*
X103716310Y-90215927D01*
X103684078Y-90260290D01*
X103605240Y-90368800D01*
X103519454Y-90537163D01*
X103461059Y-90716881D01*
X103431500Y-90903513D01*
X103431500Y-91092486D01*
X103461059Y-91279118D01*
X103519454Y-91458836D01*
X103605240Y-91627199D01*
X103716310Y-91780073D01*
X103849927Y-91913690D01*
X104002801Y-92024760D01*
X104016263Y-92031619D01*
X104171163Y-92110545D01*
X104171165Y-92110545D01*
X104171168Y-92110547D01*
X104267497Y-92141846D01*
X104350881Y-92168940D01*
X104537514Y-92198500D01*
X104537519Y-92198500D01*
X104726486Y-92198500D01*
X104913118Y-92168940D01*
X105092832Y-92110547D01*
X105261199Y-92024760D01*
X105414073Y-91913690D01*
X105547690Y-91780073D01*
X105658760Y-91627199D01*
X105744547Y-91458832D01*
X105802940Y-91279118D01*
X105818816Y-91178881D01*
X105832500Y-91092486D01*
X105832500Y-91028900D01*
X105852185Y-90961861D01*
X105904989Y-90916106D01*
X105956500Y-90904900D01*
X110212882Y-90904900D01*
X110240400Y-90904900D01*
X110264593Y-90907282D01*
X110265182Y-90907400D01*
X114142620Y-90907400D01*
X114257897Y-90884469D01*
X114287613Y-90878558D01*
X114424195Y-90821984D01*
X114465665Y-90794274D01*
X114532339Y-90773398D01*
X114599719Y-90791882D01*
X114646409Y-90843860D01*
X114657326Y-90884502D01*
X114657537Y-90884469D01*
X114657852Y-90886459D01*
X114658170Y-90887643D01*
X114658298Y-90889278D01*
X114687859Y-91075918D01*
X114746254Y-91255636D01*
X114832040Y-91423999D01*
X114943110Y-91576873D01*
X115076727Y-91710490D01*
X115229601Y-91821560D01*
X115309147Y-91862090D01*
X115397963Y-91907345D01*
X115397965Y-91907345D01*
X115397968Y-91907347D01*
X115494297Y-91938646D01*
X115577681Y-91965740D01*
X115764314Y-91995300D01*
X115946571Y-91995300D01*
X116013610Y-92014985D01*
X116034252Y-92031619D01*
X117080281Y-93077648D01*
X117113766Y-93138971D01*
X117116600Y-93165329D01*
X117116600Y-93998296D01*
X117107162Y-94045744D01*
X117104869Y-94051282D01*
X117097362Y-94069406D01*
X117097360Y-94069411D01*
X117066600Y-94224053D01*
X117066600Y-94381746D01*
X117097361Y-94536389D01*
X117097364Y-94536401D01*
X117157702Y-94682072D01*
X117157709Y-94682085D01*
X117245310Y-94813188D01*
X117245313Y-94813192D01*
X117254495Y-94822374D01*
X117287980Y-94883697D01*
X117282996Y-94953389D01*
X117254495Y-94997736D01*
X116253451Y-95998781D01*
X116192128Y-96032266D01*
X116165770Y-96035100D01*
X115983514Y-96035100D01*
X115796881Y-96064659D01*
X115617163Y-96123054D01*
X115448800Y-96208840D01*
X115361579Y-96272210D01*
X115295927Y-96319910D01*
X115295925Y-96319912D01*
X115295924Y-96319912D01*
X115162312Y-96453524D01*
X115162312Y-96453525D01*
X115162310Y-96453527D01*
X115129939Y-96498082D01*
X115051240Y-96606400D01*
X114965454Y-96774763D01*
X114907059Y-96954481D01*
X114877500Y-97141113D01*
X114877500Y-97330086D01*
X114907059Y-97516718D01*
X114965454Y-97696436D01*
X115026526Y-97816295D01*
X115051240Y-97864799D01*
X115162310Y-98017673D01*
X115295927Y-98151290D01*
X115448801Y-98262360D01*
X115527021Y-98302215D01*
X115617163Y-98348145D01*
X115617165Y-98348145D01*
X115617168Y-98348147D01*
X115687299Y-98370934D01*
X115796881Y-98406540D01*
X115983514Y-98436100D01*
X115983519Y-98436100D01*
X116172486Y-98436100D01*
X116359118Y-98406540D01*
X116376531Y-98400882D01*
X116538832Y-98348147D01*
X116707199Y-98262360D01*
X116860073Y-98151290D01*
X116993690Y-98017673D01*
X117104760Y-97864799D01*
X117190547Y-97696432D01*
X117248940Y-97516718D01*
X117260950Y-97440890D01*
X117278500Y-97330086D01*
X117278500Y-97147828D01*
X117298185Y-97080789D01*
X117314819Y-97060147D01*
X118251913Y-96123054D01*
X119226751Y-95148216D01*
X119308884Y-95025295D01*
X119365458Y-94888713D01*
X119378654Y-94822374D01*
X119394300Y-94743720D01*
X119394300Y-90040979D01*
X119365459Y-89895992D01*
X119365458Y-89895991D01*
X119365458Y-89895987D01*
X119361095Y-89885453D01*
X119308887Y-89759411D01*
X119308880Y-89759398D01*
X119226751Y-89636484D01*
X119226748Y-89636480D01*
X119176349Y-89586082D01*
X119142863Y-89524759D01*
X119147847Y-89455068D01*
X119189718Y-89399134D01*
X119255182Y-89374716D01*
X119264029Y-89374400D01*
X119687370Y-89374400D01*
X119754409Y-89394085D01*
X119775051Y-89410719D01*
X121167614Y-90803281D01*
X122559148Y-92194815D01*
X122559149Y-92194816D01*
X122619673Y-92255340D01*
X122663685Y-92299352D01*
X122786598Y-92381480D01*
X122786611Y-92381487D01*
X122923182Y-92438056D01*
X122923187Y-92438058D01*
X122923191Y-92438058D01*
X122923192Y-92438059D01*
X123068179Y-92466900D01*
X123068182Y-92466900D01*
X125409298Y-92466900D01*
X125476337Y-92486585D01*
X125522092Y-92539389D01*
X125532036Y-92608547D01*
X125527229Y-92629219D01*
X125510122Y-92681865D01*
X125478100Y-92884048D01*
X125478100Y-93088751D01*
X125510122Y-93290934D01*
X125573381Y-93485623D01*
X125666315Y-93668013D01*
X125786628Y-93833613D01*
X125931386Y-93978371D01*
X126086349Y-94090956D01*
X126096990Y-94098687D01*
X126213207Y-94157903D01*
X126279376Y-94191618D01*
X126279378Y-94191618D01*
X126279381Y-94191620D01*
X126379215Y-94224058D01*
X126474065Y-94254877D01*
X126558164Y-94268197D01*
X126676248Y-94286900D01*
X126676249Y-94286900D01*
X126880951Y-94286900D01*
X126880952Y-94286900D01*
X127083134Y-94254877D01*
X127277819Y-94191620D01*
X127460210Y-94098687D01*
X127564440Y-94022960D01*
X127625813Y-93978371D01*
X127625815Y-93978368D01*
X127625819Y-93978366D01*
X127770566Y-93833619D01*
X127770568Y-93833615D01*
X127770571Y-93833613D01*
X127876909Y-93687249D01*
X127890887Y-93668010D01*
X127983820Y-93485619D01*
X128047077Y-93290934D01*
X128079100Y-93088752D01*
X128079100Y-92884048D01*
X128047077Y-92681866D01*
X128029971Y-92629219D01*
X128027976Y-92559377D01*
X128064056Y-92499544D01*
X128126757Y-92468716D01*
X128147902Y-92466900D01*
X143189298Y-92466900D01*
X143256337Y-92486585D01*
X143302092Y-92539389D01*
X143312036Y-92608547D01*
X143307229Y-92629219D01*
X143290122Y-92681865D01*
X143258100Y-92884048D01*
X143258100Y-93088751D01*
X143290122Y-93290934D01*
X143353381Y-93485623D01*
X143446315Y-93668013D01*
X143566628Y-93833613D01*
X143711386Y-93978371D01*
X143866349Y-94090956D01*
X143876990Y-94098687D01*
X143993207Y-94157903D01*
X144059376Y-94191618D01*
X144059378Y-94191618D01*
X144059381Y-94191620D01*
X144159215Y-94224058D01*
X144254065Y-94254877D01*
X144338164Y-94268197D01*
X144456248Y-94286900D01*
X144456249Y-94286900D01*
X144660950Y-94286900D01*
X144660952Y-94286900D01*
X144716627Y-94278081D01*
X144785919Y-94287035D01*
X144823706Y-94312873D01*
X145055581Y-94544748D01*
X145089066Y-94606071D01*
X145091900Y-94632429D01*
X145091900Y-95646870D01*
X145072215Y-95713909D01*
X145055581Y-95734551D01*
X144783151Y-96006981D01*
X144721828Y-96040466D01*
X144695470Y-96043300D01*
X143426580Y-96043300D01*
X143281592Y-96072140D01*
X143281586Y-96072142D01*
X143145004Y-96128716D01*
X143126072Y-96141366D01*
X143113914Y-96148524D01*
X143109357Y-96150868D01*
X143016321Y-96189406D01*
X142955615Y-96229968D01*
X142949330Y-96233202D01*
X142921678Y-96238507D01*
X142894812Y-96246920D01*
X142887826Y-96245003D01*
X142880712Y-96246369D01*
X142854581Y-96235883D01*
X142827432Y-96228435D01*
X142822591Y-96223046D01*
X142815868Y-96220348D01*
X142799556Y-96197400D01*
X142780743Y-96176456D01*
X142778902Y-96168345D01*
X142775387Y-96163400D01*
X142774764Y-96150108D01*
X142768600Y-96122940D01*
X142768600Y-93476400D01*
X128568600Y-93476400D01*
X128568600Y-97816295D01*
X133220657Y-101429063D01*
X133261531Y-101485727D01*
X133268600Y-101526997D01*
X133268600Y-102476400D01*
X138068600Y-102476400D01*
X138068600Y-101526997D01*
X138088285Y-101459958D01*
X138116541Y-101429064D01*
X142768600Y-97816295D01*
X142768600Y-97674660D01*
X142788285Y-97607621D01*
X142841089Y-97561866D01*
X142910247Y-97551922D01*
X142961491Y-97571558D01*
X143016321Y-97608194D01*
X143016323Y-97608195D01*
X143016327Y-97608197D01*
X143125582Y-97653451D01*
X143162003Y-97668537D01*
X143183606Y-97672834D01*
X143245516Y-97705216D01*
X143280092Y-97765931D01*
X143281889Y-97813849D01*
X143258100Y-97964048D01*
X143258100Y-98168751D01*
X143290122Y-98370934D01*
X143353381Y-98565623D01*
X143446315Y-98748013D01*
X143566628Y-98913613D01*
X143711386Y-99058371D01*
X143848097Y-99157695D01*
X143876990Y-99178687D01*
X143957210Y-99219561D01*
X143969680Y-99225915D01*
X144020476Y-99273890D01*
X144037271Y-99341711D01*
X144014734Y-99407846D01*
X143969680Y-99446885D01*
X143876986Y-99494115D01*
X143711386Y-99614428D01*
X143566628Y-99759186D01*
X143446315Y-99924786D01*
X143353381Y-100107176D01*
X143290122Y-100301865D01*
X143258100Y-100504048D01*
X143258100Y-100708751D01*
X143290122Y-100910934D01*
X143353381Y-101105623D01*
X143416755Y-101230000D01*
X143441989Y-101279524D01*
X143446315Y-101288013D01*
X143566628Y-101453613D01*
X143711386Y-101598371D01*
X143841592Y-101692969D01*
X143876990Y-101718687D01*
X143958087Y-101760008D01*
X144059376Y-101811618D01*
X144059378Y-101811618D01*
X144059381Y-101811620D01*
X144163737Y-101845527D01*
X144254065Y-101874877D01*
X144326300Y-101886318D01*
X144456248Y-101906900D01*
X144456249Y-101906900D01*
X144660951Y-101906900D01*
X144660952Y-101906900D01*
X144863134Y-101874877D01*
X145057819Y-101811620D01*
X145240210Y-101718687D01*
X145334044Y-101650513D01*
X145405813Y-101598371D01*
X145405815Y-101598368D01*
X145405819Y-101598366D01*
X145550566Y-101453619D01*
X145550568Y-101453615D01*
X145550571Y-101453613D01*
X145656170Y-101308266D01*
X145670887Y-101288010D01*
X145763820Y-101105619D01*
X145827077Y-100910934D01*
X145859100Y-100708752D01*
X145859100Y-100504048D01*
X145848251Y-100435552D01*
X145827077Y-100301865D01*
X145763818Y-100107176D01*
X145730103Y-100041007D01*
X145670887Y-99924790D01*
X145651716Y-99898403D01*
X145550571Y-99759186D01*
X145405813Y-99614428D01*
X145240214Y-99494115D01*
X145233606Y-99490748D01*
X145147517Y-99446883D01*
X145096723Y-99398911D01*
X145079928Y-99331090D01*
X145102465Y-99264955D01*
X145147517Y-99225916D01*
X145240210Y-99178687D01*
X145338899Y-99106986D01*
X145405813Y-99058371D01*
X145405815Y-99058368D01*
X145405819Y-99058366D01*
X145550566Y-98913619D01*
X145550568Y-98913615D01*
X145550571Y-98913613D01*
X145633097Y-98800024D01*
X145670887Y-98748010D01*
X145763820Y-98565619D01*
X145827077Y-98370934D01*
X145859100Y-98168752D01*
X145859100Y-97964048D01*
X145847665Y-97891849D01*
X145827077Y-97761865D01*
X145777146Y-97608194D01*
X145763820Y-97567181D01*
X145763818Y-97567178D01*
X145763818Y-97567176D01*
X145679370Y-97401439D01*
X145670887Y-97384790D01*
X145670883Y-97384784D01*
X145668344Y-97380641D01*
X145670107Y-97379560D01*
X145649559Y-97321902D01*
X145665409Y-97253854D01*
X145685674Y-97227192D01*
X146146967Y-96765900D01*
X146228154Y-96684713D01*
X154819500Y-96684713D01*
X154819500Y-96873686D01*
X154849059Y-97060318D01*
X154907454Y-97240036D01*
X154981211Y-97384790D01*
X154993240Y-97408399D01*
X155104310Y-97561273D01*
X155237927Y-97694890D01*
X155390801Y-97805960D01*
X155411083Y-97816294D01*
X155559163Y-97891745D01*
X155559165Y-97891745D01*
X155559168Y-97891747D01*
X155655497Y-97923046D01*
X155738881Y-97950140D01*
X155925514Y-97979700D01*
X155925519Y-97979700D01*
X156114486Y-97979700D01*
X156301118Y-97950140D01*
X156480832Y-97891747D01*
X156649199Y-97805960D01*
X156802073Y-97694890D01*
X156935690Y-97561273D01*
X157046760Y-97408399D01*
X157132547Y-97240032D01*
X157190940Y-97060318D01*
X157218373Y-96887113D01*
X157220500Y-96873686D01*
X157220500Y-96684713D01*
X157190940Y-96498081D01*
X157143605Y-96352401D01*
X157132547Y-96318368D01*
X157132545Y-96318365D01*
X157132545Y-96318363D01*
X157076740Y-96208840D01*
X157046760Y-96150001D01*
X156935690Y-95997127D01*
X156802073Y-95863510D01*
X156649199Y-95752440D01*
X156614090Y-95734551D01*
X156480836Y-95666654D01*
X156301118Y-95608259D01*
X156114486Y-95578700D01*
X156114481Y-95578700D01*
X155925519Y-95578700D01*
X155925514Y-95578700D01*
X155738881Y-95608259D01*
X155559163Y-95666654D01*
X155390800Y-95752440D01*
X155320467Y-95803541D01*
X155237927Y-95863510D01*
X155237925Y-95863512D01*
X155237924Y-95863512D01*
X155104312Y-95997124D01*
X155104312Y-95997125D01*
X155104310Y-95997127D01*
X155097151Y-96006981D01*
X154993240Y-96150000D01*
X154907454Y-96318363D01*
X154849059Y-96498081D01*
X154819500Y-96684713D01*
X146228154Y-96684713D01*
X146320702Y-96592166D01*
X146425348Y-96487519D01*
X146425351Y-96487516D01*
X146507484Y-96364595D01*
X146564058Y-96228013D01*
X146584936Y-96123054D01*
X146592900Y-96083020D01*
X146592900Y-94196279D01*
X146564059Y-94051292D01*
X146564058Y-94051291D01*
X146564058Y-94051287D01*
X146552325Y-94022960D01*
X146507487Y-93914711D01*
X146507480Y-93914698D01*
X146425352Y-93791785D01*
X146425351Y-93791784D01*
X146320816Y-93687249D01*
X145885073Y-93251506D01*
X145851588Y-93190183D01*
X145850281Y-93144428D01*
X145859100Y-93088752D01*
X145859100Y-92884048D01*
X145827077Y-92681866D01*
X145809971Y-92629219D01*
X145807976Y-92559377D01*
X145844056Y-92499544D01*
X145906757Y-92468716D01*
X145927902Y-92466900D01*
X155258720Y-92466900D01*
X155356262Y-92447496D01*
X155403713Y-92438058D01*
X155540295Y-92381484D01*
X155589529Y-92348586D01*
X155653573Y-92305795D01*
X155701945Y-92290651D01*
X155720249Y-92284920D01*
X155722460Y-92284900D01*
X155911286Y-92284900D01*
X156097918Y-92255340D01*
X156277632Y-92196947D01*
X156445999Y-92111160D01*
X156598873Y-92000090D01*
X156732490Y-91866473D01*
X156843560Y-91713599D01*
X156929347Y-91545232D01*
X156987740Y-91365518D01*
X157017300Y-91178886D01*
X157017300Y-91173700D01*
X157036985Y-91106661D01*
X157089789Y-91060906D01*
X157141300Y-91049700D01*
X161275520Y-91049700D01*
X161380084Y-91028900D01*
X161420513Y-91020858D01*
X161495221Y-90989913D01*
X165639900Y-90989913D01*
X165639900Y-91178886D01*
X165669459Y-91365518D01*
X165727854Y-91545236D01*
X165769617Y-91627199D01*
X165813640Y-91713599D01*
X165924710Y-91866473D01*
X166058327Y-92000090D01*
X166211201Y-92111160D01*
X166290747Y-92151690D01*
X166379563Y-92196945D01*
X166379565Y-92196945D01*
X166379568Y-92196947D01*
X166475897Y-92228246D01*
X166559281Y-92255340D01*
X166745914Y-92284900D01*
X166745919Y-92284900D01*
X166934886Y-92284900D01*
X167121518Y-92255340D01*
X167301232Y-92196947D01*
X167469599Y-92111160D01*
X167622473Y-92000090D01*
X167756090Y-91866473D01*
X167867160Y-91713599D01*
X167952947Y-91545232D01*
X168011340Y-91365518D01*
X168040900Y-91178886D01*
X168040900Y-90989913D01*
X168011340Y-90803281D01*
X167963061Y-90654695D01*
X167952947Y-90623568D01*
X167952945Y-90623565D01*
X167952945Y-90623563D01*
X167896957Y-90513681D01*
X167867160Y-90455201D01*
X167756090Y-90302327D01*
X167622473Y-90168710D01*
X167469599Y-90057640D01*
X167436900Y-90040979D01*
X167301236Y-89971854D01*
X167121518Y-89913459D01*
X166934886Y-89883900D01*
X166934881Y-89883900D01*
X166745919Y-89883900D01*
X166745914Y-89883900D01*
X166559281Y-89913459D01*
X166379563Y-89971854D01*
X166211200Y-90057640D01*
X166123979Y-90121010D01*
X166058327Y-90168710D01*
X166058325Y-90168712D01*
X166058324Y-90168712D01*
X165924712Y-90302324D01*
X165924712Y-90302325D01*
X165924710Y-90302327D01*
X165894398Y-90344048D01*
X165813640Y-90455200D01*
X165727854Y-90623563D01*
X165669459Y-90803281D01*
X165639900Y-90989913D01*
X161495221Y-90989913D01*
X161557095Y-90964284D01*
X161561465Y-90961364D01*
X161680015Y-90882152D01*
X161680019Y-90882148D01*
X161784550Y-90777618D01*
X161784551Y-90777616D01*
X161866684Y-90654695D01*
X161923258Y-90518113D01*
X161935772Y-90455201D01*
X161952100Y-90373120D01*
X161952100Y-90354588D01*
X161971785Y-90287549D01*
X162024589Y-90241794D01*
X162093747Y-90231850D01*
X162123547Y-90240025D01*
X162172473Y-90260291D01*
X162370592Y-90299699D01*
X162370596Y-90299700D01*
X162370597Y-90299700D01*
X162572604Y-90299700D01*
X162572605Y-90299699D01*
X162770727Y-90260291D01*
X162957356Y-90182986D01*
X163125318Y-90070758D01*
X163268158Y-89927918D01*
X163380386Y-89759956D01*
X163457691Y-89573327D01*
X163497100Y-89375203D01*
X163497100Y-88723197D01*
X163457691Y-88525073D01*
X163380386Y-88338444D01*
X163380384Y-88338441D01*
X163380382Y-88338437D01*
X163268158Y-88170481D01*
X163258419Y-88160742D01*
X163224934Y-88099419D01*
X163222100Y-88073061D01*
X163222100Y-87725279D01*
X163193259Y-87580292D01*
X163193258Y-87580291D01*
X163193258Y-87580287D01*
X163193256Y-87580282D01*
X163136687Y-87443711D01*
X163136680Y-87443698D01*
X163054551Y-87320784D01*
X163054548Y-87320780D01*
X162950019Y-87216251D01*
X162950015Y-87216248D01*
X162827101Y-87134119D01*
X162827088Y-87134112D01*
X162690517Y-87077543D01*
X162690507Y-87077540D01*
X162545520Y-87048700D01*
X162545518Y-87048700D01*
X157973829Y-87048700D01*
X157906790Y-87029015D01*
X157886148Y-87012381D01*
X157188297Y-86314528D01*
X157188274Y-86314507D01*
X157053619Y-86179852D01*
X157020134Y-86118529D01*
X157017300Y-86092171D01*
X157017300Y-85909913D01*
X165639900Y-85909913D01*
X165639900Y-86098886D01*
X165669459Y-86285518D01*
X165727854Y-86465236D01*
X165799527Y-86605900D01*
X165813640Y-86633599D01*
X165924710Y-86786473D01*
X166058327Y-86920090D01*
X166211201Y-87031160D01*
X166290747Y-87071690D01*
X166379563Y-87116945D01*
X166379565Y-87116945D01*
X166379568Y-87116947D01*
X166473449Y-87147451D01*
X166559281Y-87175340D01*
X166745914Y-87204900D01*
X166745919Y-87204900D01*
X166934886Y-87204900D01*
X167121518Y-87175340D01*
X167301232Y-87116947D01*
X167469599Y-87031160D01*
X167622473Y-86920090D01*
X167756090Y-86786473D01*
X167867160Y-86633599D01*
X167952947Y-86465232D01*
X168011340Y-86285518D01*
X168022728Y-86213619D01*
X168040900Y-86098886D01*
X168040900Y-85909913D01*
X168011340Y-85723281D01*
X167963439Y-85575859D01*
X167952947Y-85543568D01*
X167952945Y-85543565D01*
X167952945Y-85543563D01*
X167906366Y-85452147D01*
X167867160Y-85375201D01*
X167756090Y-85222327D01*
X167622473Y-85088710D01*
X167469599Y-84977640D01*
X167301236Y-84891854D01*
X167121518Y-84833459D01*
X166934886Y-84803900D01*
X166934881Y-84803900D01*
X166745919Y-84803900D01*
X166745914Y-84803900D01*
X166559281Y-84833459D01*
X166379563Y-84891854D01*
X166211200Y-84977640D01*
X166139497Y-85029736D01*
X166058327Y-85088710D01*
X166058325Y-85088712D01*
X166058324Y-85088712D01*
X165924712Y-85222324D01*
X165924712Y-85222325D01*
X165924710Y-85222327D01*
X165922801Y-85224955D01*
X165813640Y-85375200D01*
X165727854Y-85543563D01*
X165669459Y-85723281D01*
X165639900Y-85909913D01*
X157017300Y-85909913D01*
X156987740Y-85723281D01*
X156939839Y-85575859D01*
X156929347Y-85543568D01*
X156929345Y-85543565D01*
X156929345Y-85543563D01*
X156882766Y-85452147D01*
X156843560Y-85375201D01*
X156758081Y-85257550D01*
X156734602Y-85191744D01*
X156734400Y-85184665D01*
X156734400Y-84926579D01*
X156705559Y-84781592D01*
X156705558Y-84781591D01*
X156705558Y-84781587D01*
X156700338Y-84768984D01*
X156648987Y-84645011D01*
X156648980Y-84644998D01*
X156566851Y-84522084D01*
X156566848Y-84522080D01*
X156520904Y-84476137D01*
X156520901Y-84476132D01*
X156316020Y-84271251D01*
X156237197Y-84218584D01*
X156237196Y-84218583D01*
X156193101Y-84189119D01*
X156193088Y-84189112D01*
X156056517Y-84132543D01*
X156056507Y-84132540D01*
X155911520Y-84103700D01*
X155911518Y-84103700D01*
X149519130Y-84103700D01*
X149452091Y-84084015D01*
X149431449Y-84067381D01*
X148877521Y-83513452D01*
X148877514Y-83513446D01*
X148803829Y-83464212D01*
X148803829Y-83464213D01*
X148754591Y-83431313D01*
X148618017Y-83374743D01*
X148618007Y-83374740D01*
X148473020Y-83345900D01*
X148473018Y-83345900D01*
X132206782Y-83345900D01*
X132206776Y-83345900D01*
X132177942Y-83351634D01*
X132177943Y-83351635D01*
X132061793Y-83374739D01*
X132061783Y-83374742D01*
X131981781Y-83407879D01*
X131981782Y-83407880D01*
X131925205Y-83431315D01*
X131843072Y-83486195D01*
X131802285Y-83513447D01*
X131802281Y-83513450D01*
X131364804Y-83950927D01*
X131324578Y-83977806D01*
X131300926Y-83987603D01*
X131300914Y-83987609D01*
X131169811Y-84075210D01*
X131169807Y-84075213D01*
X131058313Y-84186707D01*
X131058310Y-84186711D01*
X130970709Y-84317814D01*
X130970702Y-84317827D01*
X130910364Y-84463498D01*
X130910361Y-84463510D01*
X130879600Y-84618153D01*
X130879600Y-84775846D01*
X130910361Y-84930489D01*
X130910364Y-84930501D01*
X130970702Y-85076172D01*
X130970709Y-85076185D01*
X131058310Y-85207288D01*
X131058313Y-85207292D01*
X131169807Y-85318786D01*
X131169811Y-85318789D01*
X131300914Y-85406390D01*
X131300927Y-85406397D01*
X131411379Y-85452147D01*
X131446603Y-85466737D01*
X131601253Y-85497499D01*
X131601256Y-85497500D01*
X131601258Y-85497500D01*
X131758944Y-85497500D01*
X131758945Y-85497499D01*
X131913597Y-85466737D01*
X132059279Y-85406394D01*
X132190389Y-85318789D01*
X132301889Y-85207289D01*
X132389494Y-85076179D01*
X132399292Y-85052521D01*
X132403923Y-85045590D01*
X132405021Y-85040546D01*
X132426165Y-85012300D01*
X132555249Y-84883217D01*
X132616572Y-84849734D01*
X132642929Y-84846900D01*
X143189298Y-84846900D01*
X143256337Y-84866585D01*
X143302092Y-84919389D01*
X143312036Y-84988547D01*
X143307229Y-85009219D01*
X143290122Y-85061865D01*
X143258100Y-85264048D01*
X143258100Y-85468751D01*
X143290122Y-85670934D01*
X143353381Y-85865623D01*
X143446315Y-86048013D01*
X143566628Y-86213613D01*
X143711386Y-86358371D01*
X143806835Y-86427717D01*
X143876990Y-86478687D01*
X143921997Y-86501619D01*
X143969680Y-86525915D01*
X144020476Y-86573890D01*
X144037271Y-86641711D01*
X144014734Y-86707846D01*
X143969680Y-86746885D01*
X143876986Y-86794115D01*
X143711386Y-86914428D01*
X143566628Y-87059186D01*
X143446315Y-87224786D01*
X143353381Y-87407176D01*
X143290122Y-87601865D01*
X143263395Y-87770617D01*
X143258100Y-87804048D01*
X143258100Y-88008752D01*
X143262478Y-88036395D01*
X143290122Y-88210934D01*
X143353381Y-88405623D01*
X143446315Y-88588013D01*
X143566628Y-88753613D01*
X143711386Y-88898371D01*
X143823170Y-88979585D01*
X143876990Y-89018687D01*
X143968440Y-89065283D01*
X143969680Y-89065915D01*
X144020476Y-89113890D01*
X144037271Y-89181711D01*
X144014734Y-89247846D01*
X143969680Y-89286885D01*
X143876986Y-89334115D01*
X143711386Y-89454428D01*
X143566628Y-89599186D01*
X143446315Y-89764786D01*
X143353381Y-89947176D01*
X143290122Y-90141865D01*
X143258100Y-90344048D01*
X143258100Y-90548751D01*
X143290122Y-90750934D01*
X143307229Y-90803581D01*
X143309224Y-90873423D01*
X143273144Y-90933256D01*
X143210443Y-90964084D01*
X143189298Y-90965900D01*
X128147902Y-90965900D01*
X128080863Y-90946215D01*
X128035108Y-90893411D01*
X128025164Y-90824253D01*
X128029971Y-90803581D01*
X128047077Y-90750934D01*
X128067250Y-90623568D01*
X128079100Y-90548752D01*
X128079100Y-90344048D01*
X128062904Y-90241794D01*
X128047077Y-90141865D01*
X128005117Y-90012727D01*
X127983820Y-89947181D01*
X127983818Y-89947178D01*
X127983818Y-89947176D01*
X127922615Y-89827060D01*
X127890887Y-89764790D01*
X127855622Y-89716251D01*
X127770571Y-89599186D01*
X127625813Y-89454428D01*
X127460214Y-89334115D01*
X127412473Y-89309790D01*
X127367517Y-89286883D01*
X127316723Y-89238911D01*
X127299928Y-89171090D01*
X127322465Y-89104955D01*
X127367517Y-89065916D01*
X127460210Y-89018687D01*
X127532354Y-88966272D01*
X127625813Y-88898371D01*
X127625815Y-88898368D01*
X127625819Y-88898366D01*
X127770566Y-88753619D01*
X127770568Y-88753615D01*
X127770571Y-88753613D01*
X127834264Y-88665946D01*
X127890887Y-88588010D01*
X127983820Y-88405619D01*
X128047077Y-88210934D01*
X128079100Y-88008752D01*
X128079100Y-87804048D01*
X128073805Y-87770617D01*
X128047077Y-87601865D01*
X127995685Y-87443698D01*
X127983820Y-87407181D01*
X127983818Y-87407178D01*
X127983818Y-87407176D01*
X127939796Y-87320780D01*
X127890887Y-87224790D01*
X127872000Y-87198794D01*
X127770571Y-87059186D01*
X127625813Y-86914428D01*
X127460214Y-86794115D01*
X127445216Y-86786473D01*
X127367517Y-86746883D01*
X127316723Y-86698911D01*
X127299928Y-86631090D01*
X127322465Y-86564955D01*
X127367517Y-86525916D01*
X127460210Y-86478687D01*
X127530365Y-86427717D01*
X127625813Y-86358371D01*
X127625815Y-86358368D01*
X127625819Y-86358366D01*
X127770566Y-86213619D01*
X127770568Y-86213615D01*
X127770571Y-86213613D01*
X127839652Y-86118529D01*
X127890887Y-86048010D01*
X127983820Y-85865619D01*
X128047077Y-85670934D01*
X128079100Y-85468752D01*
X128079100Y-85264048D01*
X128047077Y-85061866D01*
X128036637Y-85029736D01*
X128004394Y-84930501D01*
X127983820Y-84867181D01*
X127983818Y-84867178D01*
X127983818Y-84867176D01*
X127940210Y-84781592D01*
X127890887Y-84684790D01*
X127861977Y-84644998D01*
X127770571Y-84519186D01*
X127625813Y-84374428D01*
X127460213Y-84254115D01*
X127460212Y-84254114D01*
X127460210Y-84254113D01*
X127390479Y-84218583D01*
X127277823Y-84161181D01*
X127083134Y-84097922D01*
X126908595Y-84070278D01*
X126880952Y-84065900D01*
X126676248Y-84065900D01*
X126651929Y-84069751D01*
X126474065Y-84097922D01*
X126279376Y-84161181D01*
X126096986Y-84254115D01*
X125931386Y-84374428D01*
X125786628Y-84519186D01*
X125666315Y-84684786D01*
X125573381Y-84867176D01*
X125510122Y-85061865D01*
X125478100Y-85264048D01*
X125478100Y-85468751D01*
X125510122Y-85670934D01*
X125573381Y-85865623D01*
X125666315Y-86048013D01*
X125786628Y-86213613D01*
X125931386Y-86358371D01*
X126026835Y-86427717D01*
X126096990Y-86478687D01*
X126141997Y-86501619D01*
X126189680Y-86525915D01*
X126240476Y-86573890D01*
X126257271Y-86641711D01*
X126234734Y-86707846D01*
X126189680Y-86746885D01*
X126096986Y-86794115D01*
X125931386Y-86914428D01*
X125786632Y-87059182D01*
X125786628Y-87059187D01*
X125753500Y-87104785D01*
X125698171Y-87147451D01*
X125653182Y-87155900D01*
X124500280Y-87155900D01*
X124355292Y-87184740D01*
X124355282Y-87184743D01*
X124218711Y-87241312D01*
X124218698Y-87241319D01*
X124095784Y-87323448D01*
X124095780Y-87323451D01*
X123564904Y-87854327D01*
X123524678Y-87881206D01*
X123501026Y-87891003D01*
X123501014Y-87891009D01*
X123369911Y-87978610D01*
X123369907Y-87978613D01*
X123258413Y-88090107D01*
X123258410Y-88090111D01*
X123170809Y-88221214D01*
X123170802Y-88221227D01*
X123110464Y-88366898D01*
X123110461Y-88366910D01*
X123079700Y-88521553D01*
X123079700Y-88679246D01*
X123110461Y-88833889D01*
X123110464Y-88833901D01*
X123170802Y-88979572D01*
X123170809Y-88979585D01*
X123258410Y-89110688D01*
X123258413Y-89110692D01*
X123369907Y-89222186D01*
X123369911Y-89222189D01*
X123501014Y-89309790D01*
X123501027Y-89309797D01*
X123646698Y-89370135D01*
X123646703Y-89370137D01*
X123760104Y-89392694D01*
X123801353Y-89400899D01*
X123801356Y-89400900D01*
X123801358Y-89400900D01*
X123959044Y-89400900D01*
X123959045Y-89400899D01*
X124113697Y-89370137D01*
X124259379Y-89309794D01*
X124390489Y-89222189D01*
X124501989Y-89110689D01*
X124589594Y-88979579D01*
X124599392Y-88955921D01*
X124626267Y-88915698D01*
X124848749Y-88693216D01*
X124910071Y-88659734D01*
X124936429Y-88656900D01*
X125653182Y-88656900D01*
X125720221Y-88676585D01*
X125753500Y-88708015D01*
X125786628Y-88753612D01*
X125786632Y-88753617D01*
X125931386Y-88898371D01*
X126043170Y-88979585D01*
X126096990Y-89018687D01*
X126188440Y-89065283D01*
X126189680Y-89065915D01*
X126240476Y-89113890D01*
X126257271Y-89181711D01*
X126234734Y-89247846D01*
X126189680Y-89286885D01*
X126096986Y-89334115D01*
X125931386Y-89454428D01*
X125786628Y-89599186D01*
X125666315Y-89764786D01*
X125573381Y-89947176D01*
X125510122Y-90141865D01*
X125478100Y-90344048D01*
X125478100Y-90548751D01*
X125510122Y-90750934D01*
X125527229Y-90803581D01*
X125529224Y-90873423D01*
X125493144Y-90933256D01*
X125430443Y-90964084D01*
X125409298Y-90965900D01*
X123504329Y-90965900D01*
X123437290Y-90946215D01*
X123416648Y-90929581D01*
X120528021Y-88040952D01*
X120528014Y-88040946D01*
X120437275Y-87980317D01*
X120437274Y-87980317D01*
X120405100Y-87958819D01*
X120405088Y-87958812D01*
X120268517Y-87902243D01*
X120268507Y-87902240D01*
X120123520Y-87873400D01*
X120123518Y-87873400D01*
X117519282Y-87873400D01*
X117519280Y-87873400D01*
X117374292Y-87902240D01*
X117374282Y-87902243D01*
X117237711Y-87958812D01*
X117237699Y-87958819D01*
X117205526Y-87980317D01*
X117181902Y-87996102D01*
X117115224Y-88016980D01*
X117113011Y-88017000D01*
X116576930Y-88017000D01*
X116509891Y-87997315D01*
X116464136Y-87944511D01*
X116454192Y-87875353D01*
X116483217Y-87811797D01*
X116489249Y-87805319D01*
X117025950Y-87268618D01*
X117607352Y-86687216D01*
X117645254Y-86630490D01*
X117661683Y-86605902D01*
X117661684Y-86605900D01*
X117689484Y-86564295D01*
X117746058Y-86427713D01*
X117767714Y-86318846D01*
X117774900Y-86282720D01*
X117774900Y-85173479D01*
X117746059Y-85028492D01*
X117746058Y-85028491D01*
X117746058Y-85028487D01*
X117735215Y-85002310D01*
X117689487Y-84891911D01*
X117689480Y-84891898D01*
X117607352Y-84768985D01*
X117555867Y-84717500D01*
X117502816Y-84664449D01*
X117357548Y-84519181D01*
X116815421Y-83977052D01*
X116815414Y-83977046D01*
X116741005Y-83927328D01*
X116740906Y-83927263D01*
X116692495Y-83894916D01*
X116692494Y-83894915D01*
X116692492Y-83894914D01*
X116555917Y-83838343D01*
X116555907Y-83838340D01*
X116410920Y-83809500D01*
X116410918Y-83809500D01*
X105916082Y-83809500D01*
X105916080Y-83809500D01*
X105771092Y-83838340D01*
X105771082Y-83838343D01*
X105634508Y-83894914D01*
X105634505Y-83894915D01*
X105634505Y-83894916D01*
X105586094Y-83927263D01*
X105586093Y-83927262D01*
X105511589Y-83977044D01*
X105511581Y-83977050D01*
X104807450Y-84681181D01*
X104746127Y-84714666D01*
X104719769Y-84717500D01*
X104537514Y-84717500D01*
X104350881Y-84747059D01*
X104171163Y-84805454D01*
X104002800Y-84891240D01*
X103948763Y-84930501D01*
X103849927Y-85002310D01*
X103849925Y-85002312D01*
X103849924Y-85002312D01*
X103716312Y-85135924D01*
X103716312Y-85135925D01*
X103716310Y-85135927D01*
X103689027Y-85173479D01*
X103605240Y-85288800D01*
X103519454Y-85457163D01*
X103461059Y-85636881D01*
X103431500Y-85823513D01*
X101744900Y-85823513D01*
X101744900Y-79459113D01*
X103447500Y-79459113D01*
X103447500Y-79648086D01*
X103477059Y-79834718D01*
X103535454Y-80014436D01*
X103612548Y-80165740D01*
X103621240Y-80182799D01*
X103732310Y-80335673D01*
X103865927Y-80469290D01*
X104018801Y-80580360D01*
X104039554Y-80590934D01*
X104187163Y-80666145D01*
X104187165Y-80666145D01*
X104187168Y-80666147D01*
X104283497Y-80697446D01*
X104366881Y-80724540D01*
X104553514Y-80754100D01*
X104553519Y-80754100D01*
X104742486Y-80754100D01*
X104929118Y-80724540D01*
X105108832Y-80666147D01*
X105277199Y-80580360D01*
X105430073Y-80469290D01*
X105558944Y-80340419D01*
X105620267Y-80306934D01*
X105646625Y-80304100D01*
X109226720Y-80304100D01*
X109324262Y-80284696D01*
X109371713Y-80275258D01*
X109508295Y-80218684D01*
X109562001Y-80182799D01*
X109562001Y-80182798D01*
X109562003Y-80182798D01*
X109596608Y-80159675D01*
X109631216Y-80136552D01*
X110190018Y-79577750D01*
X110308655Y-79459113D01*
X115080700Y-79459113D01*
X115080700Y-79648086D01*
X115110259Y-79834718D01*
X115168654Y-80014436D01*
X115245748Y-80165740D01*
X115254440Y-80182799D01*
X115365510Y-80335673D01*
X115499127Y-80469290D01*
X115652001Y-80580360D01*
X115672754Y-80590934D01*
X115820363Y-80666145D01*
X115820365Y-80666145D01*
X115820368Y-80666147D01*
X115916697Y-80697446D01*
X116000081Y-80724540D01*
X116186714Y-80754100D01*
X116186719Y-80754100D01*
X116375686Y-80754100D01*
X116562318Y-80724540D01*
X116742032Y-80666147D01*
X116910399Y-80580360D01*
X117063273Y-80469290D01*
X117196890Y-80335673D01*
X117307960Y-80182799D01*
X117393747Y-80014432D01*
X117452140Y-79834718D01*
X117460550Y-79781619D01*
X117481700Y-79648086D01*
X117481700Y-79459113D01*
X117452140Y-79272481D01*
X117393745Y-79092763D01*
X117322985Y-78953890D01*
X117307960Y-78924401D01*
X117196890Y-78771527D01*
X117063273Y-78637910D01*
X116910399Y-78526840D01*
X116742036Y-78441054D01*
X116562318Y-78382659D01*
X116375686Y-78353100D01*
X116375681Y-78353100D01*
X116186719Y-78353100D01*
X116186714Y-78353100D01*
X116000081Y-78382659D01*
X115820363Y-78441054D01*
X115652000Y-78526840D01*
X115586400Y-78574502D01*
X115499127Y-78637910D01*
X115499125Y-78637912D01*
X115499124Y-78637912D01*
X115365512Y-78771524D01*
X115365512Y-78771525D01*
X115365510Y-78771527D01*
X115356873Y-78783415D01*
X115254440Y-78924400D01*
X115168654Y-79092763D01*
X115110259Y-79272481D01*
X115080700Y-79459113D01*
X110308655Y-79459113D01*
X110401202Y-79366566D01*
X110920548Y-78847219D01*
X110920547Y-78847219D01*
X110920551Y-78847216D01*
X111002684Y-78724295D01*
X111007081Y-78713681D01*
X111038466Y-78637910D01*
X111059258Y-78587713D01*
X111088100Y-78442718D01*
X111088100Y-78424188D01*
X111107785Y-78357149D01*
X111160589Y-78311394D01*
X111229747Y-78301450D01*
X111259547Y-78309625D01*
X111308473Y-78329891D01*
X111474377Y-78362891D01*
X111506592Y-78369299D01*
X111506596Y-78369300D01*
X111506597Y-78369300D01*
X111708604Y-78369300D01*
X111708605Y-78369299D01*
X111906727Y-78329891D01*
X112093356Y-78252586D01*
X112261318Y-78140358D01*
X112404158Y-77997518D01*
X112516386Y-77829556D01*
X112593691Y-77642927D01*
X112633100Y-77444803D01*
X112633100Y-76792797D01*
X112593691Y-76594673D01*
X112516386Y-76408044D01*
X112516384Y-76408041D01*
X112516382Y-76408037D01*
X112404158Y-76240081D01*
X112261318Y-76097241D01*
X112093362Y-75985017D01*
X112093352Y-75985012D01*
X111906727Y-75907709D01*
X111906719Y-75907707D01*
X111708607Y-75868300D01*
X111708603Y-75868300D01*
X111506597Y-75868300D01*
X111506592Y-75868300D01*
X111308480Y-75907707D01*
X111308472Y-75907709D01*
X111121844Y-75985013D01*
X111041491Y-76038704D01*
X110974813Y-76059582D01*
X110907433Y-76041097D01*
X110903709Y-76038704D01*
X110823355Y-75985013D01*
X110636727Y-75907709D01*
X110636719Y-75907707D01*
X110438607Y-75868300D01*
X110438603Y-75868300D01*
X110428829Y-75868300D01*
X110361790Y-75848615D01*
X110316035Y-75795811D01*
X110306091Y-75726653D01*
X110335116Y-75663097D01*
X110341148Y-75656619D01*
X110459001Y-75538767D01*
X110737349Y-75260419D01*
X110798672Y-75226934D01*
X110825030Y-75224100D01*
X115282575Y-75224100D01*
X115349614Y-75243785D01*
X115370256Y-75260419D01*
X115499127Y-75389290D01*
X115652001Y-75500360D01*
X115727379Y-75538767D01*
X115820363Y-75586145D01*
X115820365Y-75586145D01*
X115820368Y-75586147D01*
X115871950Y-75602907D01*
X116000081Y-75644540D01*
X116186714Y-75674100D01*
X116186719Y-75674100D01*
X116375686Y-75674100D01*
X116562318Y-75644540D01*
X116587601Y-75636325D01*
X116742032Y-75586147D01*
X116910399Y-75500360D01*
X117063273Y-75389290D01*
X117196890Y-75255673D01*
X117307960Y-75102799D01*
X117393747Y-74934432D01*
X117452140Y-74754718D01*
X117460550Y-74701619D01*
X117481700Y-74568086D01*
X117481700Y-74379113D01*
X117452140Y-74192481D01*
X117393745Y-74012763D01*
X117322985Y-73873890D01*
X117307960Y-73844401D01*
X117196890Y-73691527D01*
X117063273Y-73557910D01*
X116910399Y-73446840D01*
X116742036Y-73361054D01*
X116562318Y-73302659D01*
X116375686Y-73273100D01*
X116375681Y-73273100D01*
X116186719Y-73273100D01*
X116186714Y-73273100D01*
X116000081Y-73302659D01*
X115820363Y-73361054D01*
X115652000Y-73446840D01*
X115564779Y-73510210D01*
X115499127Y-73557910D01*
X115499125Y-73557912D01*
X115499124Y-73557912D01*
X115370256Y-73686781D01*
X115308933Y-73720266D01*
X115282575Y-73723100D01*
X110388880Y-73723100D01*
X110243892Y-73751940D01*
X110243882Y-73751943D01*
X110107309Y-73808513D01*
X110107307Y-73808514D01*
X110095585Y-73816347D01*
X110089641Y-73820319D01*
X109984379Y-73890651D01*
X108484650Y-75390380D01*
X108484644Y-75390388D01*
X108435412Y-75464068D01*
X108435413Y-75464069D01*
X108402521Y-75513296D01*
X108402514Y-75513308D01*
X108345942Y-75649886D01*
X108345940Y-75649892D01*
X108317100Y-75794879D01*
X108317100Y-75850334D01*
X108297415Y-75917373D01*
X108267412Y-75949600D01*
X108185052Y-76011255D01*
X108098806Y-76126464D01*
X108098802Y-76126471D01*
X108048508Y-76261317D01*
X108042101Y-76320916D01*
X108042100Y-76320935D01*
X108042100Y-77916670D01*
X108042101Y-77916676D01*
X108048508Y-77976283D01*
X108098802Y-78111128D01*
X108098806Y-78111135D01*
X108185052Y-78226344D01*
X108185055Y-78226347D01*
X108300264Y-78312593D01*
X108300271Y-78312597D01*
X108435117Y-78362891D01*
X108435116Y-78362891D01*
X108442044Y-78363635D01*
X108494727Y-78369300D01*
X108976371Y-78369299D01*
X109043409Y-78388983D01*
X109089164Y-78441787D01*
X109099108Y-78510946D01*
X109070083Y-78574502D01*
X109064051Y-78580980D01*
X108878251Y-78766781D01*
X108816928Y-78800266D01*
X108790570Y-78803100D01*
X105646625Y-78803100D01*
X105579586Y-78783415D01*
X105558944Y-78766781D01*
X105430075Y-78637912D01*
X105430073Y-78637910D01*
X105277199Y-78526840D01*
X105108836Y-78441054D01*
X104929118Y-78382659D01*
X104742486Y-78353100D01*
X104742481Y-78353100D01*
X104553519Y-78353100D01*
X104553514Y-78353100D01*
X104366881Y-78382659D01*
X104187163Y-78441054D01*
X104018800Y-78526840D01*
X103953200Y-78574502D01*
X103865927Y-78637910D01*
X103865925Y-78637912D01*
X103865924Y-78637912D01*
X103732312Y-78771524D01*
X103732312Y-78771525D01*
X103732310Y-78771527D01*
X103723673Y-78783415D01*
X103621240Y-78924400D01*
X103535454Y-79092763D01*
X103477059Y-79272481D01*
X103447500Y-79459113D01*
X101744900Y-79459113D01*
X101744900Y-63719735D01*
X109241100Y-63719735D01*
X109241100Y-65515470D01*
X109241101Y-65515476D01*
X109247508Y-65575083D01*
X109297802Y-65709928D01*
X109297806Y-65709935D01*
X109384052Y-65825144D01*
X109384055Y-65825147D01*
X109499264Y-65911393D01*
X109499271Y-65911397D01*
X109634117Y-65961691D01*
X109634116Y-65961691D01*
X109641044Y-65962435D01*
X109693727Y-65968100D01*
X111489472Y-65968099D01*
X111549083Y-65961691D01*
X111683931Y-65911396D01*
X111799146Y-65825146D01*
X111885396Y-65709931D01*
X111934410Y-65578516D01*
X111976281Y-65522584D01*
X112041745Y-65498166D01*
X112110018Y-65513017D01*
X112138273Y-65534169D01*
X112251813Y-65647709D01*
X112423779Y-65772648D01*
X112423781Y-65772649D01*
X112423784Y-65772651D01*
X112613188Y-65869157D01*
X112815357Y-65934846D01*
X113025313Y-65968100D01*
X113025314Y-65968100D01*
X113237886Y-65968100D01*
X113237887Y-65968100D01*
X113447843Y-65934846D01*
X113650012Y-65869157D01*
X113839416Y-65772651D01*
X113899774Y-65728799D01*
X114011386Y-65647709D01*
X114011388Y-65647706D01*
X114011392Y-65647704D01*
X114161704Y-65497392D01*
X114161706Y-65497388D01*
X114161709Y-65497386D01*
X114286648Y-65325420D01*
X114286647Y-65325420D01*
X114286651Y-65325416D01*
X114291114Y-65316654D01*
X114339088Y-65265859D01*
X114406908Y-65249063D01*
X114473044Y-65271599D01*
X114512086Y-65316656D01*
X114516551Y-65325420D01*
X114641490Y-65497386D01*
X114791813Y-65647709D01*
X114963779Y-65772648D01*
X114963781Y-65772649D01*
X114963784Y-65772651D01*
X115153188Y-65869157D01*
X115355357Y-65934846D01*
X115565313Y-65968100D01*
X115565314Y-65968100D01*
X115777886Y-65968100D01*
X115777887Y-65968100D01*
X115987843Y-65934846D01*
X116190012Y-65869157D01*
X116379416Y-65772651D01*
X116439774Y-65728799D01*
X116551386Y-65647709D01*
X116551388Y-65647706D01*
X116551392Y-65647704D01*
X116701704Y-65497392D01*
X116701706Y-65497388D01*
X116701709Y-65497386D01*
X116826648Y-65325420D01*
X116826647Y-65325420D01*
X116826651Y-65325416D01*
X116923157Y-65136012D01*
X116988846Y-64933843D01*
X117022100Y-64723887D01*
X117022100Y-64511313D01*
X116988846Y-64301357D01*
X116923157Y-64099188D01*
X116826651Y-63909784D01*
X116826649Y-63909781D01*
X116826648Y-63909779D01*
X116701709Y-63737813D01*
X116551386Y-63587490D01*
X116379420Y-63462551D01*
X116190014Y-63366044D01*
X116190013Y-63366043D01*
X116190012Y-63366043D01*
X115987843Y-63300354D01*
X115987841Y-63300353D01*
X115987840Y-63300353D01*
X115826557Y-63274808D01*
X115777887Y-63267100D01*
X115565313Y-63267100D01*
X115516642Y-63274808D01*
X115355360Y-63300353D01*
X115153185Y-63366044D01*
X114963779Y-63462551D01*
X114791813Y-63587490D01*
X114641490Y-63737813D01*
X114516549Y-63909782D01*
X114512084Y-63918546D01*
X114464109Y-63969342D01*
X114396288Y-63986136D01*
X114330153Y-63963598D01*
X114291116Y-63918546D01*
X114286650Y-63909782D01*
X114161709Y-63737813D01*
X114011386Y-63587490D01*
X113839420Y-63462551D01*
X113650014Y-63366044D01*
X113650013Y-63366043D01*
X113650012Y-63366043D01*
X113447843Y-63300354D01*
X113447841Y-63300353D01*
X113447840Y-63300353D01*
X113286557Y-63274808D01*
X113237887Y-63267100D01*
X113025313Y-63267100D01*
X112976642Y-63274808D01*
X112815360Y-63300353D01*
X112613185Y-63366044D01*
X112423779Y-63462551D01*
X112251815Y-63587489D01*
X112138273Y-63701031D01*
X112076950Y-63734515D01*
X112007258Y-63729531D01*
X111951325Y-63687659D01*
X111934410Y-63656682D01*
X111885397Y-63525271D01*
X111885393Y-63525264D01*
X111799147Y-63410055D01*
X111799144Y-63410052D01*
X111683935Y-63323806D01*
X111683928Y-63323802D01*
X111549082Y-63273508D01*
X111549083Y-63273508D01*
X111489483Y-63267101D01*
X111489481Y-63267100D01*
X111489473Y-63267100D01*
X111489464Y-63267100D01*
X109693729Y-63267100D01*
X109693723Y-63267101D01*
X109634116Y-63273508D01*
X109499271Y-63323802D01*
X109499264Y-63323806D01*
X109384055Y-63410052D01*
X109384052Y-63410055D01*
X109297806Y-63525264D01*
X109297802Y-63525271D01*
X109247508Y-63660117D01*
X109241101Y-63719716D01*
X109241100Y-63719735D01*
X101744900Y-63719735D01*
X101744900Y-56317511D01*
X112093900Y-56317511D01*
X112093900Y-56560088D01*
X112125561Y-56800585D01*
X112188347Y-57034904D01*
X112281173Y-57259005D01*
X112281176Y-57259012D01*
X112402464Y-57469089D01*
X112402466Y-57469092D01*
X112402467Y-57469093D01*
X112550133Y-57661536D01*
X112550139Y-57661543D01*
X112721656Y-57833060D01*
X112721662Y-57833065D01*
X112914111Y-57980736D01*
X113124188Y-58102024D01*
X113348300Y-58194854D01*
X113582611Y-58257638D01*
X113762986Y-58281384D01*
X113823111Y-58289300D01*
X113823112Y-58289300D01*
X114065689Y-58289300D01*
X114113788Y-58282967D01*
X114306189Y-58257638D01*
X114540500Y-58194854D01*
X114764612Y-58102024D01*
X114974689Y-57980736D01*
X115167138Y-57833065D01*
X115338665Y-57661538D01*
X115486336Y-57469089D01*
X115607624Y-57259012D01*
X115700454Y-57034900D01*
X115763238Y-56800589D01*
X115794900Y-56560088D01*
X115794900Y-56317512D01*
X115763238Y-56077011D01*
X115700454Y-55842700D01*
X115607624Y-55618588D01*
X115486336Y-55408511D01*
X115338665Y-55216062D01*
X115338660Y-55216056D01*
X115167143Y-55044539D01*
X115167136Y-55044533D01*
X114974693Y-54896867D01*
X114974692Y-54896866D01*
X114974689Y-54896864D01*
X114764612Y-54775576D01*
X114680204Y-54740613D01*
X114540504Y-54682747D01*
X114306185Y-54619961D01*
X114065689Y-54588300D01*
X114065688Y-54588300D01*
X113823112Y-54588300D01*
X113823111Y-54588300D01*
X113582614Y-54619961D01*
X113348295Y-54682747D01*
X113124194Y-54775573D01*
X113124185Y-54775577D01*
X112914106Y-54896867D01*
X112721663Y-55044533D01*
X112721656Y-55044539D01*
X112550139Y-55216056D01*
X112550133Y-55216063D01*
X112402467Y-55408506D01*
X112281177Y-55618585D01*
X112281173Y-55618594D01*
X112188347Y-55842695D01*
X112125561Y-56077014D01*
X112093900Y-56317511D01*
X101744900Y-56317511D01*
X101744900Y-51475300D01*
X101764585Y-51408261D01*
X101817389Y-51362506D01*
X101868900Y-51351300D01*
X125399475Y-51351300D01*
X125425770Y-51359021D01*
G37*
%TD.AperFunction*%
%TD*%
M02*
